<?xml version="1.0" encoding="UTF-8" standalone="no"?>
<!DOCTYPE svg PUBLIC "-//W3C//DTD SVG 1.1//EN"
 "http://www.w3.org/Graphics/SVG/1.1/DTD/svg11.dtd">
<!-- Generated by graphviz version 2.44.1 (20200629.0846)
 -->
<!-- Title: dependencies Pages: 1 -->
<svg width="2555pt" height="284pt"
 viewBox="0.00 0.00 2555.00 284.00" xmlns="http://www.w3.org/2000/svg" xmlns:xlink="http://www.w3.org/1999/xlink">
<g id="graph0" class="graph" transform="scale(1 1) rotate(0) translate(4 280)">
<title>dependencies</title>
<polygon fill="white" stroke="transparent" points="-4,4 -4,-280 2551,-280 2551,4 -4,4"/>
<text text-anchor="start" x="1252.51" y="-42.4" font-family="sans-serif" font-weight="bold" font-size="14.00">Legend</text>
<polygon fill="#ffffb3" stroke="transparent" points="1039.5,-10 1039.5,-30 1059.5,-30 1059.5,-10 1039.5,-10"/>
<text text-anchor="start" x="1063.13" y="-15.4" font-family="sans-serif" font-size="14.00"> &#160;Declarations</text>
<polygon fill="#8dd3c7" stroke="transparent" points="1152.5,-10 1152.5,-30 1172.5,-30 1172.5,-10 1152.5,-10"/>
<text text-anchor="start" x="1176.23" y="-15.4" font-family="sans-serif" font-size="14.00"> &#160;Module</text>
<polygon fill="#80b1d3" stroke="transparent" points="1238.5,-10 1238.5,-30 1258.5,-30 1258.5,-10 1238.5,-10"/>
<text text-anchor="start" x="1262.28" y="-15.4" font-family="sans-serif" font-size="14.00"> &#160;Bootstrap</text>
<polygon fill="#fdb462" stroke="transparent" points="1335.5,-10 1335.5,-30 1355.5,-30 1355.5,-10 1335.5,-10"/>
<text text-anchor="start" x="1359.17" y="-15.4" font-family="sans-serif" font-size="14.00"> &#160;Providers</text>
<polygon fill="#fb8072" stroke="transparent" points="1431.5,-10 1431.5,-30 1451.5,-30 1451.5,-10 1431.5,-10"/>
<text text-anchor="start" x="1455.23" y="-15.4" font-family="sans-serif" font-size="14.00"> &#160;Exports</text>
<g id="clust1" class="cluster">
<title>cluster_AppModule</title>
<polygon fill="none" stroke="black" stroke-dasharray="1,5" points="8,-70 8,-268 2539,-268 2539,-70 8,-70"/>
</g>
<g id="clust14" class="cluster">
<title>cluster_AppModule_providers</title>
<polygon fill="none" stroke="black" points="1531,-78 1531,-130 2531,-130 2531,-78 1531,-78"/>
</g>
<g id="clust11" class="cluster">
<title>cluster_AppModule_imports</title>
<polygon fill="none" stroke="black" points="1151,-78 1151,-130 1523,-130 1523,-78 1151,-78"/>
</g>
<g id="clust13" class="cluster">
<title>cluster_AppModule_bootstrap</title>
<polygon fill="none" stroke="black" points="1150,-208 1150,-260 1274,-260 1274,-208 1150,-208"/>
</g>
<g id="clust2" class="cluster">
<title>cluster_AppModule_declarations</title>
<polygon fill="none" stroke="black" points="16,-78 16,-130 1143,-130 1143,-78 16,-78"/>
</g>
<!-- AdminComponent -->
<g id="node1" class="node">
<title>AdminComponent</title>
<polygon fill="#ffffb3" stroke="black" points="1135.22,-122 1014.78,-122 1014.78,-86 1135.22,-86 1135.22,-122"/>
<text text-anchor="middle" x="1075" y="-99.8" font-family="Times,serif" font-size="14.00">AdminComponent</text>
</g>
<!-- AppModule -->
<g id="node9" class="node">
<title>AppModule</title>
<polygon fill="#8dd3c7" stroke="black" points="1253.66,-187 1250.66,-191 1229.66,-191 1226.66,-187 1170.34,-187 1170.34,-151 1253.66,-151 1253.66,-187"/>
<text text-anchor="middle" x="1212" y="-164.8" font-family="Times,serif" font-size="14.00">AppModule</text>
</g>
<!-- AdminComponent&#45;&gt;AppModule -->
<g id="edge1" class="edge">
<title>AdminComponent&#45;&gt;AppModule</title>
<path fill="none" stroke="black" d="M1075,-122.12C1075,-136.78 1075,-155 1075,-155 1075,-155 1160.15,-155 1160.15,-155"/>
<polygon fill="black" stroke="black" points="1160.15,-158.5 1170.15,-155 1160.15,-151.5 1160.15,-158.5"/>
</g>
<!-- AppComponent -->
<g id="node2" class="node">
<title>AppComponent</title>
<polygon fill="#ffffb3" stroke="black" points="996.94,-122 891.06,-122 891.06,-86 996.94,-86 996.94,-122"/>
<text text-anchor="middle" x="944" y="-99.8" font-family="Times,serif" font-size="14.00">AppComponent</text>
</g>
<!-- AppComponent&#45;&gt;AppModule -->
<g id="edge2" class="edge">
<title>AppComponent&#45;&gt;AppModule</title>
<path fill="none" stroke="black" d="M944,-122.01C944,-138.05 944,-159 944,-159 944,-159 1160.12,-159 1160.12,-159"/>
<polygon fill="black" stroke="black" points="1160.13,-162.5 1170.12,-159 1160.12,-155.5 1160.13,-162.5"/>
</g>
<!-- EventsComponent -->
<g id="node3" class="node">
<title>EventsComponent</title>
<polygon fill="#ffffb3" stroke="black" points="873.94,-122 754.06,-122 754.06,-86 873.94,-86 873.94,-122"/>
<text text-anchor="middle" x="814" y="-99.8" font-family="Times,serif" font-size="14.00">EventsComponent</text>
</g>
<!-- EventsComponent&#45;&gt;AppModule -->
<g id="edge3" class="edge">
<title>EventsComponent&#45;&gt;AppModule</title>
<path fill="none" stroke="black" d="M814,-122.02C814,-139.37 814,-163 814,-163 814,-163 1160.16,-163 1160.16,-163"/>
<polygon fill="black" stroke="black" points="1160.16,-166.5 1170.16,-163 1160.16,-159.5 1160.16,-166.5"/>
</g>
<!-- NewsComponent -->
<g id="node4" class="node">
<title>NewsComponent</title>
<polygon fill="#ffffb3" stroke="black" points="736.7,-122 623.3,-122 623.3,-86 736.7,-86 736.7,-122"/>
<text text-anchor="middle" x="680" y="-99.8" font-family="Times,serif" font-size="14.00">NewsComponent</text>
</g>
<!-- NewsComponent&#45;&gt;AppModule -->
<g id="edge4" class="edge">
<title>NewsComponent&#45;&gt;AppModule</title>
<path fill="none" stroke="black" d="M680,-122.22C680,-140.83 680,-167 680,-167 680,-167 1160.25,-167 1160.25,-167"/>
<polygon fill="black" stroke="black" points="1160.25,-170.5 1170.25,-167 1160.25,-163.5 1160.25,-170.5"/>
</g>
<!-- RegisterComponent -->
<g id="node5" class="node">
<title>RegisterComponent</title>
<polygon fill="#ffffb3" stroke="black" points="604.98,-122 477.02,-122 477.02,-86 604.98,-86 604.98,-122"/>
<text text-anchor="middle" x="541" y="-99.8" font-family="Times,serif" font-size="14.00">RegisterComponent</text>
</g>
<!-- RegisterComponent&#45;&gt;AppModule -->
<g id="edge5" class="edge">
<title>RegisterComponent&#45;&gt;AppModule</title>
<path fill="none" stroke="black" d="M541,-122.31C541,-142.15 541,-171 541,-171 541,-171 1160.28,-171 1160.28,-171"/>
<polygon fill="black" stroke="black" points="1160.28,-174.5 1170.28,-171 1160.28,-167.5 1160.28,-174.5"/>
</g>
<!-- RoomsComponent -->
<g id="node6" class="node">
<title>RoomsComponent</title>
<polygon fill="#ffffb3" stroke="black" points="459.5,-122 338.5,-122 338.5,-86 459.5,-86 459.5,-122"/>
<text text-anchor="middle" x="399" y="-99.8" font-family="Times,serif" font-size="14.00">RoomsComponent</text>
</g>
<!-- RoomsComponent&#45;&gt;AppModule -->
<g id="edge6" class="edge">
<title>RoomsComponent&#45;&gt;AppModule</title>
<path fill="none" stroke="black" d="M399,-122.28C399,-143.32 399,-175 399,-175 399,-175 1160.28,-175 1160.28,-175"/>
<polygon fill="black" stroke="black" points="1160.28,-178.5 1170.28,-175 1160.28,-171.5 1160.28,-178.5"/>
</g>
<!-- SelectLanguageComponent -->
<g id="node7" class="node">
<title>SelectLanguageComponent</title>
<polygon fill="#ffffb3" stroke="black" points="320.24,-122 149.76,-122 149.76,-86 320.24,-86 320.24,-122"/>
<text text-anchor="middle" x="235" y="-99.8" font-family="Times,serif" font-size="14.00">SelectLanguageComponent</text>
</g>
<!-- SelectLanguageComponent&#45;&gt;AppModule -->
<g id="edge7" class="edge">
<title>SelectLanguageComponent&#45;&gt;AppModule</title>
<path fill="none" stroke="black" d="M235,-122.16C235,-144.35 235,-179 235,-179 235,-179 1160.33,-179 1160.33,-179"/>
<polygon fill="black" stroke="black" points="1160.33,-182.5 1170.33,-179 1160.33,-175.5 1160.33,-182.5"/>
</g>
<!-- StartComponent -->
<g id="node8" class="node">
<title>StartComponent</title>
<polygon fill="#ffffb3" stroke="black" points="131.77,-122 24.23,-122 24.23,-86 131.77,-86 131.77,-122"/>
<text text-anchor="middle" x="78" y="-99.8" font-family="Times,serif" font-size="14.00">StartComponent</text>
</g>
<!-- StartComponent&#45;&gt;AppModule -->
<g id="edge8" class="edge">
<title>StartComponent&#45;&gt;AppModule</title>
<path fill="none" stroke="black" d="M78,-122.32C78,-145.66 78,-183 78,-183 78,-183 1160.3,-183 1160.3,-183"/>
<polygon fill="black" stroke="black" points="1160.3,-186.5 1170.3,-183 1160.3,-179.5 1160.3,-186.5"/>
</g>
<!-- AppComponent  -->
<g id="node13" class="node">
<title>AppComponent </title>
<polygon fill="#80b1d3" stroke="black" points="1266.44,-252 1157.56,-252 1157.56,-216 1266.44,-216 1266.44,-252"/>
<text text-anchor="middle" x="1212" y="-229.8" font-family="Times,serif" font-size="14.00">AppComponent </text>
</g>
<!-- AppModule&#45;&gt;AppComponent  -->
<g id="edge12" class="edge">
<title>AppModule&#45;&gt;AppComponent </title>
<path fill="none" stroke="black" stroke-dasharray="1,5" d="M1212,-187.11C1212,-187.11 1212,-205.99 1212,-205.99"/>
<polygon fill="black" stroke="black" points="1208.5,-205.99 1212,-215.99 1215.5,-205.99 1208.5,-205.99"/>
</g>
<!-- AppRoutingModule -->
<g id="node10" class="node">
<title>AppRoutingModule</title>
<polygon fill="#8dd3c7" stroke="black" points="1515.27,-122 1512.27,-126 1491.27,-126 1488.27,-122 1386.73,-122 1386.73,-86 1515.27,-86 1515.27,-122"/>
<text text-anchor="middle" x="1451" y="-99.8" font-family="Times,serif" font-size="14.00">AppRoutingModule</text>
</g>
<!-- AppRoutingModule&#45;&gt;AppModule -->
<g id="edge9" class="edge">
<title>AppRoutingModule&#45;&gt;AppModule</title>
<path fill="none" stroke="black" d="M1451,-122.01C1451,-138.05 1451,-159 1451,-159 1451,-159 1263.9,-159 1263.9,-159"/>
<polygon fill="black" stroke="black" points="1263.9,-155.5 1253.9,-159 1263.9,-162.5 1263.9,-155.5"/>
</g>
<!-- I18nModule -->
<g id="node11" class="node">
<title>I18nModule</title>
<polygon fill="#8dd3c7" stroke="black" points="1368.71,-122 1365.71,-126 1344.71,-126 1341.71,-122 1283.29,-122 1283.29,-86 1368.71,-86 1368.71,-122"/>
<text text-anchor="middle" x="1326" y="-99.8" font-family="Times,serif" font-size="14.00">I18nModule</text>
</g>
<!-- I18nModule&#45;&gt;AppModule -->
<g id="edge10" class="edge">
<title>I18nModule&#45;&gt;AppModule</title>
<path fill="none" stroke="black" d="M1326,-122.12C1326,-136.78 1326,-155 1326,-155 1326,-155 1263.8,-155 1263.8,-155"/>
<polygon fill="black" stroke="black" points="1263.8,-151.5 1253.8,-155 1263.8,-158.5 1263.8,-151.5"/>
</g>
<!-- MaterialModule -->
<g id="node12" class="node">
<title>MaterialModule</title>
<polygon fill="#8dd3c7" stroke="black" points="1265.47,-122 1262.47,-126 1241.47,-126 1238.47,-122 1158.53,-122 1158.53,-86 1265.47,-86 1265.47,-122"/>
<text text-anchor="middle" x="1212" y="-99.8" font-family="Times,serif" font-size="14.00">MaterialModule</text>
</g>
<!-- MaterialModule&#45;&gt;AppModule -->
<g id="edge11" class="edge">
<title>MaterialModule&#45;&gt;AppModule</title>
<path fill="none" stroke="black" d="M1212,-122.11C1212,-122.11 1212,-140.99 1212,-140.99"/>
<polygon fill="black" stroke="black" points="1208.5,-140.99 1212,-150.99 1215.5,-140.99 1208.5,-140.99"/>
</g>
<!-- AuthService -->
<g id="node14" class="node">
<title>AuthService</title>
<ellipse fill="#fdb462" stroke="black" cx="2464" cy="-104" rx="59.11" ry="18"/>
<text text-anchor="middle" x="2464" y="-99.8" font-family="Times,serif" font-size="14.00">AuthService</text>
</g>
<!-- AuthService&#45;&gt;AppModule -->
<g id="edge13" class="edge">
<title>AuthService&#45;&gt;AppModule</title>
<path fill="none" stroke="black" d="M2464,-122.32C2464,-145.66 2464,-183 2464,-183 2464,-183 1264.01,-183 1264.01,-183"/>
<polygon fill="black" stroke="black" points="1264.01,-179.5 1254.01,-183 1264.01,-186.5 1264.01,-179.5"/>
</g>
<!-- EventService -->
<g id="node15" class="node">
<title>EventService</title>
<ellipse fill="#fdb462" stroke="black" cx="2324" cy="-104" rx="62.54" ry="18"/>
<text text-anchor="middle" x="2324" y="-99.8" font-family="Times,serif" font-size="14.00">EventService</text>
</g>
<!-- EventService&#45;&gt;AppModule -->
<g id="edge14" class="edge">
<title>EventService&#45;&gt;AppModule</title>
<path fill="none" stroke="black" d="M2324,-122.16C2324,-144.35 2324,-179 2324,-179 2324,-179 1263.9,-179 1263.9,-179"/>
<polygon fill="black" stroke="black" points="1263.9,-175.5 1253.9,-179 1263.9,-182.5 1263.9,-175.5"/>
</g>
<!-- MarkerService -->
<g id="node16" class="node">
<title>MarkerService</title>
<ellipse fill="#fdb462" stroke="black" cx="2175" cy="-104" rx="68.32" ry="18"/>
<text text-anchor="middle" x="2175" y="-99.8" font-family="Times,serif" font-size="14.00">MarkerService</text>
</g>
<!-- MarkerService&#45;&gt;AppModule -->
<g id="edge15" class="edge">
<title>MarkerService&#45;&gt;AppModule</title>
<path fill="none" stroke="black" d="M2175,-122.28C2175,-143.32 2175,-175 2175,-175 2175,-175 1263.69,-175 1263.69,-175"/>
<polygon fill="black" stroke="black" points="1263.69,-171.5 1253.69,-175 1263.69,-178.5 1263.69,-171.5"/>
</g>
<!-- NavigationService -->
<g id="node17" class="node">
<title>NavigationService</title>
<ellipse fill="#fdb462" stroke="black" cx="2006" cy="-104" rx="82.8" ry="18"/>
<text text-anchor="middle" x="2006" y="-99.8" font-family="Times,serif" font-size="14.00">NavigationService</text>
</g>
<!-- NavigationService&#45;&gt;AppModule -->
<g id="edge16" class="edge">
<title>NavigationService&#45;&gt;AppModule</title>
<path fill="none" stroke="black" d="M2006,-122.31C2006,-142.15 2006,-171 2006,-171 2006,-171 1263.85,-171 1263.85,-171"/>
<polygon fill="black" stroke="black" points="1263.85,-167.5 1253.85,-171 1263.85,-174.5 1263.85,-167.5"/>
</g>
<!-- PopUpService -->
<g id="node18" class="node">
<title>PopUpService</title>
<ellipse fill="#fdb462" stroke="black" cx="1838" cy="-104" rx="66.63" ry="18"/>
<text text-anchor="middle" x="1838" y="-99.8" font-family="Times,serif" font-size="14.00">PopUpService</text>
</g>
<!-- PopUpService&#45;&gt;AppModule -->
<g id="edge17" class="edge">
<title>PopUpService&#45;&gt;AppModule</title>
<path fill="none" stroke="black" d="M1838,-122.22C1838,-140.83 1838,-167 1838,-167 1838,-167 1264.05,-167 1264.05,-167"/>
<polygon fill="black" stroke="black" points="1264.05,-163.5 1254.05,-167 1264.05,-170.5 1264.05,-163.5"/>
</g>
<!-- TokenInterceptorService -->
<g id="node19" class="node">
<title>TokenInterceptorService</title>
<ellipse fill="#fdb462" stroke="black" cx="1646" cy="-104" rx="107.04" ry="18"/>
<text text-anchor="middle" x="1646" y="-99.8" font-family="Times,serif" font-size="14.00">TokenInterceptorService</text>
</g>
<!-- TokenInterceptorService&#45;&gt;AppModule -->
<g id="edge18" class="edge">
<title>TokenInterceptorService&#45;&gt;AppModule</title>
<path fill="none" stroke="black" d="M1646,-122.02C1646,-139.37 1646,-163 1646,-163 1646,-163 1264.01,-163 1264.01,-163"/>
<polygon fill="black" stroke="black" points="1264.01,-159.5 1254.01,-163 1264.01,-166.5 1264.01,-159.5"/>
</g>
</g>
</svg>
