<?xml version="1.0" encoding="UTF-8" standalone="no"?>
<!DOCTYPE svg PUBLIC "-//W3C//DTD SVG 1.1//EN"
 "http://www.w3.org/Graphics/SVG/1.1/DTD/svg11.dtd">
<!-- Generated by graphviz version 2.44.1 (20200629.0846)
 -->
<!-- Title: dependencies Pages: 1 -->
<svg width="2843pt" height="284pt"
 viewBox="0.00 0.00 2843.00 284.00" xmlns="http://www.w3.org/2000/svg" xmlns:xlink="http://www.w3.org/1999/xlink">
<g id="graph0" class="graph" transform="scale(1 1) rotate(0) translate(4 280)">
<title>dependencies</title>
<polygon fill="white" stroke="transparent" points="-4,4 -4,-280 2839,-280 2839,4 -4,4"/>
<text text-anchor="start" x="1396.51" y="-42.4" font-family="sans-serif" font-weight="bold" font-size="14.00">Legend</text>
<polygon fill="#ffffb3" stroke="transparent" points="1183.5,-10 1183.5,-30 1203.5,-30 1203.5,-10 1183.5,-10"/>
<text text-anchor="start" x="1207.13" y="-15.4" font-family="sans-serif" font-size="14.00"> &#160;Declarations</text>
<polygon fill="#8dd3c7" stroke="transparent" points="1296.5,-10 1296.5,-30 1316.5,-30 1316.5,-10 1296.5,-10"/>
<text text-anchor="start" x="1320.23" y="-15.4" font-family="sans-serif" font-size="14.00"> &#160;Module</text>
<polygon fill="#80b1d3" stroke="transparent" points="1382.5,-10 1382.5,-30 1402.5,-30 1402.5,-10 1382.5,-10"/>
<text text-anchor="start" x="1406.28" y="-15.4" font-family="sans-serif" font-size="14.00"> &#160;Bootstrap</text>
<polygon fill="#fdb462" stroke="transparent" points="1479.5,-10 1479.5,-30 1499.5,-30 1499.5,-10 1479.5,-10"/>
<text text-anchor="start" x="1503.17" y="-15.4" font-family="sans-serif" font-size="14.00"> &#160;Providers</text>
<polygon fill="#fb8072" stroke="transparent" points="1575.5,-10 1575.5,-30 1595.5,-30 1595.5,-10 1575.5,-10"/>
<text text-anchor="start" x="1599.23" y="-15.4" font-family="sans-serif" font-size="14.00"> &#160;Exports</text>
<g id="clust1" class="cluster">
<title>cluster_AppModule</title>
<polygon fill="none" stroke="black" stroke-dasharray="1,5" points="8,-70 8,-268 2827,-268 2827,-70 8,-70"/>
</g>
<g id="clust16" class="cluster">
<title>cluster_AppModule_providers</title>
<polygon fill="none" stroke="black" points="1819,-78 1819,-130 2819,-130 2819,-78 1819,-78"/>
</g>
<g id="clust2" class="cluster">
<title>cluster_AppModule_declarations</title>
<polygon fill="none" stroke="black" points="396,-78 396,-130 1811,-130 1811,-78 396,-78"/>
</g>
<g id="clust15" class="cluster">
<title>cluster_AppModule_bootstrap</title>
<polygon fill="none" stroke="black" points="1285,-208 1285,-260 1409,-260 1409,-208 1285,-208"/>
</g>
<g id="clust13" class="cluster">
<title>cluster_AppModule_imports</title>
<polygon fill="none" stroke="black" points="16,-78 16,-130 388,-130 388,-78 16,-78"/>
</g>
<!-- AppComponent -->
<g id="node1" class="node">
<title>AppComponent</title>
<polygon fill="#ffffb3" stroke="black" points="1802.94,-122 1697.06,-122 1697.06,-86 1802.94,-86 1802.94,-122"/>
<text text-anchor="middle" x="1750" y="-99.8" font-family="Times,serif" font-size="14.00">AppComponent</text>
</g>
<!-- AppModule -->
<g id="node11" class="node">
<title>AppModule</title>
<polygon fill="#8dd3c7" stroke="black" points="1388.66,-187 1385.66,-191 1364.66,-191 1361.66,-187 1305.34,-187 1305.34,-151 1388.66,-151 1388.66,-187"/>
<text text-anchor="middle" x="1347" y="-164.8" font-family="Times,serif" font-size="14.00">AppModule</text>
</g>
<!-- AppComponent&#45;&gt;AppModule -->
<g id="edge1" class="edge">
<title>AppComponent&#45;&gt;AppModule</title>
<path fill="none" stroke="black" d="M1750,-122.03C1750,-139.06 1750,-162 1750,-162 1750,-162 1398.99,-162 1398.99,-162"/>
<polygon fill="black" stroke="black" points="1398.99,-158.5 1388.99,-162 1398.99,-165.5 1398.99,-158.5"/>
</g>
<!-- ConfigComponent -->
<g id="node2" class="node">
<title>ConfigComponent</title>
<polygon fill="#ffffb3" stroke="black" points="1679.22,-122 1558.78,-122 1558.78,-86 1679.22,-86 1679.22,-122"/>
<text text-anchor="middle" x="1619" y="-99.8" font-family="Times,serif" font-size="14.00">ConfigComponent</text>
</g>
<!-- ConfigComponent&#45;&gt;AppModule -->
<g id="edge2" class="edge">
<title>ConfigComponent&#45;&gt;AppModule</title>
<path fill="none" stroke="black" d="M1619,-122.01C1619,-138.05 1619,-159 1619,-159 1619,-159 1398.9,-159 1398.9,-159"/>
<polygon fill="black" stroke="black" points="1398.9,-155.5 1388.9,-159 1398.9,-162.5 1398.9,-155.5"/>
</g>
<!-- IndoorComponent -->
<g id="node3" class="node">
<title>IndoorComponent</title>
<polygon fill="#ffffb3" stroke="black" points="1541.15,-122 1422.85,-122 1422.85,-86 1541.15,-86 1541.15,-122"/>
<text text-anchor="middle" x="1482" y="-99.8" font-family="Times,serif" font-size="14.00">IndoorComponent</text>
</g>
<!-- IndoorComponent&#45;&gt;AppModule -->
<g id="edge3" class="edge">
<title>IndoorComponent&#45;&gt;AppModule</title>
<path fill="none" stroke="black" d="M1482,-122.12C1482,-136.78 1482,-155 1482,-155 1482,-155 1398.97,-155 1398.97,-155"/>
<polygon fill="black" stroke="black" points="1398.97,-151.5 1388.97,-155 1398.97,-158.5 1398.97,-151.5"/>
</g>
<!-- LoginComponent -->
<g id="node4" class="node">
<title>LoginComponent</title>
<polygon fill="#ffffb3" stroke="black" points="1404.28,-122 1289.72,-122 1289.72,-86 1404.28,-86 1404.28,-122"/>
<text text-anchor="middle" x="1347" y="-99.8" font-family="Times,serif" font-size="14.00">LoginComponent</text>
</g>
<!-- LoginComponent&#45;&gt;AppModule -->
<g id="edge4" class="edge">
<title>LoginComponent&#45;&gt;AppModule</title>
<path fill="none" stroke="black" d="M1347,-122.11C1347,-122.11 1347,-140.99 1347,-140.99"/>
<polygon fill="black" stroke="black" points="1343.5,-140.99 1347,-150.99 1350.5,-140.99 1343.5,-140.99"/>
</g>
<!-- NavbarComponent -->
<g id="node5" class="node">
<title>NavbarComponent</title>
<polygon fill="#ffffb3" stroke="black" points="1271.03,-122 1148.97,-122 1148.97,-86 1271.03,-86 1271.03,-122"/>
<text text-anchor="middle" x="1210" y="-99.8" font-family="Times,serif" font-size="14.00">NavbarComponent</text>
</g>
<!-- NavbarComponent&#45;&gt;AppModule -->
<g id="edge5" class="edge">
<title>NavbarComponent&#45;&gt;AppModule</title>
<path fill="none" stroke="black" d="M1210,-122.12C1210,-136.78 1210,-155 1210,-155 1210,-155 1295.15,-155 1295.15,-155"/>
<polygon fill="black" stroke="black" points="1295.15,-158.5 1305.15,-155 1295.15,-151.5 1295.15,-158.5"/>
</g>
<!-- OutdoorComponent -->
<g id="node6" class="node">
<title>OutdoorComponent</title>
<polygon fill="#ffffb3" stroke="black" points="1130.99,-122 1003.01,-122 1003.01,-86 1130.99,-86 1130.99,-122"/>
<text text-anchor="middle" x="1067" y="-99.8" font-family="Times,serif" font-size="14.00">OutdoorComponent</text>
</g>
<!-- OutdoorComponent&#45;&gt;AppModule -->
<g id="edge6" class="edge">
<title>OutdoorComponent&#45;&gt;AppModule</title>
<path fill="none" stroke="black" d="M1067,-122.01C1067,-138.05 1067,-159 1067,-159 1067,-159 1295.08,-159 1295.08,-159"/>
<polygon fill="black" stroke="black" points="1295.08,-162.5 1305.08,-159 1295.08,-155.5 1295.08,-162.5"/>
</g>
<!-- RegisterComponent -->
<g id="node7" class="node">
<title>RegisterComponent</title>
<polygon fill="#ffffb3" stroke="black" points="984.98,-122 857.02,-122 857.02,-86 984.98,-86 984.98,-122"/>
<text text-anchor="middle" x="921" y="-99.8" font-family="Times,serif" font-size="14.00">RegisterComponent</text>
</g>
<!-- RegisterComponent&#45;&gt;AppModule -->
<g id="edge7" class="edge">
<title>RegisterComponent&#45;&gt;AppModule</title>
<path fill="none" stroke="black" d="M921,-122.03C921,-139.06 921,-162 921,-162 921,-162 1294.99,-162 1294.99,-162"/>
<polygon fill="black" stroke="black" points="1294.99,-165.5 1304.99,-162 1294.99,-158.5 1294.99,-165.5"/>
</g>
<!-- RoomsComponent -->
<g id="node8" class="node">
<title>RoomsComponent</title>
<polygon fill="#ffffb3" stroke="black" points="839.5,-122 718.5,-122 718.5,-86 839.5,-86 839.5,-122"/>
<text text-anchor="middle" x="779" y="-99.8" font-family="Times,serif" font-size="14.00">RoomsComponent</text>
</g>
<!-- RoomsComponent&#45;&gt;AppModule -->
<g id="edge8" class="edge">
<title>RoomsComponent&#45;&gt;AppModule</title>
<path fill="none" stroke="black" d="M779,-122.27C779,-140.56 779,-166 779,-166 779,-166 1295.23,-166 1295.23,-166"/>
<polygon fill="black" stroke="black" points="1295.23,-169.5 1305.23,-166 1295.23,-162.5 1295.23,-169.5"/>
</g>
<!-- SelectLanguageComponent -->
<g id="node9" class="node">
<title>SelectLanguageComponent</title>
<polygon fill="#ffffb3" stroke="black" points="700.24,-122 529.76,-122 529.76,-86 700.24,-86 700.24,-122"/>
<text text-anchor="middle" x="615" y="-99.8" font-family="Times,serif" font-size="14.00">SelectLanguageComponent</text>
</g>
<!-- SelectLanguageComponent&#45;&gt;AppModule -->
<g id="edge9" class="edge">
<title>SelectLanguageComponent&#45;&gt;AppModule</title>
<path fill="none" stroke="black" d="M615,-122.11C615,-141.34 615,-169 615,-169 615,-169 1295.28,-169 1295.28,-169"/>
<polygon fill="black" stroke="black" points="1295.28,-172.5 1305.28,-169 1295.28,-165.5 1295.28,-172.5"/>
</g>
<!-- StartComponent -->
<g id="node10" class="node">
<title>StartComponent</title>
<polygon fill="#ffffb3" stroke="black" points="511.77,-122 404.23,-122 404.23,-86 511.77,-86 511.77,-122"/>
<text text-anchor="middle" x="458" y="-99.8" font-family="Times,serif" font-size="14.00">StartComponent</text>
</g>
<!-- StartComponent&#45;&gt;AppModule -->
<g id="edge10" class="edge">
<title>StartComponent&#45;&gt;AppModule</title>
<path fill="none" stroke="black" d="M458,-122.13C458,-142.57 458,-173 458,-173 458,-173 1295.31,-173 1295.31,-173"/>
<polygon fill="black" stroke="black" points="1295.31,-176.5 1305.31,-173 1295.31,-169.5 1295.31,-176.5"/>
</g>
<!-- AppComponent  -->
<g id="node15" class="node">
<title>AppComponent </title>
<polygon fill="#80b1d3" stroke="black" points="1401.44,-252 1292.56,-252 1292.56,-216 1401.44,-216 1401.44,-252"/>
<text text-anchor="middle" x="1347" y="-229.8" font-family="Times,serif" font-size="14.00">AppComponent </text>
</g>
<!-- AppModule&#45;&gt;AppComponent  -->
<g id="edge14" class="edge">
<title>AppModule&#45;&gt;AppComponent </title>
<path fill="none" stroke="black" stroke-dasharray="1,5" d="M1347,-187.11C1347,-187.11 1347,-205.99 1347,-205.99"/>
<polygon fill="black" stroke="black" points="1343.5,-205.99 1347,-215.99 1350.5,-205.99 1343.5,-205.99"/>
</g>
<!-- AppRoutingModule -->
<g id="node12" class="node">
<title>AppRoutingModule</title>
<polygon fill="#8dd3c7" stroke="black" points="380.27,-122 377.27,-126 356.27,-126 353.27,-122 251.73,-122 251.73,-86 380.27,-86 380.27,-122"/>
<text text-anchor="middle" x="316" y="-99.8" font-family="Times,serif" font-size="14.00">AppRoutingModule</text>
</g>
<!-- AppRoutingModule&#45;&gt;AppModule -->
<g id="edge11" class="edge">
<title>AppRoutingModule&#45;&gt;AppModule</title>
<path fill="none" stroke="black" d="M316,-122.04C316,-143.66 316,-177 316,-177 316,-177 1295.31,-177 1295.31,-177"/>
<polygon fill="black" stroke="black" points="1295.31,-180.5 1305.31,-177 1295.31,-173.5 1295.31,-180.5"/>
</g>
<!-- I18nModule -->
<g id="node13" class="node">
<title>I18nModule</title>
<polygon fill="#8dd3c7" stroke="black" points="233.71,-122 230.71,-126 209.71,-126 206.71,-122 148.29,-122 148.29,-86 233.71,-86 233.71,-122"/>
<text text-anchor="middle" x="191" y="-99.8" font-family="Times,serif" font-size="14.00">I18nModule</text>
</g>
<!-- I18nModule&#45;&gt;AppModule -->
<g id="edge12" class="edge">
<title>I18nModule&#45;&gt;AppModule</title>
<path fill="none" stroke="black" d="M191,-122.01C191,-144.49 191,-180 191,-180 191,-180 1295.17,-180 1295.17,-180"/>
<polygon fill="black" stroke="black" points="1295.17,-183.5 1305.17,-180 1295.17,-176.5 1295.17,-183.5"/>
</g>
<!-- MaterialModule -->
<g id="node14" class="node">
<title>MaterialModule</title>
<polygon fill="#8dd3c7" stroke="black" points="130.47,-122 127.47,-126 106.47,-126 103.47,-122 23.53,-122 23.53,-86 130.47,-86 130.47,-122"/>
<text text-anchor="middle" x="77" y="-99.8" font-family="Times,serif" font-size="14.00">MaterialModule</text>
</g>
<!-- MaterialModule&#45;&gt;AppModule -->
<g id="edge13" class="edge">
<title>MaterialModule&#45;&gt;AppModule</title>
<path fill="none" stroke="black" d="M77,-122.15C77,-145.76 77,-184 77,-184 77,-184 1295.11,-184 1295.11,-184"/>
<polygon fill="black" stroke="black" points="1295.11,-187.5 1305.11,-184 1295.11,-180.5 1295.11,-187.5"/>
</g>
<!-- AuthService -->
<g id="node16" class="node">
<title>AuthService</title>
<ellipse fill="#fdb462" stroke="black" cx="2752" cy="-104" rx="59.11" ry="18"/>
<text text-anchor="middle" x="2752" y="-99.8" font-family="Times,serif" font-size="14.00">AuthService</text>
</g>
<!-- AuthService&#45;&gt;AppModule -->
<g id="edge15" class="edge">
<title>AuthService&#45;&gt;AppModule</title>
<path fill="none" stroke="black" d="M2752,-122.15C2752,-145.76 2752,-184 2752,-184 2752,-184 1398.67,-184 1398.67,-184"/>
<polygon fill="black" stroke="black" points="1398.67,-180.5 1388.67,-184 1398.67,-187.5 1398.67,-180.5"/>
</g>
<!-- EventService -->
<g id="node17" class="node">
<title>EventService</title>
<ellipse fill="#fdb462" stroke="black" cx="2612" cy="-104" rx="62.54" ry="18"/>
<text text-anchor="middle" x="2612" y="-99.8" font-family="Times,serif" font-size="14.00">EventService</text>
</g>
<!-- EventService&#45;&gt;AppModule -->
<g id="edge16" class="edge">
<title>EventService&#45;&gt;AppModule</title>
<path fill="none" stroke="black" d="M2612,-122.01C2612,-144.49 2612,-180 2612,-180 2612,-180 1398.73,-180 1398.73,-180"/>
<polygon fill="black" stroke="black" points="1398.73,-176.5 1388.73,-180 1398.73,-183.5 1398.73,-176.5"/>
</g>
<!-- MarkerService -->
<g id="node18" class="node">
<title>MarkerService</title>
<ellipse fill="#fdb462" stroke="black" cx="2463" cy="-104" rx="68.32" ry="18"/>
<text text-anchor="middle" x="2463" y="-99.8" font-family="Times,serif" font-size="14.00">MarkerService</text>
</g>
<!-- MarkerService&#45;&gt;AppModule -->
<g id="edge17" class="edge">
<title>MarkerService&#45;&gt;AppModule</title>
<path fill="none" stroke="black" d="M2463,-122.04C2463,-143.66 2463,-177 2463,-177 2463,-177 1398.71,-177 1398.71,-177"/>
<polygon fill="black" stroke="black" points="1398.71,-173.5 1388.71,-177 1398.71,-180.5 1398.71,-173.5"/>
</g>
<!-- NavigationService -->
<g id="node19" class="node">
<title>NavigationService</title>
<ellipse fill="#fdb462" stroke="black" cx="2294" cy="-104" rx="82.8" ry="18"/>
<text text-anchor="middle" x="2294" y="-99.8" font-family="Times,serif" font-size="14.00">NavigationService</text>
</g>
<!-- NavigationService&#45;&gt;AppModule -->
<g id="edge18" class="edge">
<title>NavigationService&#45;&gt;AppModule</title>
<path fill="none" stroke="black" d="M2294,-122.13C2294,-142.57 2294,-173 2294,-173 2294,-173 1398.91,-173 1398.91,-173"/>
<polygon fill="black" stroke="black" points="1398.91,-169.5 1388.91,-173 1398.91,-176.5 1398.91,-169.5"/>
</g>
<!-- PopUpService -->
<g id="node20" class="node">
<title>PopUpService</title>
<ellipse fill="#fdb462" stroke="black" cx="2126" cy="-104" rx="66.63" ry="18"/>
<text text-anchor="middle" x="2126" y="-99.8" font-family="Times,serif" font-size="14.00">PopUpService</text>
</g>
<!-- PopUpService&#45;&gt;AppModule -->
<g id="edge19" class="edge">
<title>PopUpService&#45;&gt;AppModule</title>
<path fill="none" stroke="black" d="M2126,-122.11C2126,-141.34 2126,-169 2126,-169 2126,-169 1398.88,-169 1398.88,-169"/>
<polygon fill="black" stroke="black" points="1398.88,-165.5 1388.88,-169 1398.88,-172.5 1398.88,-165.5"/>
</g>
<!-- TokenInterceptorService -->
<g id="node21" class="node">
<title>TokenInterceptorService</title>
<ellipse fill="#fdb462" stroke="black" cx="1934" cy="-104" rx="107.04" ry="18"/>
<text text-anchor="middle" x="1934" y="-99.8" font-family="Times,serif" font-size="14.00">TokenInterceptorService</text>
</g>
<!-- TokenInterceptorService&#45;&gt;AppModule -->
<g id="edge20" class="edge">
<title>TokenInterceptorService&#45;&gt;AppModule</title>
<path fill="none" stroke="black" d="M1934,-122.27C1934,-140.56 1934,-166 1934,-166 1934,-166 1398.75,-166 1398.75,-166"/>
<polygon fill="black" stroke="black" points="1398.75,-162.5 1388.75,-166 1398.74,-169.5 1398.75,-162.5"/>
</g>
</g>
</svg>
