<?xml version="1.0" encoding="UTF-8" standalone="no"?>
<!DOCTYPE svg PUBLIC "-//W3C//DTD SVG 1.1//EN"
 "http://www.w3.org/Graphics/SVG/1.1/DTD/svg11.dtd">
<!-- Generated by graphviz version 2.44.1 (20200629.0846)
 -->
<!-- Title: dependencies Pages: 1 -->
<svg width="2007pt" height="284pt"
 viewBox="0.00 0.00 2007.00 284.00" xmlns="http://www.w3.org/2000/svg" xmlns:xlink="http://www.w3.org/1999/xlink">
<g id="graph0" class="graph" transform="scale(1 1) rotate(0) translate(4 280)">
<title>dependencies</title>
<polygon fill="white" stroke="transparent" points="-4,4 -4,-280 2003,-280 2003,4 -4,4"/>
<text text-anchor="start" x="978.51" y="-42.4" font-family="sans-serif" font-weight="bold" font-size="14.00">Legend</text>
<polygon fill="#ffffb3" stroke="transparent" points="765.5,-10 765.5,-30 785.5,-30 785.5,-10 765.5,-10"/>
<text text-anchor="start" x="789.13" y="-15.4" font-family="sans-serif" font-size="14.00"> &#160;Declarations</text>
<polygon fill="#8dd3c7" stroke="transparent" points="878.5,-10 878.5,-30 898.5,-30 898.5,-10 878.5,-10"/>
<text text-anchor="start" x="902.23" y="-15.4" font-family="sans-serif" font-size="14.00"> &#160;Module</text>
<polygon fill="#80b1d3" stroke="transparent" points="964.5,-10 964.5,-30 984.5,-30 984.5,-10 964.5,-10"/>
<text text-anchor="start" x="988.28" y="-15.4" font-family="sans-serif" font-size="14.00"> &#160;Bootstrap</text>
<polygon fill="#fdb462" stroke="transparent" points="1061.5,-10 1061.5,-30 1081.5,-30 1081.5,-10 1061.5,-10"/>
<text text-anchor="start" x="1085.17" y="-15.4" font-family="sans-serif" font-size="14.00"> &#160;Providers</text>
<polygon fill="#fb8072" stroke="transparent" points="1157.5,-10 1157.5,-30 1177.5,-30 1177.5,-10 1157.5,-10"/>
<text text-anchor="start" x="1181.23" y="-15.4" font-family="sans-serif" font-size="14.00"> &#160;Exports</text>
<g id="clust1" class="cluster">
<title>cluster_AppModule</title>
<polygon fill="none" stroke="black" stroke-dasharray="1,5" points="8,-70 8,-268 1991,-268 1991,-70 8,-70"/>
</g>
<g id="clust2" class="cluster">
<title>cluster_AppModule_declarations</title>
<polygon fill="none" stroke="black" points="396,-78 396,-130 1983,-130 1983,-78 396,-78"/>
</g>
<g id="clust14" class="cluster">
<title>cluster_AppModule_imports</title>
<polygon fill="none" stroke="black" points="16,-78 16,-130 388,-130 388,-78 16,-78"/>
</g>
<g id="clust16" class="cluster">
<title>cluster_AppModule_bootstrap</title>
<polygon fill="none" stroke="black" points="925,-208 925,-260 1049,-260 1049,-208 925,-208"/>
</g>
<!-- AdminComponent -->
<g id="node1" class="node">
<title>AdminComponent</title>
<polygon fill="#ffffb3" stroke="black" points="1975.22,-122 1854.78,-122 1854.78,-86 1975.22,-86 1975.22,-122"/>
<text text-anchor="middle" x="1915" y="-99.8" font-family="Times,serif" font-size="14.00">AdminComponent</text>
</g>
<!-- AppModule -->
<g id="node12" class="node">
<title>AppModule</title>
<polygon fill="#8dd3c7" stroke="black" points="1028.66,-187 1025.66,-191 1004.66,-191 1001.66,-187 945.34,-187 945.34,-151 1028.66,-151 1028.66,-187"/>
<text text-anchor="middle" x="987" y="-164.8" font-family="Times,serif" font-size="14.00">AppModule</text>
</g>
<!-- AdminComponent&#45;&gt;AppModule -->
<g id="edge1" class="edge">
<title>AdminComponent&#45;&gt;AppModule</title>
<path fill="none" stroke="black" d="M1915,-122.09C1915,-145.13 1915,-182 1915,-182 1915,-182 1038.68,-182 1038.68,-182"/>
<polygon fill="black" stroke="black" points="1038.68,-178.5 1028.68,-182 1038.68,-185.5 1038.68,-178.5"/>
</g>
<!-- AppComponent -->
<g id="node2" class="node">
<title>AppComponent</title>
<polygon fill="#ffffb3" stroke="black" points="1836.94,-122 1731.06,-122 1731.06,-86 1836.94,-86 1836.94,-122"/>
<text text-anchor="middle" x="1784" y="-99.8" font-family="Times,serif" font-size="14.00">AppComponent</text>
</g>
<!-- AppComponent&#45;&gt;AppModule -->
<g id="edge2" class="edge">
<title>AppComponent&#45;&gt;AppModule</title>
<path fill="none" stroke="black" d="M1784,-122.04C1784,-143.66 1784,-177 1784,-177 1784,-177 1038.73,-177 1038.73,-177"/>
<polygon fill="black" stroke="black" points="1038.73,-173.5 1028.73,-177 1038.73,-180.5 1038.73,-173.5"/>
</g>
<!-- EventsComponent -->
<g id="node3" class="node">
<title>EventsComponent</title>
<polygon fill="#ffffb3" stroke="black" points="1713.94,-122 1594.06,-122 1594.06,-86 1713.94,-86 1713.94,-122"/>
<text text-anchor="middle" x="1654" y="-99.8" font-family="Times,serif" font-size="14.00">EventsComponent</text>
</g>
<!-- EventsComponent&#45;&gt;AppModule -->
<g id="edge3" class="edge">
<title>EventsComponent&#45;&gt;AppModule</title>
<path fill="none" stroke="black" d="M1654,-122.22C1654,-142.37 1654,-172 1654,-172 1654,-172 1038.72,-172 1038.72,-172"/>
<polygon fill="black" stroke="black" points="1038.72,-168.5 1028.72,-172 1038.72,-175.5 1038.72,-168.5"/>
</g>
<!-- InternationalComponent -->
<g id="node4" class="node">
<title>InternationalComponent</title>
<polygon fill="#ffffb3" stroke="black" points="1576.36,-122 1423.64,-122 1423.64,-86 1576.36,-86 1576.36,-122"/>
<text text-anchor="middle" x="1500" y="-99.8" font-family="Times,serif" font-size="14.00">InternationalComponent</text>
</g>
<!-- InternationalComponent&#45;&gt;AppModule -->
<g id="edge4" class="edge">
<title>InternationalComponent&#45;&gt;AppModule</title>
<path fill="none" stroke="black" d="M1500,-122.22C1500,-140.83 1500,-167 1500,-167 1500,-167 1038.98,-167 1038.98,-167"/>
<polygon fill="black" stroke="black" points="1038.98,-163.5 1028.98,-167 1038.98,-170.5 1038.98,-163.5"/>
</g>
<!-- LoginComponent -->
<g id="node5" class="node">
<title>LoginComponent</title>
<polygon fill="#ffffb3" stroke="black" points="1405.28,-122 1290.72,-122 1290.72,-86 1405.28,-86 1405.28,-122"/>
<text text-anchor="middle" x="1348" y="-99.8" font-family="Times,serif" font-size="14.00">LoginComponent</text>
</g>
<!-- LoginComponent&#45;&gt;AppModule -->
<g id="edge5" class="edge">
<title>LoginComponent&#45;&gt;AppModule</title>
<path fill="none" stroke="black" d="M1348,-122.03C1348,-139.06 1348,-162 1348,-162 1348,-162 1038.76,-162 1038.76,-162"/>
<polygon fill="black" stroke="black" points="1038.76,-158.5 1028.76,-162 1038.76,-165.5 1038.76,-158.5"/>
</g>
<!-- NavbarComponent -->
<g id="node6" class="node">
<title>NavbarComponent</title>
<polygon fill="#ffffb3" stroke="black" points="1272.03,-122 1149.97,-122 1149.97,-86 1272.03,-86 1272.03,-122"/>
<text text-anchor="middle" x="1211" y="-99.8" font-family="Times,serif" font-size="14.00">NavbarComponent</text>
</g>
<!-- NavbarComponent&#45;&gt;AppModule -->
<g id="edge6" class="edge">
<title>NavbarComponent&#45;&gt;AppModule</title>
<path fill="none" stroke="black" d="M1211,-122.24C1211,-137.57 1211,-157 1211,-157 1211,-157 1038.87,-157 1038.87,-157"/>
<polygon fill="black" stroke="black" points="1038.87,-153.5 1028.87,-157 1038.87,-160.5 1038.87,-153.5"/>
</g>
<!-- NavigationComponent -->
<g id="node7" class="node">
<title>NavigationComponent</title>
<polygon fill="#ffffb3" stroke="black" points="1131.54,-122 988.46,-122 988.46,-86 1131.54,-86 1131.54,-122"/>
<text text-anchor="middle" x="1060" y="-99.8" font-family="Times,serif" font-size="14.00">NavigationComponent</text>
</g>
<!-- NavigationComponent&#45;&gt;AppModule -->
<g id="edge7" class="edge">
<title>NavigationComponent&#45;&gt;AppModule</title>
<path fill="none" stroke="black" d="M1008.53,-122.11C1008.53,-122.11 1008.53,-140.99 1008.53,-140.99"/>
<polygon fill="black" stroke="black" points="1005.03,-140.99 1008.53,-150.99 1012.03,-140.99 1005.03,-140.99"/>
</g>
<!-- NewsComponent -->
<g id="node8" class="node">
<title>NewsComponent</title>
<polygon fill="#ffffb3" stroke="black" points="970.7,-122 857.3,-122 857.3,-86 970.7,-86 970.7,-122"/>
<text text-anchor="middle" x="914" y="-99.8" font-family="Times,serif" font-size="14.00">NewsComponent</text>
</g>
<!-- NewsComponent&#45;&gt;AppModule -->
<g id="edge8" class="edge">
<title>NewsComponent&#45;&gt;AppModule</title>
<path fill="none" stroke="black" d="M957.89,-122.11C957.89,-122.11 957.89,-140.99 957.89,-140.99"/>
<polygon fill="black" stroke="black" points="954.39,-140.99 957.89,-150.99 961.39,-140.99 954.39,-140.99"/>
</g>
<!-- RoomsComponent -->
<g id="node9" class="node">
<title>RoomsComponent</title>
<polygon fill="#ffffb3" stroke="black" points="839.5,-122 718.5,-122 718.5,-86 839.5,-86 839.5,-122"/>
<text text-anchor="middle" x="779" y="-99.8" font-family="Times,serif" font-size="14.00">RoomsComponent</text>
</g>
<!-- RoomsComponent&#45;&gt;AppModule -->
<g id="edge9" class="edge">
<title>RoomsComponent&#45;&gt;AppModule</title>
<path fill="none" stroke="black" d="M779,-122.24C779,-137.57 779,-157 779,-157 779,-157 934.91,-157 934.91,-157"/>
<polygon fill="black" stroke="black" points="934.91,-160.5 944.91,-157 934.91,-153.5 934.91,-160.5"/>
</g>
<!-- SelectLanguageComponent -->
<g id="node10" class="node">
<title>SelectLanguageComponent</title>
<polygon fill="#ffffb3" stroke="black" points="700.24,-122 529.76,-122 529.76,-86 700.24,-86 700.24,-122"/>
<text text-anchor="middle" x="615" y="-99.8" font-family="Times,serif" font-size="14.00">SelectLanguageComponent</text>
</g>
<!-- SelectLanguageComponent&#45;&gt;AppModule -->
<g id="edge10" class="edge">
<title>SelectLanguageComponent&#45;&gt;AppModule</title>
<path fill="none" stroke="black" d="M615,-122.03C615,-139.06 615,-162 615,-162 615,-162 935.05,-162 935.05,-162"/>
<polygon fill="black" stroke="black" points="935.05,-165.5 945.05,-162 935.05,-158.5 935.05,-165.5"/>
</g>
<!-- StartComponent -->
<g id="node11" class="node">
<title>StartComponent</title>
<polygon fill="#ffffb3" stroke="black" points="511.77,-122 404.23,-122 404.23,-86 511.77,-86 511.77,-122"/>
<text text-anchor="middle" x="458" y="-99.8" font-family="Times,serif" font-size="14.00">StartComponent</text>
</g>
<!-- StartComponent&#45;&gt;AppModule -->
<g id="edge11" class="edge">
<title>StartComponent&#45;&gt;AppModule</title>
<path fill="none" stroke="black" d="M458,-122.22C458,-140.83 458,-167 458,-167 458,-167 935.05,-167 935.05,-167"/>
<polygon fill="black" stroke="black" points="935.05,-170.5 945.05,-167 935.05,-163.5 935.05,-170.5"/>
</g>
<!-- AppComponent  -->
<g id="node16" class="node">
<title>AppComponent </title>
<polygon fill="#80b1d3" stroke="black" points="1041.44,-252 932.56,-252 932.56,-216 1041.44,-216 1041.44,-252"/>
<text text-anchor="middle" x="987" y="-229.8" font-family="Times,serif" font-size="14.00">AppComponent </text>
</g>
<!-- AppModule&#45;&gt;AppComponent  -->
<g id="edge15" class="edge">
<title>AppModule&#45;&gt;AppComponent </title>
<path fill="none" stroke="black" stroke-dasharray="1,5" d="M987,-187.11C987,-187.11 987,-205.99 987,-205.99"/>
<polygon fill="black" stroke="black" points="983.5,-205.99 987,-215.99 990.5,-205.99 983.5,-205.99"/>
</g>
<!-- AppRoutingModule -->
<g id="node13" class="node">
<title>AppRoutingModule</title>
<polygon fill="#8dd3c7" stroke="black" points="380.27,-122 377.27,-126 356.27,-126 353.27,-122 251.73,-122 251.73,-86 380.27,-86 380.27,-122"/>
<text text-anchor="middle" x="316" y="-99.8" font-family="Times,serif" font-size="14.00">AppRoutingModule</text>
</g>
<!-- AppRoutingModule&#45;&gt;AppModule -->
<g id="edge12" class="edge">
<title>AppRoutingModule&#45;&gt;AppModule</title>
<path fill="none" stroke="black" d="M316,-122.22C316,-142.37 316,-172 316,-172 316,-172 935.28,-172 935.28,-172"/>
<polygon fill="black" stroke="black" points="935.28,-175.5 945.28,-172 935.28,-168.5 935.28,-175.5"/>
</g>
<!-- I18nModule -->
<g id="node14" class="node">
<title>I18nModule</title>
<polygon fill="#8dd3c7" stroke="black" points="233.71,-122 230.71,-126 209.71,-126 206.71,-122 148.29,-122 148.29,-86 233.71,-86 233.71,-122"/>
<text text-anchor="middle" x="191" y="-99.8" font-family="Times,serif" font-size="14.00">I18nModule</text>
</g>
<!-- I18nModule&#45;&gt;AppModule -->
<g id="edge13" class="edge">
<title>I18nModule&#45;&gt;AppModule</title>
<path fill="none" stroke="black" d="M191,-122.04C191,-143.66 191,-177 191,-177 191,-177 935.32,-177 935.32,-177"/>
<polygon fill="black" stroke="black" points="935.32,-180.5 945.32,-177 935.32,-173.5 935.32,-180.5"/>
</g>
<!-- MaterialModule -->
<g id="node15" class="node">
<title>MaterialModule</title>
<polygon fill="#8dd3c7" stroke="black" points="130.47,-122 127.47,-126 106.47,-126 103.47,-122 23.53,-122 23.53,-86 130.47,-86 130.47,-122"/>
<text text-anchor="middle" x="77" y="-99.8" font-family="Times,serif" font-size="14.00">MaterialModule</text>
</g>
<!-- MaterialModule&#45;&gt;AppModule -->
<g id="edge14" class="edge">
<title>MaterialModule&#45;&gt;AppModule</title>
<path fill="none" stroke="black" d="M77,-122.09C77,-145.13 77,-182 77,-182 77,-182 935.23,-182 935.23,-182"/>
<polygon fill="black" stroke="black" points="935.23,-185.5 945.23,-182 935.23,-178.5 935.23,-185.5"/>
</g>
</g>
</svg>
