<?xml version="1.0" encoding="UTF-8" standalone="no"?>
<!DOCTYPE svg PUBLIC "-//W3C//DTD SVG 1.1//EN"
 "http://www.w3.org/Graphics/SVG/1.1/DTD/svg11.dtd">
<!-- Generated by graphviz version 2.44.1 (20200629.0846)
 -->
<!-- Title: dependencies Pages: 1 -->
<svg width="3422pt" height="284pt"
 viewBox="0.00 0.00 3422.00 284.00" xmlns="http://www.w3.org/2000/svg" xmlns:xlink="http://www.w3.org/1999/xlink">
<g id="graph0" class="graph" transform="scale(1 1) rotate(0) translate(4 280)">
<title>dependencies</title>
<polygon fill="white" stroke="transparent" points="-4,4 -4,-280 3418,-280 3418,4 -4,4"/>
<text text-anchor="start" x="1686.01" y="-42.4" font-family="sans-serif" font-weight="bold" font-size="14.00">Legend</text>
<polygon fill="#ffffb3" stroke="transparent" points="1473,-10 1473,-30 1493,-30 1493,-10 1473,-10"/>
<text text-anchor="start" x="1496.63" y="-15.4" font-family="sans-serif" font-size="14.00"> &#160;Declarations</text>
<polygon fill="#8dd3c7" stroke="transparent" points="1586,-10 1586,-30 1606,-30 1606,-10 1586,-10"/>
<text text-anchor="start" x="1609.73" y="-15.4" font-family="sans-serif" font-size="14.00"> &#160;Module</text>
<polygon fill="#80b1d3" stroke="transparent" points="1672,-10 1672,-30 1692,-30 1692,-10 1672,-10"/>
<text text-anchor="start" x="1695.78" y="-15.4" font-family="sans-serif" font-size="14.00"> &#160;Bootstrap</text>
<polygon fill="#fdb462" stroke="transparent" points="1769,-10 1769,-30 1789,-30 1789,-10 1769,-10"/>
<text text-anchor="start" x="1792.67" y="-15.4" font-family="sans-serif" font-size="14.00"> &#160;Providers</text>
<polygon fill="#fb8072" stroke="transparent" points="1865,-10 1865,-30 1885,-30 1885,-10 1865,-10"/>
<text text-anchor="start" x="1888.73" y="-15.4" font-family="sans-serif" font-size="14.00"> &#160;Exports</text>
<g id="clust1" class="cluster">
<title>cluster_AppModule</title>
<polygon fill="none" stroke="black" stroke-dasharray="1,5" points="8,-70 8,-268 3406,-268 3406,-70 8,-70"/>
</g>
<g id="clust20" class="cluster">
<title>cluster_AppModule_providers</title>
<polygon fill="none" stroke="black" points="2398,-78 2398,-130 3398,-130 3398,-78 2398,-78"/>
</g>
<g id="clust19" class="cluster">
<title>cluster_AppModule_bootstrap</title>
<polygon fill="none" stroke="black" points="1569,-208 1569,-260 1693,-260 1693,-208 1569,-208"/>
</g>
<g id="clust2" class="cluster">
<title>cluster_AppModule_declarations</title>
<polygon fill="none" stroke="black" points="396,-78 396,-130 2390,-130 2390,-78 396,-78"/>
</g>
<g id="clust17" class="cluster">
<title>cluster_AppModule_imports</title>
<polygon fill="none" stroke="black" points="16,-78 16,-130 388,-130 388,-78 16,-78"/>
</g>
<!-- AdminComponent -->
<g id="node1" class="node">
<title>AdminComponent</title>
<polygon fill="#ffffb3" stroke="black" points="2382.22,-122 2261.78,-122 2261.78,-86 2382.22,-86 2382.22,-122"/>
<text text-anchor="middle" x="2322" y="-99.8" font-family="Times,serif" font-size="14.00">AdminComponent</text>
</g>
<!-- AppModule -->
<g id="node15" class="node">
<title>AppModule</title>
<polygon fill="#8dd3c7" stroke="black" points="1672.66,-187 1669.66,-191 1648.66,-191 1645.66,-187 1589.34,-187 1589.34,-151 1672.66,-151 1672.66,-187"/>
<text text-anchor="middle" x="1631" y="-164.8" font-family="Times,serif" font-size="14.00">AppModule</text>
</g>
<!-- AdminComponent&#45;&gt;AppModule -->
<g id="edge1" class="edge">
<title>AdminComponent&#45;&gt;AppModule</title>
<path fill="none" stroke="black" d="M2322,-122.27C2322,-140.56 2322,-166 2322,-166 2322,-166 1682.67,-166 1682.67,-166"/>
<polygon fill="black" stroke="black" points="1682.67,-162.5 1672.67,-166 1682.67,-169.5 1682.67,-162.5"/>
</g>
<!-- AppComponent -->
<g id="node2" class="node">
<title>AppComponent</title>
<polygon fill="#ffffb3" stroke="black" points="2243.94,-122 2138.06,-122 2138.06,-86 2243.94,-86 2243.94,-122"/>
<text text-anchor="middle" x="2191" y="-99.8" font-family="Times,serif" font-size="14.00">AppComponent</text>
</g>
<!-- AppComponent&#45;&gt;AppModule -->
<g id="edge2" class="edge">
<title>AppComponent&#45;&gt;AppModule</title>
<path fill="none" stroke="black" d="M2191,-122.02C2191,-139.37 2191,-163 2191,-163 2191,-163 1683.09,-163 1683.09,-163"/>
<polygon fill="black" stroke="black" points="1683.09,-159.5 1673.09,-163 1683.09,-166.5 1683.09,-159.5"/>
</g>
<!-- ConfigComponent -->
<g id="node3" class="node">
<title>ConfigComponent</title>
<polygon fill="#ffffb3" stroke="black" points="2120.22,-122 1999.78,-122 1999.78,-86 2120.22,-86 2120.22,-122"/>
<text text-anchor="middle" x="2060" y="-99.8" font-family="Times,serif" font-size="14.00">ConfigComponent</text>
</g>
<!-- ConfigComponent&#45;&gt;AppModule -->
<g id="edge3" class="edge">
<title>ConfigComponent&#45;&gt;AppModule</title>
<path fill="none" stroke="black" d="M2060,-122.03C2060,-138.4 2060,-160 2060,-160 2060,-160 1682.92,-160 1682.92,-160"/>
<polygon fill="black" stroke="black" points="1682.92,-156.5 1672.92,-160 1682.92,-163.5 1682.92,-156.5"/>
</g>
<!-- EventsComponent -->
<g id="node4" class="node">
<title>EventsComponent</title>
<polygon fill="#ffffb3" stroke="black" points="1981.94,-122 1862.06,-122 1862.06,-86 1981.94,-86 1981.94,-122"/>
<text text-anchor="middle" x="1922" y="-99.8" font-family="Times,serif" font-size="14.00">EventsComponent</text>
</g>
<!-- EventsComponent&#45;&gt;AppModule -->
<g id="edge4" class="edge">
<title>EventsComponent&#45;&gt;AppModule</title>
<path fill="none" stroke="black" d="M1922,-122.24C1922,-137.57 1922,-157 1922,-157 1922,-157 1682.69,-157 1682.69,-157"/>
<polygon fill="black" stroke="black" points="1682.69,-153.5 1672.69,-157 1682.69,-160.5 1682.69,-153.5"/>
</g>
<!-- IndoorComponent -->
<g id="node5" class="node">
<title>IndoorComponent</title>
<polygon fill="#ffffb3" stroke="black" points="1844.15,-122 1725.85,-122 1725.85,-86 1844.15,-86 1844.15,-122"/>
<text text-anchor="middle" x="1785" y="-99.8" font-family="Times,serif" font-size="14.00">IndoorComponent</text>
</g>
<!-- IndoorComponent&#45;&gt;AppModule -->
<g id="edge5" class="edge">
<title>IndoorComponent&#45;&gt;AppModule</title>
<path fill="none" stroke="black" d="M1785,-122.05C1785,-136.37 1785,-154 1785,-154 1785,-154 1682.67,-154 1682.67,-154"/>
<polygon fill="black" stroke="black" points="1682.67,-150.5 1672.67,-154 1682.67,-157.5 1682.67,-150.5"/>
</g>
<!-- InternationalComponent -->
<g id="node6" class="node">
<title>InternationalComponent</title>
<polygon fill="#ffffb3" stroke="black" points="1707.36,-122 1554.64,-122 1554.64,-86 1707.36,-86 1707.36,-122"/>
<text text-anchor="middle" x="1631" y="-99.8" font-family="Times,serif" font-size="14.00">InternationalComponent</text>
</g>
<!-- InternationalComponent&#45;&gt;AppModule -->
<g id="edge6" class="edge">
<title>InternationalComponent&#45;&gt;AppModule</title>
<path fill="none" stroke="black" d="M1631,-122.11C1631,-122.11 1631,-140.99 1631,-140.99"/>
<polygon fill="black" stroke="black" points="1627.5,-140.99 1631,-150.99 1634.5,-140.99 1627.5,-140.99"/>
</g>
<!-- LoginComponent -->
<g id="node7" class="node">
<title>LoginComponent</title>
<polygon fill="#ffffb3" stroke="black" points="1536.28,-122 1421.72,-122 1421.72,-86 1536.28,-86 1536.28,-122"/>
<text text-anchor="middle" x="1479" y="-99.8" font-family="Times,serif" font-size="14.00">LoginComponent</text>
</g>
<!-- LoginComponent&#45;&gt;AppModule -->
<g id="edge7" class="edge">
<title>LoginComponent&#45;&gt;AppModule</title>
<path fill="none" stroke="black" d="M1479,-122.05C1479,-136.37 1479,-154 1479,-154 1479,-154 1579.06,-154 1579.06,-154"/>
<polygon fill="black" stroke="black" points="1579.06,-157.5 1589.06,-154 1579.06,-150.5 1579.06,-157.5"/>
</g>
<!-- NavbarComponent -->
<g id="node8" class="node">
<title>NavbarComponent</title>
<polygon fill="#ffffb3" stroke="black" points="1403.03,-122 1280.97,-122 1280.97,-86 1403.03,-86 1403.03,-122"/>
<text text-anchor="middle" x="1342" y="-99.8" font-family="Times,serif" font-size="14.00">NavbarComponent</text>
</g>
<!-- NavbarComponent&#45;&gt;AppModule -->
<g id="edge8" class="edge">
<title>NavbarComponent&#45;&gt;AppModule</title>
<path fill="none" stroke="black" d="M1342,-122.24C1342,-137.57 1342,-157 1342,-157 1342,-157 1579.29,-157 1579.29,-157"/>
<polygon fill="black" stroke="black" points="1579.29,-160.5 1589.29,-157 1579.29,-153.5 1579.29,-160.5"/>
</g>
<!-- NewsComponent -->
<g id="node9" class="node">
<title>NewsComponent</title>
<polygon fill="#ffffb3" stroke="black" points="1262.7,-122 1149.3,-122 1149.3,-86 1262.7,-86 1262.7,-122"/>
<text text-anchor="middle" x="1206" y="-99.8" font-family="Times,serif" font-size="14.00">NewsComponent</text>
</g>
<!-- NewsComponent&#45;&gt;AppModule -->
<g id="edge9" class="edge">
<title>NewsComponent&#45;&gt;AppModule</title>
<path fill="none" stroke="black" d="M1206,-122.03C1206,-138.4 1206,-160 1206,-160 1206,-160 1579.09,-160 1579.09,-160"/>
<polygon fill="black" stroke="black" points="1579.09,-163.5 1589.09,-160 1579.09,-156.5 1579.09,-163.5"/>
</g>
<!-- OutdoorComponent -->
<g id="node10" class="node">
<title>OutdoorComponent</title>
<polygon fill="#ffffb3" stroke="black" points="1130.99,-122 1003.01,-122 1003.01,-86 1130.99,-86 1130.99,-122"/>
<text text-anchor="middle" x="1067" y="-99.8" font-family="Times,serif" font-size="14.00">OutdoorComponent</text>
</g>
<!-- OutdoorComponent&#45;&gt;AppModule -->
<g id="edge10" class="edge">
<title>OutdoorComponent&#45;&gt;AppModule</title>
<path fill="none" stroke="black" d="M1067,-122.02C1067,-139.37 1067,-163 1067,-163 1067,-163 1579.07,-163 1579.07,-163"/>
<polygon fill="black" stroke="black" points="1579.07,-166.5 1589.07,-163 1579.07,-159.5 1579.07,-166.5"/>
</g>
<!-- RegisterComponent -->
<g id="node11" class="node">
<title>RegisterComponent</title>
<polygon fill="#ffffb3" stroke="black" points="984.98,-122 857.02,-122 857.02,-86 984.98,-86 984.98,-122"/>
<text text-anchor="middle" x="921" y="-99.8" font-family="Times,serif" font-size="14.00">RegisterComponent</text>
</g>
<!-- RegisterComponent&#45;&gt;AppModule -->
<g id="edge11" class="edge">
<title>RegisterComponent&#45;&gt;AppModule</title>
<path fill="none" stroke="black" d="M921,-122.27C921,-140.56 921,-166 921,-166 921,-166 1579.24,-166 1579.24,-166"/>
<polygon fill="black" stroke="black" points="1579.24,-169.5 1589.24,-166 1579.24,-162.5 1579.24,-169.5"/>
</g>
<!-- RoomsComponent -->
<g id="node12" class="node">
<title>RoomsComponent</title>
<polygon fill="#ffffb3" stroke="black" points="839.5,-122 718.5,-122 718.5,-86 839.5,-86 839.5,-122"/>
<text text-anchor="middle" x="779" y="-99.8" font-family="Times,serif" font-size="14.00">RoomsComponent</text>
</g>
<!-- RoomsComponent&#45;&gt;AppModule -->
<g id="edge12" class="edge">
<title>RoomsComponent&#45;&gt;AppModule</title>
<path fill="none" stroke="black" d="M779,-122.11C779,-141.34 779,-169 779,-169 779,-169 1579.33,-169 1579.33,-169"/>
<polygon fill="black" stroke="black" points="1579.33,-172.5 1589.33,-169 1579.33,-165.5 1579.33,-172.5"/>
</g>
<!-- SelectLanguageComponent -->
<g id="node13" class="node">
<title>SelectLanguageComponent</title>
<polygon fill="#ffffb3" stroke="black" points="700.24,-122 529.76,-122 529.76,-86 700.24,-86 700.24,-122"/>
<text text-anchor="middle" x="615" y="-99.8" font-family="Times,serif" font-size="14.00">SelectLanguageComponent</text>
</g>
<!-- SelectLanguageComponent&#45;&gt;AppModule -->
<g id="edge13" class="edge">
<title>SelectLanguageComponent&#45;&gt;AppModule</title>
<path fill="none" stroke="black" d="M615,-122.22C615,-142.37 615,-172 615,-172 615,-172 1579.28,-172 1579.28,-172"/>
<polygon fill="black" stroke="black" points="1579.28,-175.5 1589.28,-172 1579.28,-168.5 1579.28,-175.5"/>
</g>
<!-- StartComponent -->
<g id="node14" class="node">
<title>StartComponent</title>
<polygon fill="#ffffb3" stroke="black" points="511.77,-122 404.23,-122 404.23,-86 511.77,-86 511.77,-122"/>
<text text-anchor="middle" x="458" y="-99.8" font-family="Times,serif" font-size="14.00">StartComponent</text>
</g>
<!-- StartComponent&#45;&gt;AppModule -->
<g id="edge14" class="edge">
<title>StartComponent&#45;&gt;AppModule</title>
<path fill="none" stroke="black" d="M458,-122.28C458,-143.32 458,-175 458,-175 458,-175 1579.25,-175 1579.25,-175"/>
<polygon fill="black" stroke="black" points="1579.25,-178.5 1589.25,-175 1579.25,-171.5 1579.25,-178.5"/>
</g>
<!-- AppComponent  -->
<g id="node19" class="node">
<title>AppComponent </title>
<polygon fill="#80b1d3" stroke="black" points="1685.44,-252 1576.56,-252 1576.56,-216 1685.44,-216 1685.44,-252"/>
<text text-anchor="middle" x="1631" y="-229.8" font-family="Times,serif" font-size="14.00">AppComponent </text>
</g>
<!-- AppModule&#45;&gt;AppComponent  -->
<g id="edge18" class="edge">
<title>AppModule&#45;&gt;AppComponent </title>
<path fill="none" stroke="black" stroke-dasharray="1,5" d="M1631,-187.11C1631,-187.11 1631,-205.99 1631,-205.99"/>
<polygon fill="black" stroke="black" points="1627.5,-205.99 1631,-215.99 1634.5,-205.99 1627.5,-205.99"/>
</g>
<!-- AppRoutingModule -->
<g id="node16" class="node">
<title>AppRoutingModule</title>
<polygon fill="#8dd3c7" stroke="black" points="380.27,-122 377.27,-126 356.27,-126 353.27,-122 251.73,-122 251.73,-86 380.27,-86 380.27,-122"/>
<text text-anchor="middle" x="316" y="-99.8" font-family="Times,serif" font-size="14.00">AppRoutingModule</text>
</g>
<!-- AppRoutingModule&#45;&gt;AppModule -->
<g id="edge15" class="edge">
<title>AppRoutingModule&#45;&gt;AppModule</title>
<path fill="none" stroke="black" d="M316,-122.29C316,-144.21 316,-178 316,-178 316,-178 1579.11,-178 1579.11,-178"/>
<polygon fill="black" stroke="black" points="1579.11,-181.5 1589.11,-178 1579.11,-174.5 1579.11,-181.5"/>
</g>
<!-- I18nModule -->
<g id="node17" class="node">
<title>I18nModule</title>
<polygon fill="#8dd3c7" stroke="black" points="233.71,-122 230.71,-126 209.71,-126 206.71,-122 148.29,-122 148.29,-86 233.71,-86 233.71,-122"/>
<text text-anchor="middle" x="191" y="-99.8" font-family="Times,serif" font-size="14.00">I18nModule</text>
</g>
<!-- I18nModule&#45;&gt;AppModule -->
<g id="edge16" class="edge">
<title>I18nModule&#45;&gt;AppModule</title>
<path fill="none" stroke="black" d="M191,-122.25C191,-145.02 191,-181 191,-181 191,-181 1579.07,-181 1579.07,-181"/>
<polygon fill="black" stroke="black" points="1579.07,-184.5 1589.07,-181 1579.07,-177.5 1579.07,-184.5"/>
</g>
<!-- MaterialModule -->
<g id="node18" class="node">
<title>MaterialModule</title>
<polygon fill="#8dd3c7" stroke="black" points="130.47,-122 127.47,-126 106.47,-126 103.47,-122 23.53,-122 23.53,-86 130.47,-86 130.47,-122"/>
<text text-anchor="middle" x="77" y="-99.8" font-family="Times,serif" font-size="14.00">MaterialModule</text>
</g>
<!-- MaterialModule&#45;&gt;AppModule -->
<g id="edge17" class="edge">
<title>MaterialModule&#45;&gt;AppModule</title>
<path fill="none" stroke="black" d="M77,-122.15C77,-145.76 77,-184 77,-184 77,-184 1579.03,-184 1579.03,-184"/>
<polygon fill="black" stroke="black" points="1579.03,-187.5 1589.03,-184 1579.03,-180.5 1579.03,-187.5"/>
</g>
<!-- AuthService -->
<g id="node20" class="node">
<title>AuthService</title>
<ellipse fill="#fdb462" stroke="black" cx="3331" cy="-104" rx="59.11" ry="18"/>
<text text-anchor="middle" x="3331" y="-99.8" font-family="Times,serif" font-size="14.00">AuthService</text>
</g>
<!-- AuthService&#45;&gt;AppModule -->
<g id="edge19" class="edge">
<title>AuthService&#45;&gt;AppModule</title>
<path fill="none" stroke="black" d="M3331,-122.15C3331,-145.76 3331,-184 3331,-184 3331,-184 1683.02,-184 1683.02,-184"/>
<polygon fill="black" stroke="black" points="1683.02,-180.5 1673.02,-184 1683.02,-187.5 1683.02,-180.5"/>
</g>
<!-- EventService -->
<g id="node21" class="node">
<title>EventService</title>
<ellipse fill="#fdb462" stroke="black" cx="3191" cy="-104" rx="62.54" ry="18"/>
<text text-anchor="middle" x="3191" y="-99.8" font-family="Times,serif" font-size="14.00">EventService</text>
</g>
<!-- EventService&#45;&gt;AppModule -->
<g id="edge20" class="edge">
<title>EventService&#45;&gt;AppModule</title>
<path fill="none" stroke="black" d="M3191,-122.25C3191,-145.02 3191,-181 3191,-181 3191,-181 1682.73,-181 1682.73,-181"/>
<polygon fill="black" stroke="black" points="1682.73,-177.5 1672.73,-181 1682.73,-184.5 1682.73,-177.5"/>
</g>
<!-- MarkerService -->
<g id="node22" class="node">
<title>MarkerService</title>
<ellipse fill="#fdb462" stroke="black" cx="3042" cy="-104" rx="68.32" ry="18"/>
<text text-anchor="middle" x="3042" y="-99.8" font-family="Times,serif" font-size="14.00">MarkerService</text>
</g>
<!-- MarkerService&#45;&gt;AppModule -->
<g id="edge21" class="edge">
<title>MarkerService&#45;&gt;AppModule</title>
<path fill="none" stroke="black" d="M3042,-122.29C3042,-144.21 3042,-178 3042,-178 3042,-178 1682.85,-178 1682.85,-178"/>
<polygon fill="black" stroke="black" points="1682.85,-174.5 1672.85,-178 1682.85,-181.5 1682.85,-174.5"/>
</g>
<!-- NavigationService -->
<g id="node23" class="node">
<title>NavigationService</title>
<ellipse fill="#fdb462" stroke="black" cx="2873" cy="-104" rx="82.8" ry="18"/>
<text text-anchor="middle" x="2873" y="-99.8" font-family="Times,serif" font-size="14.00">NavigationService</text>
</g>
<!-- NavigationService&#45;&gt;AppModule -->
<g id="edge22" class="edge">
<title>NavigationService&#45;&gt;AppModule</title>
<path fill="none" stroke="black" d="M2873,-122.28C2873,-143.32 2873,-175 2873,-175 2873,-175 1682.68,-175 1682.68,-175"/>
<polygon fill="black" stroke="black" points="1682.68,-171.5 1672.68,-175 1682.68,-178.5 1682.68,-171.5"/>
</g>
<!-- PopUpService -->
<g id="node24" class="node">
<title>PopUpService</title>
<ellipse fill="#fdb462" stroke="black" cx="2705" cy="-104" rx="66.63" ry="18"/>
<text text-anchor="middle" x="2705" y="-99.8" font-family="Times,serif" font-size="14.00">PopUpService</text>
</g>
<!-- PopUpService&#45;&gt;AppModule -->
<g id="edge23" class="edge">
<title>PopUpService&#45;&gt;AppModule</title>
<path fill="none" stroke="black" d="M2705,-122.22C2705,-142.37 2705,-172 2705,-172 2705,-172 1682.77,-172 1682.77,-172"/>
<polygon fill="black" stroke="black" points="1682.77,-168.5 1672.77,-172 1682.77,-175.5 1682.77,-168.5"/>
</g>
<!-- TokenInterceptorService -->
<g id="node25" class="node">
<title>TokenInterceptorService</title>
<ellipse fill="#fdb462" stroke="black" cx="2513" cy="-104" rx="107.04" ry="18"/>
<text text-anchor="middle" x="2513" y="-99.8" font-family="Times,serif" font-size="14.00">TokenInterceptorService</text>
</g>
<!-- TokenInterceptorService&#45;&gt;AppModule -->
<g id="edge24" class="edge">
<title>TokenInterceptorService&#45;&gt;AppModule</title>
<path fill="none" stroke="black" d="M2513,-122.11C2513,-141.34 2513,-169 2513,-169 2513,-169 1682.95,-169 1682.95,-169"/>
<polygon fill="black" stroke="black" points="1682.95,-165.5 1672.95,-169 1682.95,-172.5 1682.95,-165.5"/>
</g>
</g>
</svg>
