<?xml version="1.0" encoding="UTF-8" standalone="no"?>
<!DOCTYPE svg PUBLIC "-//W3C//DTD SVG 1.1//EN"
 "http://www.w3.org/Graphics/SVG/1.1/DTD/svg11.dtd">
<!-- Generated by graphviz version 2.44.1 (20200629.0846)
 -->
<!-- Title: dependencies Pages: 1 -->
<svg width="2555pt" height="284pt"
 viewBox="0.00 0.00 2555.00 284.00" xmlns="http://www.w3.org/2000/svg" xmlns:xlink="http://www.w3.org/1999/xlink">
<g id="graph0" class="graph" transform="scale(1 1) rotate(0) translate(4 280)">
<title>dependencies</title>
<polygon fill="white" stroke="transparent" points="-4,4 -4,-280 2551,-280 2551,4 -4,4"/>
<text text-anchor="start" x="1252.51" y="-42.4" font-family="sans-serif" font-weight="bold" font-size="14.00">Legend</text>
<polygon fill="#ffffb3" stroke="transparent" points="1039.5,-10 1039.5,-30 1059.5,-30 1059.5,-10 1039.5,-10"/>
<text text-anchor="start" x="1063.13" y="-15.4" font-family="sans-serif" font-size="14.00"> &#160;Declarations</text>
<polygon fill="#8dd3c7" stroke="transparent" points="1152.5,-10 1152.5,-30 1172.5,-30 1172.5,-10 1152.5,-10"/>
<text text-anchor="start" x="1176.23" y="-15.4" font-family="sans-serif" font-size="14.00"> &#160;Module</text>
<polygon fill="#80b1d3" stroke="transparent" points="1238.5,-10 1238.5,-30 1258.5,-30 1258.5,-10 1238.5,-10"/>
<text text-anchor="start" x="1262.28" y="-15.4" font-family="sans-serif" font-size="14.00"> &#160;Bootstrap</text>
<polygon fill="#fdb462" stroke="transparent" points="1335.5,-10 1335.5,-30 1355.5,-30 1355.5,-10 1335.5,-10"/>
<text text-anchor="start" x="1359.17" y="-15.4" font-family="sans-serif" font-size="14.00"> &#160;Providers</text>
<polygon fill="#fb8072" stroke="transparent" points="1431.5,-10 1431.5,-30 1451.5,-30 1451.5,-10 1431.5,-10"/>
<text text-anchor="start" x="1455.23" y="-15.4" font-family="sans-serif" font-size="14.00"> &#160;Exports</text>
<g id="clust1" class="cluster">
<title>cluster_AppModule</title>
<polygon fill="none" stroke="black" stroke-dasharray="1,5" points="8,-70 8,-268 2539,-268 2539,-70 8,-70"/>
</g>
<g id="clust14" class="cluster">
<title>cluster_AppModule_providers</title>
<polygon fill="none" stroke="black" points="1531,-78 1531,-130 2531,-130 2531,-78 1531,-78"/>
</g>
<g id="clust2" class="cluster">
<title>cluster_AppModule_declarations</title>
<polygon fill="none" stroke="black" points="396,-78 396,-130 1523,-130 1523,-78 396,-78"/>
</g>
<g id="clust11" class="cluster">
<title>cluster_AppModule_imports</title>
<polygon fill="none" stroke="black" points="16,-78 16,-130 388,-130 388,-78 16,-78"/>
</g>
<g id="clust13" class="cluster">
<title>cluster_AppModule_bootstrap</title>
<polygon fill="none" stroke="black" points="1132,-208 1132,-260 1256,-260 1256,-208 1132,-208"/>
</g>
<!-- AdminComponent -->
<g id="node1" class="node">
<title>AdminComponent</title>
<polygon fill="#ffffb3" stroke="black" points="1515.22,-122 1394.78,-122 1394.78,-86 1515.22,-86 1515.22,-122"/>
<text text-anchor="middle" x="1455" y="-99.8" font-family="Times,serif" font-size="14.00">AdminComponent</text>
</g>
<!-- AppModule -->
<g id="node9" class="node">
<title>AppModule</title>
<polygon fill="#8dd3c7" stroke="black" points="1235.66,-187 1232.66,-191 1211.66,-191 1208.66,-187 1152.34,-187 1152.34,-151 1235.66,-151 1235.66,-187"/>
<text text-anchor="middle" x="1194" y="-164.8" font-family="Times,serif" font-size="14.00">AppModule</text>
</g>
<!-- AdminComponent&#45;&gt;AppModule -->
<g id="edge1" class="edge">
<title>AdminComponent&#45;&gt;AppModule</title>
<path fill="none" stroke="black" d="M1455,-122.01C1455,-138.05 1455,-159 1455,-159 1455,-159 1245.93,-159 1245.93,-159"/>
<polygon fill="black" stroke="black" points="1245.93,-155.5 1235.93,-159 1245.93,-162.5 1245.93,-155.5"/>
</g>
<!-- AppComponent -->
<g id="node2" class="node">
<title>AppComponent</title>
<polygon fill="#ffffb3" stroke="black" points="1376.94,-122 1271.06,-122 1271.06,-86 1376.94,-86 1376.94,-122"/>
<text text-anchor="middle" x="1324" y="-99.8" font-family="Times,serif" font-size="14.00">AppComponent</text>
</g>
<!-- AppComponent&#45;&gt;AppModule -->
<g id="edge2" class="edge">
<title>AppComponent&#45;&gt;AppModule</title>
<path fill="none" stroke="black" d="M1324,-122.12C1324,-136.78 1324,-155 1324,-155 1324,-155 1245.85,-155 1245.85,-155"/>
<polygon fill="black" stroke="black" points="1245.85,-151.5 1235.85,-155 1245.85,-158.5 1245.85,-151.5"/>
</g>
<!-- EventsComponent -->
<g id="node3" class="node">
<title>EventsComponent</title>
<polygon fill="#ffffb3" stroke="black" points="1253.94,-122 1134.06,-122 1134.06,-86 1253.94,-86 1253.94,-122"/>
<text text-anchor="middle" x="1194" y="-99.8" font-family="Times,serif" font-size="14.00">EventsComponent</text>
</g>
<!-- EventsComponent&#45;&gt;AppModule -->
<g id="edge3" class="edge">
<title>EventsComponent&#45;&gt;AppModule</title>
<path fill="none" stroke="black" d="M1194,-122.11C1194,-122.11 1194,-140.99 1194,-140.99"/>
<polygon fill="black" stroke="black" points="1190.5,-140.99 1194,-150.99 1197.5,-140.99 1190.5,-140.99"/>
</g>
<!-- NewsComponent -->
<g id="node4" class="node">
<title>NewsComponent</title>
<polygon fill="#ffffb3" stroke="black" points="1116.7,-122 1003.3,-122 1003.3,-86 1116.7,-86 1116.7,-122"/>
<text text-anchor="middle" x="1060" y="-99.8" font-family="Times,serif" font-size="14.00">NewsComponent</text>
</g>
<!-- NewsComponent&#45;&gt;AppModule -->
<g id="edge4" class="edge">
<title>NewsComponent&#45;&gt;AppModule</title>
<path fill="none" stroke="black" d="M1060,-122.12C1060,-136.78 1060,-155 1060,-155 1060,-155 1142.34,-155 1142.34,-155"/>
<polygon fill="black" stroke="black" points="1142.34,-158.5 1152.34,-155 1142.34,-151.5 1142.34,-158.5"/>
</g>
<!-- RegisterComponent -->
<g id="node5" class="node">
<title>RegisterComponent</title>
<polygon fill="#ffffb3" stroke="black" points="984.98,-122 857.02,-122 857.02,-86 984.98,-86 984.98,-122"/>
<text text-anchor="middle" x="921" y="-99.8" font-family="Times,serif" font-size="14.00">RegisterComponent</text>
</g>
<!-- RegisterComponent&#45;&gt;AppModule -->
<g id="edge5" class="edge">
<title>RegisterComponent&#45;&gt;AppModule</title>
<path fill="none" stroke="black" d="M921,-122.01C921,-138.05 921,-159 921,-159 921,-159 1142.24,-159 1142.24,-159"/>
<polygon fill="black" stroke="black" points="1142.24,-162.5 1152.24,-159 1142.24,-155.5 1142.24,-162.5"/>
</g>
<!-- RoomsComponent -->
<g id="node6" class="node">
<title>RoomsComponent</title>
<polygon fill="#ffffb3" stroke="black" points="839.5,-122 718.5,-122 718.5,-86 839.5,-86 839.5,-122"/>
<text text-anchor="middle" x="779" y="-99.8" font-family="Times,serif" font-size="14.00">RoomsComponent</text>
</g>
<!-- RoomsComponent&#45;&gt;AppModule -->
<g id="edge6" class="edge">
<title>RoomsComponent&#45;&gt;AppModule</title>
<path fill="none" stroke="black" d="M779,-122.02C779,-139.37 779,-163 779,-163 779,-163 1142.31,-163 1142.31,-163"/>
<polygon fill="black" stroke="black" points="1142.31,-166.5 1152.31,-163 1142.31,-159.5 1142.31,-166.5"/>
</g>
<!-- SelectLanguageComponent -->
<g id="node7" class="node">
<title>SelectLanguageComponent</title>
<polygon fill="#ffffb3" stroke="black" points="700.24,-122 529.76,-122 529.76,-86 700.24,-86 700.24,-122"/>
<text text-anchor="middle" x="615" y="-99.8" font-family="Times,serif" font-size="14.00">SelectLanguageComponent</text>
</g>
<!-- SelectLanguageComponent&#45;&gt;AppModule -->
<g id="edge7" class="edge">
<title>SelectLanguageComponent&#45;&gt;AppModule</title>
<path fill="none" stroke="black" d="M615,-122.22C615,-140.83 615,-167 615,-167 615,-167 1141.89,-167 1141.89,-167"/>
<polygon fill="black" stroke="black" points="1141.89,-170.5 1151.89,-167 1141.89,-163.5 1141.89,-170.5"/>
</g>
<!-- StartComponent -->
<g id="node8" class="node">
<title>StartComponent</title>
<polygon fill="#ffffb3" stroke="black" points="511.77,-122 404.23,-122 404.23,-86 511.77,-86 511.77,-122"/>
<text text-anchor="middle" x="458" y="-99.8" font-family="Times,serif" font-size="14.00">StartComponent</text>
</g>
<!-- StartComponent&#45;&gt;AppModule -->
<g id="edge8" class="edge">
<title>StartComponent&#45;&gt;AppModule</title>
<path fill="none" stroke="black" d="M458,-122.31C458,-142.15 458,-171 458,-171 458,-171 1142.32,-171 1142.32,-171"/>
<polygon fill="black" stroke="black" points="1142.32,-174.5 1152.32,-171 1142.32,-167.5 1142.32,-174.5"/>
</g>
<!-- AppComponent  -->
<g id="node13" class="node">
<title>AppComponent </title>
<polygon fill="#80b1d3" stroke="black" points="1248.44,-252 1139.56,-252 1139.56,-216 1248.44,-216 1248.44,-252"/>
<text text-anchor="middle" x="1194" y="-229.8" font-family="Times,serif" font-size="14.00">AppComponent </text>
</g>
<!-- AppModule&#45;&gt;AppComponent  -->
<g id="edge12" class="edge">
<title>AppModule&#45;&gt;AppComponent </title>
<path fill="none" stroke="black" stroke-dasharray="1,5" d="M1194,-187.11C1194,-187.11 1194,-205.99 1194,-205.99"/>
<polygon fill="black" stroke="black" points="1190.5,-205.99 1194,-215.99 1197.5,-205.99 1190.5,-205.99"/>
</g>
<!-- AppRoutingModule -->
<g id="node10" class="node">
<title>AppRoutingModule</title>
<polygon fill="#8dd3c7" stroke="black" points="380.27,-122 377.27,-126 356.27,-126 353.27,-122 251.73,-122 251.73,-86 380.27,-86 380.27,-122"/>
<text text-anchor="middle" x="316" y="-99.8" font-family="Times,serif" font-size="14.00">AppRoutingModule</text>
</g>
<!-- AppRoutingModule&#45;&gt;AppModule -->
<g id="edge9" class="edge">
<title>AppRoutingModule&#45;&gt;AppModule</title>
<path fill="none" stroke="black" d="M316,-122.28C316,-143.32 316,-175 316,-175 316,-175 1142.24,-175 1142.24,-175"/>
<polygon fill="black" stroke="black" points="1142.24,-178.5 1152.24,-175 1142.24,-171.5 1142.24,-178.5"/>
</g>
<!-- I18nModule -->
<g id="node11" class="node">
<title>I18nModule</title>
<polygon fill="#8dd3c7" stroke="black" points="233.71,-122 230.71,-126 209.71,-126 206.71,-122 148.29,-122 148.29,-86 233.71,-86 233.71,-122"/>
<text text-anchor="middle" x="191" y="-99.8" font-family="Times,serif" font-size="14.00">I18nModule</text>
</g>
<!-- I18nModule&#45;&gt;AppModule -->
<g id="edge10" class="edge">
<title>I18nModule&#45;&gt;AppModule</title>
<path fill="none" stroke="black" d="M191,-122.16C191,-144.35 191,-179 191,-179 191,-179 1142.18,-179 1142.18,-179"/>
<polygon fill="black" stroke="black" points="1142.18,-182.5 1152.18,-179 1142.18,-175.5 1142.18,-182.5"/>
</g>
<!-- MaterialModule -->
<g id="node12" class="node">
<title>MaterialModule</title>
<polygon fill="#8dd3c7" stroke="black" points="130.47,-122 127.47,-126 106.47,-126 103.47,-122 23.53,-122 23.53,-86 130.47,-86 130.47,-122"/>
<text text-anchor="middle" x="77" y="-99.8" font-family="Times,serif" font-size="14.00">MaterialModule</text>
</g>
<!-- MaterialModule&#45;&gt;AppModule -->
<g id="edge11" class="edge">
<title>MaterialModule&#45;&gt;AppModule</title>
<path fill="none" stroke="black" d="M77,-122.32C77,-145.66 77,-183 77,-183 77,-183 1142.25,-183 1142.25,-183"/>
<polygon fill="black" stroke="black" points="1142.25,-186.5 1152.25,-183 1142.25,-179.5 1142.25,-186.5"/>
</g>
<!-- AuthService -->
<g id="node14" class="node">
<title>AuthService</title>
<ellipse fill="#fdb462" stroke="black" cx="2464" cy="-104" rx="59.11" ry="18"/>
<text text-anchor="middle" x="2464" y="-99.8" font-family="Times,serif" font-size="14.00">AuthService</text>
</g>
<!-- AuthService&#45;&gt;AppModule -->
<g id="edge13" class="edge">
<title>AuthService&#45;&gt;AppModule</title>
<path fill="none" stroke="black" d="M2464,-122.32C2464,-145.66 2464,-183 2464,-183 2464,-183 1245.89,-183 1245.89,-183"/>
<polygon fill="black" stroke="black" points="1245.89,-179.5 1235.89,-183 1245.89,-186.5 1245.89,-179.5"/>
</g>
<!-- EventService -->
<g id="node15" class="node">
<title>EventService</title>
<ellipse fill="#fdb462" stroke="black" cx="2324" cy="-104" rx="62.54" ry="18"/>
<text text-anchor="middle" x="2324" y="-99.8" font-family="Times,serif" font-size="14.00">EventService</text>
</g>
<!-- EventService&#45;&gt;AppModule -->
<g id="edge14" class="edge">
<title>EventService&#45;&gt;AppModule</title>
<path fill="none" stroke="black" d="M2324,-122.16C2324,-144.35 2324,-179 2324,-179 2324,-179 1245.9,-179 1245.9,-179"/>
<polygon fill="black" stroke="black" points="1245.9,-175.5 1235.9,-179 1245.9,-182.5 1245.9,-175.5"/>
</g>
<!-- MarkerService -->
<g id="node16" class="node">
<title>MarkerService</title>
<ellipse fill="#fdb462" stroke="black" cx="2175" cy="-104" rx="68.32" ry="18"/>
<text text-anchor="middle" x="2175" y="-99.8" font-family="Times,serif" font-size="14.00">MarkerService</text>
</g>
<!-- MarkerService&#45;&gt;AppModule -->
<g id="edge15" class="edge">
<title>MarkerService&#45;&gt;AppModule</title>
<path fill="none" stroke="black" d="M2175,-122.28C2175,-143.32 2175,-175 2175,-175 2175,-175 1245.84,-175 1245.84,-175"/>
<polygon fill="black" stroke="black" points="1245.84,-171.5 1235.84,-175 1245.84,-178.5 1245.84,-171.5"/>
</g>
<!-- NavigationService -->
<g id="node17" class="node">
<title>NavigationService</title>
<ellipse fill="#fdb462" stroke="black" cx="2006" cy="-104" rx="82.8" ry="18"/>
<text text-anchor="middle" x="2006" y="-99.8" font-family="Times,serif" font-size="14.00">NavigationService</text>
</g>
<!-- NavigationService&#45;&gt;AppModule -->
<g id="edge16" class="edge">
<title>NavigationService&#45;&gt;AppModule</title>
<path fill="none" stroke="black" d="M2006,-122.31C2006,-142.15 2006,-171 2006,-171 2006,-171 1245.66,-171 1245.66,-171"/>
<polygon fill="black" stroke="black" points="1245.66,-167.5 1235.66,-171 1245.66,-174.5 1245.66,-167.5"/>
</g>
<!-- PopUpService -->
<g id="node18" class="node">
<title>PopUpService</title>
<ellipse fill="#fdb462" stroke="black" cx="1838" cy="-104" rx="66.63" ry="18"/>
<text text-anchor="middle" x="1838" y="-99.8" font-family="Times,serif" font-size="14.00">PopUpService</text>
</g>
<!-- PopUpService&#45;&gt;AppModule -->
<g id="edge17" class="edge">
<title>PopUpService&#45;&gt;AppModule</title>
<path fill="none" stroke="black" d="M1838,-122.22C1838,-140.83 1838,-167 1838,-167 1838,-167 1245.76,-167 1245.76,-167"/>
<polygon fill="black" stroke="black" points="1245.76,-163.5 1235.76,-167 1245.76,-170.5 1245.76,-163.5"/>
</g>
<!-- TokenInterceptorService -->
<g id="node19" class="node">
<title>TokenInterceptorService</title>
<ellipse fill="#fdb462" stroke="black" cx="1646" cy="-104" rx="107.04" ry="18"/>
<text text-anchor="middle" x="1646" y="-99.8" font-family="Times,serif" font-size="14.00">TokenInterceptorService</text>
</g>
<!-- TokenInterceptorService&#45;&gt;AppModule -->
<g id="edge18" class="edge">
<title>TokenInterceptorService&#45;&gt;AppModule</title>
<path fill="none" stroke="black" d="M1646,-122.02C1646,-139.37 1646,-163 1646,-163 1646,-163 1245.71,-163 1245.71,-163"/>
<polygon fill="black" stroke="black" points="1245.71,-159.5 1235.71,-163 1245.71,-166.5 1245.71,-159.5"/>
</g>
</g>
</svg>
