<?xml version="1.0" encoding="UTF-8" standalone="no"?>
<!DOCTYPE svg PUBLIC "-//W3C//DTD SVG 1.1//EN"
 "http://www.w3.org/Graphics/SVG/1.1/DTD/svg11.dtd">
<!-- Generated by graphviz version 2.44.1 (20200629.0846)
 -->
<!-- Title: dependencies Pages: 1 -->
<svg width="3251pt" height="284pt"
 viewBox="0.00 0.00 3251.00 284.00" xmlns="http://www.w3.org/2000/svg" xmlns:xlink="http://www.w3.org/1999/xlink">
<g id="graph0" class="graph" transform="scale(1 1) rotate(0) translate(4 280)">
<title>dependencies</title>
<polygon fill="white" stroke="transparent" points="-4,4 -4,-280 3247,-280 3247,4 -4,4"/>
<text text-anchor="start" x="1600.51" y="-42.4" font-family="sans-serif" font-weight="bold" font-size="14.00">Legend</text>
<polygon fill="#ffffb3" stroke="transparent" points="1387.5,-10 1387.5,-30 1407.5,-30 1407.5,-10 1387.5,-10"/>
<text text-anchor="start" x="1411.13" y="-15.4" font-family="sans-serif" font-size="14.00"> &#160;Declarations</text>
<polygon fill="#8dd3c7" stroke="transparent" points="1500.5,-10 1500.5,-30 1520.5,-30 1520.5,-10 1500.5,-10"/>
<text text-anchor="start" x="1524.23" y="-15.4" font-family="sans-serif" font-size="14.00"> &#160;Module</text>
<polygon fill="#80b1d3" stroke="transparent" points="1586.5,-10 1586.5,-30 1606.5,-30 1606.5,-10 1586.5,-10"/>
<text text-anchor="start" x="1610.28" y="-15.4" font-family="sans-serif" font-size="14.00"> &#160;Bootstrap</text>
<polygon fill="#fdb462" stroke="transparent" points="1683.5,-10 1683.5,-30 1703.5,-30 1703.5,-10 1683.5,-10"/>
<text text-anchor="start" x="1707.17" y="-15.4" font-family="sans-serif" font-size="14.00"> &#160;Providers</text>
<polygon fill="#fb8072" stroke="transparent" points="1779.5,-10 1779.5,-30 1799.5,-30 1799.5,-10 1779.5,-10"/>
<text text-anchor="start" x="1803.23" y="-15.4" font-family="sans-serif" font-size="14.00"> &#160;Exports</text>
<g id="clust1" class="cluster">
<title>cluster_AppModule</title>
<polygon fill="none" stroke="black" stroke-dasharray="1,5" points="8,-70 8,-268 3235,-268 3235,-70 8,-70"/>
</g>
<g id="clust16" class="cluster">
<title>cluster_AppModule_imports</title>
<polygon fill="none" stroke="black" points="2855,-78 2855,-130 3227,-130 3227,-78 2855,-78"/>
</g>
<g id="clust2" class="cluster">
<title>cluster_AppModule_declarations</title>
<polygon fill="none" stroke="black" points="1024,-78 1024,-130 2847,-130 2847,-78 1024,-78"/>
</g>
<g id="clust19" class="cluster">
<title>cluster_AppModule_providers</title>
<polygon fill="none" stroke="black" points="16,-78 16,-130 1016,-130 1016,-78 16,-78"/>
</g>
<g id="clust18" class="cluster">
<title>cluster_AppModule_bootstrap</title>
<polygon fill="none" stroke="black" points="1702,-208 1702,-260 1826,-260 1826,-208 1702,-208"/>
</g>
<!-- AdminComponent -->
<g id="node1" class="node">
<title>AdminComponent</title>
<polygon fill="#ffffb3" stroke="black" points="2839.22,-122 2718.78,-122 2718.78,-86 2839.22,-86 2839.22,-122"/>
<text text-anchor="middle" x="2779" y="-99.8" font-family="Times,serif" font-size="14.00">AdminComponent</text>
</g>
<!-- AppModule -->
<g id="node14" class="node">
<title>AppModule</title>
<polygon fill="#8dd3c7" stroke="black" points="1805.66,-187 1802.66,-191 1781.66,-191 1778.66,-187 1722.34,-187 1722.34,-151 1805.66,-151 1805.66,-187"/>
<text text-anchor="middle" x="1764" y="-164.8" font-family="Times,serif" font-size="14.00">AppModule</text>
</g>
<!-- AdminComponent&#45;&gt;AppModule -->
<g id="edge1" class="edge">
<title>AdminComponent&#45;&gt;AppModule</title>
<path fill="none" stroke="black" d="M2779,-122.03C2779,-142.77 2779,-174 2779,-174 2779,-174 1815.68,-174 1815.68,-174"/>
<polygon fill="black" stroke="black" points="1815.68,-170.5 1805.68,-174 1815.68,-177.5 1815.68,-170.5"/>
</g>
<!-- AppComponent -->
<g id="node2" class="node">
<title>AppComponent</title>
<polygon fill="#ffffb3" stroke="black" points="2700.94,-122 2595.06,-122 2595.06,-86 2700.94,-86 2700.94,-122"/>
<text text-anchor="middle" x="2648" y="-99.8" font-family="Times,serif" font-size="14.00">AppComponent</text>
</g>
<!-- AppComponent&#45;&gt;AppModule -->
<g id="edge2" class="edge">
<title>AppComponent&#45;&gt;AppModule</title>
<path fill="none" stroke="black" d="M2648,-122.31C2648,-142.15 2648,-171 2648,-171 2648,-171 1815.75,-171 1815.75,-171"/>
<polygon fill="black" stroke="black" points="1815.75,-167.5 1805.75,-171 1815.75,-174.5 1815.75,-167.5"/>
</g>
<!-- ConfigComponent -->
<g id="node3" class="node">
<title>ConfigComponent</title>
<polygon fill="#ffffb3" stroke="black" points="2577.22,-122 2456.78,-122 2456.78,-86 2577.22,-86 2577.22,-122"/>
<text text-anchor="middle" x="2517" y="-99.8" font-family="Times,serif" font-size="14.00">ConfigComponent</text>
</g>
<!-- ConfigComponent&#45;&gt;AppModule -->
<g id="edge3" class="edge">
<title>ConfigComponent&#45;&gt;AppModule</title>
<path fill="none" stroke="black" d="M2517,-122.17C2517,-141.09 2517,-168 2517,-168 2517,-168 1815.83,-168 1815.83,-168"/>
<polygon fill="black" stroke="black" points="1815.83,-164.5 1805.83,-168 1815.83,-171.5 1815.83,-164.5"/>
</g>
<!-- EventsComponent -->
<g id="node4" class="node">
<title>EventsComponent</title>
<polygon fill="#ffffb3" stroke="black" points="2438.94,-122 2319.06,-122 2319.06,-86 2438.94,-86 2438.94,-122"/>
<text text-anchor="middle" x="2379" y="-99.8" font-family="Times,serif" font-size="14.00">EventsComponent</text>
</g>
<!-- EventsComponent&#45;&gt;AppModule -->
<g id="edge4" class="edge">
<title>EventsComponent&#45;&gt;AppModule</title>
<path fill="none" stroke="black" d="M2379,-122.3C2379,-140.27 2379,-165 2379,-165 2379,-165 1815.79,-165 1815.79,-165"/>
<polygon fill="black" stroke="black" points="1815.79,-161.5 1805.79,-165 1815.79,-168.5 1815.79,-161.5"/>
</g>
<!-- IndoorComponent -->
<g id="node5" class="node">
<title>IndoorComponent</title>
<polygon fill="#ffffb3" stroke="black" points="2301.15,-122 2182.85,-122 2182.85,-86 2301.15,-86 2301.15,-122"/>
<text text-anchor="middle" x="2242" y="-99.8" font-family="Times,serif" font-size="14.00">IndoorComponent</text>
</g>
<!-- IndoorComponent&#45;&gt;AppModule -->
<g id="edge5" class="edge">
<title>IndoorComponent&#45;&gt;AppModule</title>
<path fill="none" stroke="black" d="M2242,-122.04C2242,-138.73 2242,-161 2242,-161 2242,-161 1816,-161 1816,-161"/>
<polygon fill="black" stroke="black" points="1816,-157.5 1806,-161 1816,-164.5 1816,-157.5"/>
</g>
<!-- LoginComponent -->
<g id="node6" class="node">
<title>LoginComponent</title>
<polygon fill="#ffffb3" stroke="black" points="2164.28,-122 2049.72,-122 2049.72,-86 2164.28,-86 2164.28,-122"/>
<text text-anchor="middle" x="2107" y="-99.8" font-family="Times,serif" font-size="14.00">LoginComponent</text>
</g>
<!-- LoginComponent&#45;&gt;AppModule -->
<g id="edge6" class="edge">
<title>LoginComponent&#45;&gt;AppModule</title>
<path fill="none" stroke="black" d="M2107,-122.28C2107,-137.95 2107,-158 2107,-158 2107,-158 1815.72,-158 1815.72,-158"/>
<polygon fill="black" stroke="black" points="1815.72,-154.5 1805.72,-158 1815.72,-161.5 1815.72,-154.5"/>
</g>
<!-- NavbarComponent -->
<g id="node7" class="node">
<title>NavbarComponent</title>
<polygon fill="#ffffb3" stroke="black" points="2031.03,-122 1908.97,-122 1908.97,-86 2031.03,-86 2031.03,-122"/>
<text text-anchor="middle" x="1970" y="-99.8" font-family="Times,serif" font-size="14.00">NavbarComponent</text>
</g>
<!-- NavbarComponent&#45;&gt;AppModule -->
<g id="edge7" class="edge">
<title>NavbarComponent&#45;&gt;AppModule</title>
<path fill="none" stroke="black" d="M1970,-122.12C1970,-136.78 1970,-155 1970,-155 1970,-155 1815.69,-155 1815.69,-155"/>
<polygon fill="black" stroke="black" points="1815.69,-151.5 1805.69,-155 1815.69,-158.5 1815.69,-151.5"/>
</g>
<!-- NewsComponent -->
<g id="node8" class="node">
<title>NewsComponent</title>
<polygon fill="#ffffb3" stroke="black" points="1890.7,-122 1777.3,-122 1777.3,-86 1890.7,-86 1890.7,-122"/>
<text text-anchor="middle" x="1834" y="-99.8" font-family="Times,serif" font-size="14.00">NewsComponent</text>
</g>
<!-- NewsComponent&#45;&gt;AppModule -->
<g id="edge8" class="edge">
<title>NewsComponent&#45;&gt;AppModule</title>
<path fill="none" stroke="black" d="M1791.61,-122.11C1791.61,-122.11 1791.61,-140.99 1791.61,-140.99"/>
<polygon fill="black" stroke="black" points="1788.11,-140.99 1791.61,-150.99 1795.11,-140.99 1788.11,-140.99"/>
</g>
<!-- OutdoorComponent -->
<g id="node9" class="node">
<title>OutdoorComponent</title>
<polygon fill="#ffffb3" stroke="black" points="1758.99,-122 1631.01,-122 1631.01,-86 1758.99,-86 1758.99,-122"/>
<text text-anchor="middle" x="1695" y="-99.8" font-family="Times,serif" font-size="14.00">OutdoorComponent</text>
</g>
<!-- OutdoorComponent&#45;&gt;AppModule -->
<g id="edge9" class="edge">
<title>OutdoorComponent&#45;&gt;AppModule</title>
<path fill="none" stroke="black" d="M1740.58,-122.11C1740.58,-122.11 1740.58,-140.99 1740.58,-140.99"/>
<polygon fill="black" stroke="black" points="1737.08,-140.99 1740.58,-150.99 1744.08,-140.99 1737.08,-140.99"/>
</g>
<!-- RegisterComponent -->
<g id="node10" class="node">
<title>RegisterComponent</title>
<polygon fill="#ffffb3" stroke="black" points="1612.98,-122 1485.02,-122 1485.02,-86 1612.98,-86 1612.98,-122"/>
<text text-anchor="middle" x="1549" y="-99.8" font-family="Times,serif" font-size="14.00">RegisterComponent</text>
</g>
<!-- RegisterComponent&#45;&gt;AppModule -->
<g id="edge10" class="edge">
<title>RegisterComponent&#45;&gt;AppModule</title>
<path fill="none" stroke="black" d="M1549,-122.12C1549,-136.78 1549,-155 1549,-155 1549,-155 1712.29,-155 1712.29,-155"/>
<polygon fill="black" stroke="black" points="1712.29,-158.5 1722.29,-155 1712.29,-151.5 1712.29,-158.5"/>
</g>
<!-- RoomsComponent -->
<g id="node11" class="node">
<title>RoomsComponent</title>
<polygon fill="#ffffb3" stroke="black" points="1467.5,-122 1346.5,-122 1346.5,-86 1467.5,-86 1467.5,-122"/>
<text text-anchor="middle" x="1407" y="-99.8" font-family="Times,serif" font-size="14.00">RoomsComponent</text>
</g>
<!-- RoomsComponent&#45;&gt;AppModule -->
<g id="edge11" class="edge">
<title>RoomsComponent&#45;&gt;AppModule</title>
<path fill="none" stroke="black" d="M1407,-122.28C1407,-137.95 1407,-158 1407,-158 1407,-158 1712,-158 1712,-158"/>
<polygon fill="black" stroke="black" points="1712,-161.5 1722,-158 1712,-154.5 1712,-161.5"/>
</g>
<!-- SelectLanguageComponent -->
<g id="node12" class="node">
<title>SelectLanguageComponent</title>
<polygon fill="#ffffb3" stroke="black" points="1328.24,-122 1157.76,-122 1157.76,-86 1328.24,-86 1328.24,-122"/>
<text text-anchor="middle" x="1243" y="-99.8" font-family="Times,serif" font-size="14.00">SelectLanguageComponent</text>
</g>
<!-- SelectLanguageComponent&#45;&gt;AppModule -->
<g id="edge12" class="edge">
<title>SelectLanguageComponent&#45;&gt;AppModule</title>
<path fill="none" stroke="black" d="M1243,-122.04C1243,-138.73 1243,-161 1243,-161 1243,-161 1712.25,-161 1712.25,-161"/>
<polygon fill="black" stroke="black" points="1712.25,-164.5 1722.25,-161 1712.25,-157.5 1712.25,-164.5"/>
</g>
<!-- StartComponent -->
<g id="node13" class="node">
<title>StartComponent</title>
<polygon fill="#ffffb3" stroke="black" points="1139.77,-122 1032.23,-122 1032.23,-86 1139.77,-86 1139.77,-122"/>
<text text-anchor="middle" x="1086" y="-99.8" font-family="Times,serif" font-size="14.00">StartComponent</text>
</g>
<!-- StartComponent&#45;&gt;AppModule -->
<g id="edge13" class="edge">
<title>StartComponent&#45;&gt;AppModule</title>
<path fill="none" stroke="black" d="M1086,-122.3C1086,-140.27 1086,-165 1086,-165 1086,-165 1712.1,-165 1712.1,-165"/>
<polygon fill="black" stroke="black" points="1712.1,-168.5 1722.1,-165 1712.1,-161.5 1712.1,-168.5"/>
</g>
<!-- AppComponent  -->
<g id="node18" class="node">
<title>AppComponent </title>
<polygon fill="#80b1d3" stroke="black" points="1818.44,-252 1709.56,-252 1709.56,-216 1818.44,-216 1818.44,-252"/>
<text text-anchor="middle" x="1764" y="-229.8" font-family="Times,serif" font-size="14.00">AppComponent </text>
</g>
<!-- AppModule&#45;&gt;AppComponent  -->
<g id="edge17" class="edge">
<title>AppModule&#45;&gt;AppComponent </title>
<path fill="none" stroke="black" stroke-dasharray="1,5" d="M1764,-187.11C1764,-187.11 1764,-205.99 1764,-205.99"/>
<polygon fill="black" stroke="black" points="1760.5,-205.99 1764,-215.99 1767.5,-205.99 1760.5,-205.99"/>
</g>
<!-- AppRoutingModule -->
<g id="node15" class="node">
<title>AppRoutingModule</title>
<polygon fill="#8dd3c7" stroke="black" points="3219.27,-122 3216.27,-126 3195.27,-126 3192.27,-122 3090.73,-122 3090.73,-86 3219.27,-86 3219.27,-122"/>
<text text-anchor="middle" x="3155" y="-99.8" font-family="Times,serif" font-size="14.00">AppRoutingModule</text>
</g>
<!-- AppRoutingModule&#45;&gt;AppModule -->
<g id="edge14" class="edge">
<title>AppRoutingModule&#45;&gt;AppModule</title>
<path fill="none" stroke="black" d="M3155,-122.15C3155,-145.76 3155,-184 3155,-184 3155,-184 1816.01,-184 1816.01,-184"/>
<polygon fill="black" stroke="black" points="1816.01,-180.5 1806.01,-184 1816.01,-187.5 1816.01,-180.5"/>
</g>
<!-- I18nModule -->
<g id="node16" class="node">
<title>I18nModule</title>
<polygon fill="#8dd3c7" stroke="black" points="3072.71,-122 3069.71,-126 3048.71,-126 3045.71,-122 2987.29,-122 2987.29,-86 3072.71,-86 3072.71,-122"/>
<text text-anchor="middle" x="3030" y="-99.8" font-family="Times,serif" font-size="14.00">I18nModule</text>
</g>
<!-- I18nModule&#45;&gt;AppModule -->
<g id="edge15" class="edge">
<title>I18nModule&#45;&gt;AppModule</title>
<path fill="none" stroke="black" d="M3030,-122.25C3030,-145.02 3030,-181 3030,-181 3030,-181 1815.76,-181 1815.76,-181"/>
<polygon fill="black" stroke="black" points="1815.76,-177.5 1805.76,-181 1815.76,-184.5 1815.76,-177.5"/>
</g>
<!-- MaterialModule -->
<g id="node17" class="node">
<title>MaterialModule</title>
<polygon fill="#8dd3c7" stroke="black" points="2969.47,-122 2966.47,-126 2945.47,-126 2942.47,-122 2862.53,-122 2862.53,-86 2969.47,-86 2969.47,-122"/>
<text text-anchor="middle" x="2916" y="-99.8" font-family="Times,serif" font-size="14.00">MaterialModule</text>
</g>
<!-- MaterialModule&#45;&gt;AppModule -->
<g id="edge16" class="edge">
<title>MaterialModule&#45;&gt;AppModule</title>
<path fill="none" stroke="black" d="M2916,-122.29C2916,-144.21 2916,-178 2916,-178 2916,-178 1815.68,-178 1815.68,-178"/>
<polygon fill="black" stroke="black" points="1815.68,-174.5 1805.68,-178 1815.68,-181.5 1815.68,-174.5"/>
</g>
<!-- AuthService -->
<g id="node19" class="node">
<title>AuthService</title>
<ellipse fill="#fdb462" stroke="black" cx="949" cy="-104" rx="59.11" ry="18"/>
<text text-anchor="middle" x="949" y="-99.8" font-family="Times,serif" font-size="14.00">AuthService</text>
</g>
<!-- AuthService&#45;&gt;AppModule -->
<g id="edge18" class="edge">
<title>AuthService&#45;&gt;AppModule</title>
<path fill="none" stroke="black" d="M949,-122.17C949,-141.09 949,-168 949,-168 949,-168 1712.18,-168 1712.18,-168"/>
<polygon fill="black" stroke="black" points="1712.18,-171.5 1722.18,-168 1712.18,-164.5 1712.18,-171.5"/>
</g>
<!-- EventService -->
<g id="node20" class="node">
<title>EventService</title>
<ellipse fill="#fdb462" stroke="black" cx="809" cy="-104" rx="62.54" ry="18"/>
<text text-anchor="middle" x="809" y="-99.8" font-family="Times,serif" font-size="14.00">EventService</text>
</g>
<!-- EventService&#45;&gt;AppModule -->
<g id="edge19" class="edge">
<title>EventService&#45;&gt;AppModule</title>
<path fill="none" stroke="black" d="M809,-122.31C809,-142.15 809,-171 809,-171 809,-171 1712.04,-171 1712.04,-171"/>
<polygon fill="black" stroke="black" points="1712.04,-174.5 1722.04,-171 1712.04,-167.5 1712.04,-174.5"/>
</g>
<!-- MarkerService -->
<g id="node21" class="node">
<title>MarkerService</title>
<ellipse fill="#fdb462" stroke="black" cx="660" cy="-104" rx="68.32" ry="18"/>
<text text-anchor="middle" x="660" y="-99.8" font-family="Times,serif" font-size="14.00">MarkerService</text>
</g>
<!-- MarkerService&#45;&gt;AppModule -->
<g id="edge20" class="edge">
<title>MarkerService&#45;&gt;AppModule</title>
<path fill="none" stroke="black" d="M660,-122.03C660,-142.77 660,-174 660,-174 660,-174 1712.07,-174 1712.07,-174"/>
<polygon fill="black" stroke="black" points="1712.07,-177.5 1722.07,-174 1712.07,-170.5 1712.07,-177.5"/>
</g>
<!-- NavigationService -->
<g id="node22" class="node">
<title>NavigationService</title>
<ellipse fill="#fdb462" stroke="black" cx="491" cy="-104" rx="82.8" ry="18"/>
<text text-anchor="middle" x="491" y="-99.8" font-family="Times,serif" font-size="14.00">NavigationService</text>
</g>
<!-- NavigationService&#45;&gt;AppModule -->
<g id="edge21" class="edge">
<title>NavigationService&#45;&gt;AppModule</title>
<path fill="none" stroke="black" d="M491,-122.29C491,-144.21 491,-178 491,-178 491,-178 1712.01,-178 1712.01,-178"/>
<polygon fill="black" stroke="black" points="1712.01,-181.5 1722.01,-178 1712.01,-174.5 1712.01,-181.5"/>
</g>
<!-- PopUpService -->
<g id="node23" class="node">
<title>PopUpService</title>
<ellipse fill="#fdb462" stroke="black" cx="323" cy="-104" rx="66.63" ry="18"/>
<text text-anchor="middle" x="323" y="-99.8" font-family="Times,serif" font-size="14.00">PopUpService</text>
</g>
<!-- PopUpService&#45;&gt;AppModule -->
<g id="edge22" class="edge">
<title>PopUpService&#45;&gt;AppModule</title>
<path fill="none" stroke="black" d="M323,-122.25C323,-145.02 323,-181 323,-181 323,-181 1712.04,-181 1712.04,-181"/>
<polygon fill="black" stroke="black" points="1712.04,-184.5 1722.04,-181 1712.04,-177.5 1712.04,-184.5"/>
</g>
<!-- TokenInterceptorService -->
<g id="node24" class="node">
<title>TokenInterceptorService</title>
<ellipse fill="#fdb462" stroke="black" cx="131" cy="-104" rx="107.04" ry="18"/>
<text text-anchor="middle" x="131" y="-99.8" font-family="Times,serif" font-size="14.00">TokenInterceptorService</text>
</g>
<!-- TokenInterceptorService&#45;&gt;AppModule -->
<g id="edge23" class="edge">
<title>TokenInterceptorService&#45;&gt;AppModule</title>
<path fill="none" stroke="black" d="M131,-122.15C131,-145.76 131,-184 131,-184 131,-184 1711.99,-184 1711.99,-184"/>
<polygon fill="black" stroke="black" points="1711.99,-187.5 1721.99,-184 1711.99,-180.5 1711.99,-187.5"/>
</g>
</g>
</svg>
