<?xml version="1.0" encoding="UTF-8" standalone="no"?>
<!DOCTYPE svg PUBLIC "-//W3C//DTD SVG 1.1//EN"
 "http://www.w3.org/Graphics/SVG/1.1/DTD/svg11.dtd">
<!-- Generated by graphviz version 2.44.1 (20200629.0846)
 -->
<!-- Title: dependencies Pages: 1 -->
<svg width="2843pt" height="284pt"
 viewBox="0.00 0.00 2843.00 284.00" xmlns="http://www.w3.org/2000/svg" xmlns:xlink="http://www.w3.org/1999/xlink">
<g id="graph0" class="graph" transform="scale(1 1) rotate(0) translate(4 280)">
<title>dependencies</title>
<polygon fill="white" stroke="transparent" points="-4,4 -4,-280 2839,-280 2839,4 -4,4"/>
<text text-anchor="start" x="1396.51" y="-42.4" font-family="sans-serif" font-weight="bold" font-size="14.00">Legend</text>
<polygon fill="#ffffb3" stroke="transparent" points="1183.5,-10 1183.5,-30 1203.5,-30 1203.5,-10 1183.5,-10"/>
<text text-anchor="start" x="1207.13" y="-15.4" font-family="sans-serif" font-size="14.00"> &#160;Declarations</text>
<polygon fill="#8dd3c7" stroke="transparent" points="1296.5,-10 1296.5,-30 1316.5,-30 1316.5,-10 1296.5,-10"/>
<text text-anchor="start" x="1320.23" y="-15.4" font-family="sans-serif" font-size="14.00"> &#160;Module</text>
<polygon fill="#80b1d3" stroke="transparent" points="1382.5,-10 1382.5,-30 1402.5,-30 1402.5,-10 1382.5,-10"/>
<text text-anchor="start" x="1406.28" y="-15.4" font-family="sans-serif" font-size="14.00"> &#160;Bootstrap</text>
<polygon fill="#fdb462" stroke="transparent" points="1479.5,-10 1479.5,-30 1499.5,-30 1499.5,-10 1479.5,-10"/>
<text text-anchor="start" x="1503.17" y="-15.4" font-family="sans-serif" font-size="14.00"> &#160;Providers</text>
<polygon fill="#fb8072" stroke="transparent" points="1575.5,-10 1575.5,-30 1595.5,-30 1595.5,-10 1575.5,-10"/>
<text text-anchor="start" x="1599.23" y="-15.4" font-family="sans-serif" font-size="14.00"> &#160;Exports</text>
<g id="clust1" class="cluster">
<title>cluster_AppModule</title>
<polygon fill="none" stroke="black" stroke-dasharray="1,5" points="8,-70 8,-268 2827,-268 2827,-70 8,-70"/>
</g>
<g id="clust2" class="cluster">
<title>cluster_AppModule_declarations</title>
<polygon fill="none" stroke="black" points="1404,-78 1404,-130 2819,-130 2819,-78 1404,-78"/>
</g>
<g id="clust16" class="cluster">
<title>cluster_AppModule_providers</title>
<polygon fill="none" stroke="black" points="396,-78 396,-130 1396,-130 1396,-78 396,-78"/>
</g>
<g id="clust15" class="cluster">
<title>cluster_AppModule_bootstrap</title>
<polygon fill="none" stroke="black" points="1404,-208 1404,-260 1528,-260 1528,-208 1404,-208"/>
</g>
<g id="clust13" class="cluster">
<title>cluster_AppModule_imports</title>
<polygon fill="none" stroke="black" points="16,-78 16,-130 388,-130 388,-78 16,-78"/>
</g>
<!-- AppComponent -->
<g id="node1" class="node">
<title>AppComponent</title>
<polygon fill="#ffffb3" stroke="black" points="2810.94,-122 2705.06,-122 2705.06,-86 2810.94,-86 2810.94,-122"/>
<text text-anchor="middle" x="2758" y="-99.8" font-family="Times,serif" font-size="14.00">AppComponent</text>
</g>
<!-- AppModule -->
<g id="node11" class="node">
<title>AppModule</title>
<polygon fill="#8dd3c7" stroke="black" points="1507.66,-187 1504.66,-191 1483.66,-191 1480.66,-187 1424.34,-187 1424.34,-151 1507.66,-151 1507.66,-187"/>
<text text-anchor="middle" x="1466" y="-164.8" font-family="Times,serif" font-size="14.00">AppModule</text>
</g>
<!-- AppComponent&#45;&gt;AppModule -->
<g id="edge1" class="edge">
<title>AppComponent&#45;&gt;AppModule</title>
<path fill="none" stroke="black" d="M2758,-122.15C2758,-145.76 2758,-184 2758,-184 2758,-184 1517.89,-184 1517.89,-184"/>
<polygon fill="black" stroke="black" points="1517.89,-180.5 1507.89,-184 1517.89,-187.5 1517.89,-180.5"/>
</g>
<!-- ConfigComponent -->
<g id="node2" class="node">
<title>ConfigComponent</title>
<polygon fill="#ffffb3" stroke="black" points="2687.22,-122 2566.78,-122 2566.78,-86 2687.22,-86 2687.22,-122"/>
<text text-anchor="middle" x="2627" y="-99.8" font-family="Times,serif" font-size="14.00">ConfigComponent</text>
</g>
<!-- ConfigComponent&#45;&gt;AppModule -->
<g id="edge2" class="edge">
<title>ConfigComponent&#45;&gt;AppModule</title>
<path fill="none" stroke="black" d="M2627,-122.01C2627,-144.49 2627,-180 2627,-180 2627,-180 1517.66,-180 1517.66,-180"/>
<polygon fill="black" stroke="black" points="1517.66,-176.5 1507.66,-180 1517.66,-183.5 1517.66,-176.5"/>
</g>
<!-- IndoorComponent -->
<g id="node3" class="node">
<title>IndoorComponent</title>
<polygon fill="#ffffb3" stroke="black" points="2549.15,-122 2430.85,-122 2430.85,-86 2549.15,-86 2549.15,-122"/>
<text text-anchor="middle" x="2490" y="-99.8" font-family="Times,serif" font-size="14.00">IndoorComponent</text>
</g>
<!-- IndoorComponent&#45;&gt;AppModule -->
<g id="edge3" class="edge">
<title>IndoorComponent&#45;&gt;AppModule</title>
<path fill="none" stroke="black" d="M2490,-122.04C2490,-143.66 2490,-177 2490,-177 2490,-177 1517.73,-177 1517.73,-177"/>
<polygon fill="black" stroke="black" points="1517.73,-173.5 1507.73,-177 1517.73,-180.5 1517.73,-173.5"/>
</g>
<!-- LoginComponent -->
<g id="node4" class="node">
<title>LoginComponent</title>
<polygon fill="#ffffb3" stroke="black" points="2412.28,-122 2297.72,-122 2297.72,-86 2412.28,-86 2412.28,-122"/>
<text text-anchor="middle" x="2355" y="-99.8" font-family="Times,serif" font-size="14.00">LoginComponent</text>
</g>
<!-- LoginComponent&#45;&gt;AppModule -->
<g id="edge4" class="edge">
<title>LoginComponent&#45;&gt;AppModule</title>
<path fill="none" stroke="black" d="M2355,-122.13C2355,-142.57 2355,-173 2355,-173 2355,-173 1517.69,-173 1517.69,-173"/>
<polygon fill="black" stroke="black" points="1517.69,-169.5 1507.69,-173 1517.69,-176.5 1517.69,-169.5"/>
</g>
<!-- NavbarComponent -->
<g id="node5" class="node">
<title>NavbarComponent</title>
<polygon fill="#ffffb3" stroke="black" points="2279.03,-122 2156.97,-122 2156.97,-86 2279.03,-86 2279.03,-122"/>
<text text-anchor="middle" x="2218" y="-99.8" font-family="Times,serif" font-size="14.00">NavbarComponent</text>
</g>
<!-- NavbarComponent&#45;&gt;AppModule -->
<g id="edge5" class="edge">
<title>NavbarComponent&#45;&gt;AppModule</title>
<path fill="none" stroke="black" d="M2218,-122.11C2218,-141.34 2218,-169 2218,-169 2218,-169 1517.77,-169 1517.77,-169"/>
<polygon fill="black" stroke="black" points="1517.77,-165.5 1507.77,-169 1517.77,-172.5 1517.77,-165.5"/>
</g>
<!-- OutdoorComponent -->
<g id="node6" class="node">
<title>OutdoorComponent</title>
<polygon fill="#ffffb3" stroke="black" points="2138.99,-122 2011.01,-122 2011.01,-86 2138.99,-86 2138.99,-122"/>
<text text-anchor="middle" x="2075" y="-99.8" font-family="Times,serif" font-size="14.00">OutdoorComponent</text>
</g>
<!-- OutdoorComponent&#45;&gt;AppModule -->
<g id="edge6" class="edge">
<title>OutdoorComponent&#45;&gt;AppModule</title>
<path fill="none" stroke="black" d="M2075,-122.27C2075,-140.56 2075,-166 2075,-166 2075,-166 1517.86,-166 1517.86,-166"/>
<polygon fill="black" stroke="black" points="1517.86,-162.5 1507.86,-166 1517.86,-169.5 1517.86,-162.5"/>
</g>
<!-- RegisterComponent -->
<g id="node7" class="node">
<title>RegisterComponent</title>
<polygon fill="#ffffb3" stroke="black" points="1992.98,-122 1865.02,-122 1865.02,-86 1992.98,-86 1992.98,-122"/>
<text text-anchor="middle" x="1929" y="-99.8" font-family="Times,serif" font-size="14.00">RegisterComponent</text>
</g>
<!-- RegisterComponent&#45;&gt;AppModule -->
<g id="edge7" class="edge">
<title>RegisterComponent&#45;&gt;AppModule</title>
<path fill="none" stroke="black" d="M1929,-122.03C1929,-139.06 1929,-162 1929,-162 1929,-162 1517.9,-162 1517.9,-162"/>
<polygon fill="black" stroke="black" points="1517.9,-158.5 1507.9,-162 1517.9,-165.5 1517.9,-158.5"/>
</g>
<!-- RoomsComponent -->
<g id="node8" class="node">
<title>RoomsComponent</title>
<polygon fill="#ffffb3" stroke="black" points="1847.5,-122 1726.5,-122 1726.5,-86 1847.5,-86 1847.5,-122"/>
<text text-anchor="middle" x="1787" y="-99.8" font-family="Times,serif" font-size="14.00">RoomsComponent</text>
</g>
<!-- RoomsComponent&#45;&gt;AppModule -->
<g id="edge8" class="edge">
<title>RoomsComponent&#45;&gt;AppModule</title>
<path fill="none" stroke="black" d="M1787,-122.01C1787,-138.05 1787,-159 1787,-159 1787,-159 1517.97,-159 1517.97,-159"/>
<polygon fill="black" stroke="black" points="1517.97,-155.5 1507.97,-159 1517.97,-162.5 1517.97,-155.5"/>
</g>
<!-- SelectLanguageComponent -->
<g id="node9" class="node">
<title>SelectLanguageComponent</title>
<polygon fill="#ffffb3" stroke="black" points="1708.24,-122 1537.76,-122 1537.76,-86 1708.24,-86 1708.24,-122"/>
<text text-anchor="middle" x="1623" y="-99.8" font-family="Times,serif" font-size="14.00">SelectLanguageComponent</text>
</g>
<!-- SelectLanguageComponent&#45;&gt;AppModule -->
<g id="edge9" class="edge">
<title>SelectLanguageComponent&#45;&gt;AppModule</title>
<path fill="none" stroke="black" d="M1623,-122.12C1623,-136.78 1623,-155 1623,-155 1623,-155 1517.66,-155 1517.66,-155"/>
<polygon fill="black" stroke="black" points="1517.66,-151.5 1507.66,-155 1517.66,-158.5 1517.66,-151.5"/>
</g>
<!-- StartComponent -->
<g id="node10" class="node">
<title>StartComponent</title>
<polygon fill="#ffffb3" stroke="black" points="1519.77,-122 1412.23,-122 1412.23,-86 1519.77,-86 1519.77,-122"/>
<text text-anchor="middle" x="1466" y="-99.8" font-family="Times,serif" font-size="14.00">StartComponent</text>
</g>
<!-- StartComponent&#45;&gt;AppModule -->
<g id="edge10" class="edge">
<title>StartComponent&#45;&gt;AppModule</title>
<path fill="none" stroke="black" d="M1466,-122.11C1466,-122.11 1466,-140.99 1466,-140.99"/>
<polygon fill="black" stroke="black" points="1462.5,-140.99 1466,-150.99 1469.5,-140.99 1462.5,-140.99"/>
</g>
<!-- AppComponent  -->
<g id="node15" class="node">
<title>AppComponent </title>
<polygon fill="#80b1d3" stroke="black" points="1520.44,-252 1411.56,-252 1411.56,-216 1520.44,-216 1520.44,-252"/>
<text text-anchor="middle" x="1466" y="-229.8" font-family="Times,serif" font-size="14.00">AppComponent </text>
</g>
<!-- AppModule&#45;&gt;AppComponent  -->
<g id="edge14" class="edge">
<title>AppModule&#45;&gt;AppComponent </title>
<path fill="none" stroke="black" stroke-dasharray="1,5" d="M1466,-187.11C1466,-187.11 1466,-205.99 1466,-205.99"/>
<polygon fill="black" stroke="black" points="1462.5,-205.99 1466,-215.99 1469.5,-205.99 1462.5,-205.99"/>
</g>
<!-- AppRoutingModule -->
<g id="node12" class="node">
<title>AppRoutingModule</title>
<polygon fill="#8dd3c7" stroke="black" points="380.27,-122 377.27,-126 356.27,-126 353.27,-122 251.73,-122 251.73,-86 380.27,-86 380.27,-122"/>
<text text-anchor="middle" x="316" y="-99.8" font-family="Times,serif" font-size="14.00">AppRoutingModule</text>
</g>
<!-- AppRoutingModule&#45;&gt;AppModule -->
<g id="edge11" class="edge">
<title>AppRoutingModule&#45;&gt;AppModule</title>
<path fill="none" stroke="black" d="M316,-122.04C316,-143.66 316,-177 316,-177 316,-177 1414.05,-177 1414.05,-177"/>
<polygon fill="black" stroke="black" points="1414.05,-180.5 1424.05,-177 1414.05,-173.5 1414.05,-180.5"/>
</g>
<!-- I18nModule -->
<g id="node13" class="node">
<title>I18nModule</title>
<polygon fill="#8dd3c7" stroke="black" points="233.71,-122 230.71,-126 209.71,-126 206.71,-122 148.29,-122 148.29,-86 233.71,-86 233.71,-122"/>
<text text-anchor="middle" x="191" y="-99.8" font-family="Times,serif" font-size="14.00">I18nModule</text>
</g>
<!-- I18nModule&#45;&gt;AppModule -->
<g id="edge12" class="edge">
<title>I18nModule&#45;&gt;AppModule</title>
<path fill="none" stroke="black" d="M191,-122.01C191,-144.49 191,-180 191,-180 191,-180 1414.3,-180 1414.3,-180"/>
<polygon fill="black" stroke="black" points="1414.3,-183.5 1424.3,-180 1414.3,-176.5 1414.3,-183.5"/>
</g>
<!-- MaterialModule -->
<g id="node14" class="node">
<title>MaterialModule</title>
<polygon fill="#8dd3c7" stroke="black" points="130.47,-122 127.47,-126 106.47,-126 103.47,-122 23.53,-122 23.53,-86 130.47,-86 130.47,-122"/>
<text text-anchor="middle" x="77" y="-99.8" font-family="Times,serif" font-size="14.00">MaterialModule</text>
</g>
<!-- MaterialModule&#45;&gt;AppModule -->
<g id="edge13" class="edge">
<title>MaterialModule&#45;&gt;AppModule</title>
<path fill="none" stroke="black" d="M77,-122.15C77,-145.76 77,-184 77,-184 77,-184 1414.05,-184 1414.05,-184"/>
<polygon fill="black" stroke="black" points="1414.05,-187.5 1424.05,-184 1414.05,-180.5 1414.05,-187.5"/>
</g>
<!-- AuthService -->
<g id="node16" class="node">
<title>AuthService</title>
<ellipse fill="#fdb462" stroke="black" cx="1329" cy="-104" rx="59.11" ry="18"/>
<text text-anchor="middle" x="1329" y="-99.8" font-family="Times,serif" font-size="14.00">AuthService</text>
</g>
<!-- AuthService&#45;&gt;AppModule -->
<g id="edge15" class="edge">
<title>AuthService&#45;&gt;AppModule</title>
<path fill="none" stroke="black" d="M1329,-122.12C1329,-136.78 1329,-155 1329,-155 1329,-155 1414.15,-155 1414.15,-155"/>
<polygon fill="black" stroke="black" points="1414.15,-158.5 1424.15,-155 1414.15,-151.5 1414.15,-158.5"/>
</g>
<!-- EventService -->
<g id="node17" class="node">
<title>EventService</title>
<ellipse fill="#fdb462" stroke="black" cx="1189" cy="-104" rx="62.54" ry="18"/>
<text text-anchor="middle" x="1189" y="-99.8" font-family="Times,serif" font-size="14.00">EventService</text>
</g>
<!-- EventService&#45;&gt;AppModule -->
<g id="edge16" class="edge">
<title>EventService&#45;&gt;AppModule</title>
<path fill="none" stroke="black" d="M1189,-122.01C1189,-138.05 1189,-159 1189,-159 1189,-159 1414.23,-159 1414.23,-159"/>
<polygon fill="black" stroke="black" points="1414.23,-162.5 1424.23,-159 1414.23,-155.5 1414.23,-162.5"/>
</g>
<!-- MarkerService -->
<g id="node18" class="node">
<title>MarkerService</title>
<ellipse fill="#fdb462" stroke="black" cx="1040" cy="-104" rx="68.32" ry="18"/>
<text text-anchor="middle" x="1040" y="-99.8" font-family="Times,serif" font-size="14.00">MarkerService</text>
</g>
<!-- MarkerService&#45;&gt;AppModule -->
<g id="edge17" class="edge">
<title>MarkerService&#45;&gt;AppModule</title>
<path fill="none" stroke="black" d="M1040,-122.03C1040,-139.06 1040,-162 1040,-162 1040,-162 1413.99,-162 1413.99,-162"/>
<polygon fill="black" stroke="black" points="1413.99,-165.5 1423.99,-162 1413.99,-158.5 1413.99,-165.5"/>
</g>
<!-- NavigationService -->
<g id="node19" class="node">
<title>NavigationService</title>
<ellipse fill="#fdb462" stroke="black" cx="871" cy="-104" rx="82.8" ry="18"/>
<text text-anchor="middle" x="871" y="-99.8" font-family="Times,serif" font-size="14.00">NavigationService</text>
</g>
<!-- NavigationService&#45;&gt;AppModule -->
<g id="edge18" class="edge">
<title>NavigationService&#45;&gt;AppModule</title>
<path fill="none" stroke="black" d="M871,-122.27C871,-140.56 871,-166 871,-166 871,-166 1414.16,-166 1414.16,-166"/>
<polygon fill="black" stroke="black" points="1414.16,-169.5 1424.16,-166 1414.16,-162.5 1414.16,-169.5"/>
</g>
<!-- PopUpService -->
<g id="node20" class="node">
<title>PopUpService</title>
<ellipse fill="#fdb462" stroke="black" cx="703" cy="-104" rx="66.63" ry="18"/>
<text text-anchor="middle" x="703" y="-99.8" font-family="Times,serif" font-size="14.00">PopUpService</text>
</g>
<!-- PopUpService&#45;&gt;AppModule -->
<g id="edge19" class="edge">
<title>PopUpService&#45;&gt;AppModule</title>
<path fill="none" stroke="black" d="M703,-122.11C703,-141.34 703,-169 703,-169 703,-169 1414.16,-169 1414.16,-169"/>
<polygon fill="black" stroke="black" points="1414.16,-172.5 1424.16,-169 1414.16,-165.5 1414.16,-172.5"/>
</g>
<!-- TokenInterceptorService -->
<g id="node21" class="node">
<title>TokenInterceptorService</title>
<ellipse fill="#fdb462" stroke="black" cx="511" cy="-104" rx="107.04" ry="18"/>
<text text-anchor="middle" x="511" y="-99.8" font-family="Times,serif" font-size="14.00">TokenInterceptorService</text>
</g>
<!-- TokenInterceptorService&#45;&gt;AppModule -->
<g id="edge20" class="edge">
<title>TokenInterceptorService&#45;&gt;AppModule</title>
<path fill="none" stroke="black" d="M511,-122.13C511,-142.57 511,-173 511,-173 511,-173 1414.04,-173 1414.04,-173"/>
<polygon fill="black" stroke="black" points="1414.04,-176.5 1424.04,-173 1414.04,-169.5 1414.04,-176.5"/>
</g>
</g>
</svg>
