<?xml version="1.0" encoding="UTF-8" standalone="no"?>
<!DOCTYPE svg PUBLIC "-//W3C//DTD SVG 1.1//EN"
 "http://www.w3.org/Graphics/SVG/1.1/DTD/svg11.dtd">
<!-- Generated by graphviz version 2.44.1 (20200629.0846)
 -->
<!-- Title: dependencies Pages: 1 -->
<svg width="3251pt" height="284pt"
 viewBox="0.00 0.00 3251.00 284.00" xmlns="http://www.w3.org/2000/svg" xmlns:xlink="http://www.w3.org/1999/xlink">
<g id="graph0" class="graph" transform="scale(1 1) rotate(0) translate(4 280)">
<title>dependencies</title>
<polygon fill="white" stroke="transparent" points="-4,4 -4,-280 3247,-280 3247,4 -4,4"/>
<text text-anchor="start" x="1600.51" y="-42.4" font-family="sans-serif" font-weight="bold" font-size="14.00">Legend</text>
<polygon fill="#ffffb3" stroke="transparent" points="1387.5,-10 1387.5,-30 1407.5,-30 1407.5,-10 1387.5,-10"/>
<text text-anchor="start" x="1411.13" y="-15.4" font-family="sans-serif" font-size="14.00"> &#160;Declarations</text>
<polygon fill="#8dd3c7" stroke="transparent" points="1500.5,-10 1500.5,-30 1520.5,-30 1520.5,-10 1500.5,-10"/>
<text text-anchor="start" x="1524.23" y="-15.4" font-family="sans-serif" font-size="14.00"> &#160;Module</text>
<polygon fill="#80b1d3" stroke="transparent" points="1586.5,-10 1586.5,-30 1606.5,-30 1606.5,-10 1586.5,-10"/>
<text text-anchor="start" x="1610.28" y="-15.4" font-family="sans-serif" font-size="14.00"> &#160;Bootstrap</text>
<polygon fill="#fdb462" stroke="transparent" points="1683.5,-10 1683.5,-30 1703.5,-30 1703.5,-10 1683.5,-10"/>
<text text-anchor="start" x="1707.17" y="-15.4" font-family="sans-serif" font-size="14.00"> &#160;Providers</text>
<polygon fill="#fb8072" stroke="transparent" points="1779.5,-10 1779.5,-30 1799.5,-30 1799.5,-10 1779.5,-10"/>
<text text-anchor="start" x="1803.23" y="-15.4" font-family="sans-serif" font-size="14.00"> &#160;Exports</text>
<g id="clust1" class="cluster">
<title>cluster_AppModule</title>
<polygon fill="none" stroke="black" stroke-dasharray="1,5" points="8,-70 8,-268 3235,-268 3235,-70 8,-70"/>
</g>
<g id="clust19" class="cluster">
<title>cluster_AppModule_providers</title>
<polygon fill="none" stroke="black" points="2227,-78 2227,-130 3227,-130 3227,-78 2227,-78"/>
</g>
<g id="clust2" class="cluster">
<title>cluster_AppModule_declarations</title>
<polygon fill="none" stroke="black" points="396,-78 396,-130 2219,-130 2219,-78 396,-78"/>
</g>
<g id="clust16" class="cluster">
<title>cluster_AppModule_imports</title>
<polygon fill="none" stroke="black" points="16,-78 16,-130 388,-130 388,-78 16,-78"/>
</g>
<g id="clust18" class="cluster">
<title>cluster_AppModule_bootstrap</title>
<polygon fill="none" stroke="black" points="1484,-208 1484,-260 1608,-260 1608,-208 1484,-208"/>
</g>
<!-- AdminComponent -->
<g id="node1" class="node">
<title>AdminComponent</title>
<polygon fill="#ffffb3" stroke="black" points="2211.22,-122 2090.78,-122 2090.78,-86 2211.22,-86 2211.22,-122"/>
<text text-anchor="middle" x="2151" y="-99.8" font-family="Times,serif" font-size="14.00">AdminComponent</text>
</g>
<!-- AppModule -->
<g id="node14" class="node">
<title>AppModule</title>
<polygon fill="#8dd3c7" stroke="black" points="1587.66,-187 1584.66,-191 1563.66,-191 1560.66,-187 1504.34,-187 1504.34,-151 1587.66,-151 1587.66,-187"/>
<text text-anchor="middle" x="1546" y="-164.8" font-family="Times,serif" font-size="14.00">AppModule</text>
</g>
<!-- AdminComponent&#45;&gt;AppModule -->
<g id="edge1" class="edge">
<title>AdminComponent&#45;&gt;AppModule</title>
<path fill="none" stroke="black" d="M2151,-122.3C2151,-140.27 2151,-165 2151,-165 2151,-165 1598.06,-165 1598.06,-165"/>
<polygon fill="black" stroke="black" points="1598.06,-161.5 1588.06,-165 1598.06,-168.5 1598.06,-161.5"/>
</g>
<!-- AppComponent -->
<g id="node2" class="node">
<title>AppComponent</title>
<polygon fill="#ffffb3" stroke="black" points="2072.94,-122 1967.06,-122 1967.06,-86 2072.94,-86 2072.94,-122"/>
<text text-anchor="middle" x="2020" y="-99.8" font-family="Times,serif" font-size="14.00">AppComponent</text>
</g>
<!-- AppComponent&#45;&gt;AppModule -->
<g id="edge2" class="edge">
<title>AppComponent&#45;&gt;AppModule</title>
<path fill="none" stroke="black" d="M2020,-122.04C2020,-138.73 2020,-161 2020,-161 2020,-161 1598.06,-161 1598.06,-161"/>
<polygon fill="black" stroke="black" points="1598.06,-157.5 1588.06,-161 1598.06,-164.5 1598.06,-157.5"/>
</g>
<!-- ConfigComponent -->
<g id="node3" class="node">
<title>ConfigComponent</title>
<polygon fill="#ffffb3" stroke="black" points="1949.22,-122 1828.78,-122 1828.78,-86 1949.22,-86 1949.22,-122"/>
<text text-anchor="middle" x="1889" y="-99.8" font-family="Times,serif" font-size="14.00">ConfigComponent</text>
</g>
<!-- ConfigComponent&#45;&gt;AppModule -->
<g id="edge3" class="edge">
<title>ConfigComponent&#45;&gt;AppModule</title>
<path fill="none" stroke="black" d="M1889,-122.28C1889,-137.95 1889,-158 1889,-158 1889,-158 1597.72,-158 1597.72,-158"/>
<polygon fill="black" stroke="black" points="1597.72,-154.5 1587.72,-158 1597.72,-161.5 1597.72,-154.5"/>
</g>
<!-- EventsComponent -->
<g id="node4" class="node">
<title>EventsComponent</title>
<polygon fill="#ffffb3" stroke="black" points="1810.94,-122 1691.06,-122 1691.06,-86 1810.94,-86 1810.94,-122"/>
<text text-anchor="middle" x="1751" y="-99.8" font-family="Times,serif" font-size="14.00">EventsComponent</text>
</g>
<!-- EventsComponent&#45;&gt;AppModule -->
<g id="edge4" class="edge">
<title>EventsComponent&#45;&gt;AppModule</title>
<path fill="none" stroke="black" d="M1751,-122.12C1751,-136.78 1751,-155 1751,-155 1751,-155 1597.98,-155 1597.98,-155"/>
<polygon fill="black" stroke="black" points="1597.98,-151.5 1587.98,-155 1597.98,-158.5 1597.98,-151.5"/>
</g>
<!-- IndoorComponent -->
<g id="node5" class="node">
<title>IndoorComponent</title>
<polygon fill="#ffffb3" stroke="black" points="1673.15,-122 1554.85,-122 1554.85,-86 1673.15,-86 1673.15,-122"/>
<text text-anchor="middle" x="1614" y="-99.8" font-family="Times,serif" font-size="14.00">IndoorComponent</text>
</g>
<!-- IndoorComponent&#45;&gt;AppModule -->
<g id="edge5" class="edge">
<title>IndoorComponent&#45;&gt;AppModule</title>
<path fill="none" stroke="black" d="M1571.25,-122.11C1571.25,-122.11 1571.25,-140.99 1571.25,-140.99"/>
<polygon fill="black" stroke="black" points="1567.75,-140.99 1571.25,-150.99 1574.75,-140.99 1567.75,-140.99"/>
</g>
<!-- LoginComponent -->
<g id="node6" class="node">
<title>LoginComponent</title>
<polygon fill="#ffffb3" stroke="black" points="1536.28,-122 1421.72,-122 1421.72,-86 1536.28,-86 1536.28,-122"/>
<text text-anchor="middle" x="1479" y="-99.8" font-family="Times,serif" font-size="14.00">LoginComponent</text>
</g>
<!-- LoginComponent&#45;&gt;AppModule -->
<g id="edge6" class="edge">
<title>LoginComponent&#45;&gt;AppModule</title>
<path fill="none" stroke="black" d="M1520.28,-122.11C1520.28,-122.11 1520.28,-140.99 1520.28,-140.99"/>
<polygon fill="black" stroke="black" points="1516.78,-140.99 1520.28,-150.99 1523.78,-140.99 1516.78,-140.99"/>
</g>
<!-- NavbarComponent -->
<g id="node7" class="node">
<title>NavbarComponent</title>
<polygon fill="#ffffb3" stroke="black" points="1403.03,-122 1280.97,-122 1280.97,-86 1403.03,-86 1403.03,-122"/>
<text text-anchor="middle" x="1342" y="-99.8" font-family="Times,serif" font-size="14.00">NavbarComponent</text>
</g>
<!-- NavbarComponent&#45;&gt;AppModule -->
<g id="edge7" class="edge">
<title>NavbarComponent&#45;&gt;AppModule</title>
<path fill="none" stroke="black" d="M1342,-122.12C1342,-136.78 1342,-155 1342,-155 1342,-155 1494.23,-155 1494.23,-155"/>
<polygon fill="black" stroke="black" points="1494.23,-158.5 1504.23,-155 1494.23,-151.5 1494.23,-158.5"/>
</g>
<!-- NewsComponent -->
<g id="node8" class="node">
<title>NewsComponent</title>
<polygon fill="#ffffb3" stroke="black" points="1262.7,-122 1149.3,-122 1149.3,-86 1262.7,-86 1262.7,-122"/>
<text text-anchor="middle" x="1206" y="-99.8" font-family="Times,serif" font-size="14.00">NewsComponent</text>
</g>
<!-- NewsComponent&#45;&gt;AppModule -->
<g id="edge8" class="edge">
<title>NewsComponent&#45;&gt;AppModule</title>
<path fill="none" stroke="black" d="M1206,-122.28C1206,-137.95 1206,-158 1206,-158 1206,-158 1494.31,-158 1494.31,-158"/>
<polygon fill="black" stroke="black" points="1494.31,-161.5 1504.31,-158 1494.31,-154.5 1494.31,-161.5"/>
</g>
<!-- OutdoorComponent -->
<g id="node9" class="node">
<title>OutdoorComponent</title>
<polygon fill="#ffffb3" stroke="black" points="1130.99,-122 1003.01,-122 1003.01,-86 1130.99,-86 1130.99,-122"/>
<text text-anchor="middle" x="1067" y="-99.8" font-family="Times,serif" font-size="14.00">OutdoorComponent</text>
</g>
<!-- OutdoorComponent&#45;&gt;AppModule -->
<g id="edge9" class="edge">
<title>OutdoorComponent&#45;&gt;AppModule</title>
<path fill="none" stroke="black" d="M1067,-122.04C1067,-138.73 1067,-161 1067,-161 1067,-161 1494.33,-161 1494.33,-161"/>
<polygon fill="black" stroke="black" points="1494.33,-164.5 1504.33,-161 1494.33,-157.5 1494.33,-164.5"/>
</g>
<!-- RegisterComponent -->
<g id="node10" class="node">
<title>RegisterComponent</title>
<polygon fill="#ffffb3" stroke="black" points="984.98,-122 857.02,-122 857.02,-86 984.98,-86 984.98,-122"/>
<text text-anchor="middle" x="921" y="-99.8" font-family="Times,serif" font-size="14.00">RegisterComponent</text>
</g>
<!-- RegisterComponent&#45;&gt;AppModule -->
<g id="edge10" class="edge">
<title>RegisterComponent&#45;&gt;AppModule</title>
<path fill="none" stroke="black" d="M921,-122.3C921,-140.27 921,-165 921,-165 921,-165 1494.02,-165 1494.02,-165"/>
<polygon fill="black" stroke="black" points="1494.02,-168.5 1504.02,-165 1494.02,-161.5 1494.02,-168.5"/>
</g>
<!-- RoomsComponent -->
<g id="node11" class="node">
<title>RoomsComponent</title>
<polygon fill="#ffffb3" stroke="black" points="839.5,-122 718.5,-122 718.5,-86 839.5,-86 839.5,-122"/>
<text text-anchor="middle" x="779" y="-99.8" font-family="Times,serif" font-size="14.00">RoomsComponent</text>
</g>
<!-- RoomsComponent&#45;&gt;AppModule -->
<g id="edge11" class="edge">
<title>RoomsComponent&#45;&gt;AppModule</title>
<path fill="none" stroke="black" d="M779,-122.17C779,-141.09 779,-168 779,-168 779,-168 1494.22,-168 1494.22,-168"/>
<polygon fill="black" stroke="black" points="1494.22,-171.5 1504.22,-168 1494.22,-164.5 1494.22,-171.5"/>
</g>
<!-- SelectLanguageComponent -->
<g id="node12" class="node">
<title>SelectLanguageComponent</title>
<polygon fill="#ffffb3" stroke="black" points="700.24,-122 529.76,-122 529.76,-86 700.24,-86 700.24,-122"/>
<text text-anchor="middle" x="615" y="-99.8" font-family="Times,serif" font-size="14.00">SelectLanguageComponent</text>
</g>
<!-- SelectLanguageComponent&#45;&gt;AppModule -->
<g id="edge12" class="edge">
<title>SelectLanguageComponent&#45;&gt;AppModule</title>
<path fill="none" stroke="black" d="M615,-122.31C615,-142.15 615,-171 615,-171 615,-171 1494.19,-171 1494.19,-171"/>
<polygon fill="black" stroke="black" points="1494.19,-174.5 1504.19,-171 1494.19,-167.5 1494.19,-174.5"/>
</g>
<!-- StartComponent -->
<g id="node13" class="node">
<title>StartComponent</title>
<polygon fill="#ffffb3" stroke="black" points="511.77,-122 404.23,-122 404.23,-86 511.77,-86 511.77,-122"/>
<text text-anchor="middle" x="458" y="-99.8" font-family="Times,serif" font-size="14.00">StartComponent</text>
</g>
<!-- StartComponent&#45;&gt;AppModule -->
<g id="edge13" class="edge">
<title>StartComponent&#45;&gt;AppModule</title>
<path fill="none" stroke="black" d="M458,-122.03C458,-142.77 458,-174 458,-174 458,-174 1494.02,-174 1494.02,-174"/>
<polygon fill="black" stroke="black" points="1494.02,-177.5 1504.02,-174 1494.02,-170.5 1494.02,-177.5"/>
</g>
<!-- AppComponent  -->
<g id="node18" class="node">
<title>AppComponent </title>
<polygon fill="#80b1d3" stroke="black" points="1600.44,-252 1491.56,-252 1491.56,-216 1600.44,-216 1600.44,-252"/>
<text text-anchor="middle" x="1546" y="-229.8" font-family="Times,serif" font-size="14.00">AppComponent </text>
</g>
<!-- AppModule&#45;&gt;AppComponent  -->
<g id="edge17" class="edge">
<title>AppModule&#45;&gt;AppComponent </title>
<path fill="none" stroke="black" stroke-dasharray="1,5" d="M1546,-187.11C1546,-187.11 1546,-205.99 1546,-205.99"/>
<polygon fill="black" stroke="black" points="1542.5,-205.99 1546,-215.99 1549.5,-205.99 1542.5,-205.99"/>
</g>
<!-- AppRoutingModule -->
<g id="node15" class="node">
<title>AppRoutingModule</title>
<polygon fill="#8dd3c7" stroke="black" points="380.27,-122 377.27,-126 356.27,-126 353.27,-122 251.73,-122 251.73,-86 380.27,-86 380.27,-122"/>
<text text-anchor="middle" x="316" y="-99.8" font-family="Times,serif" font-size="14.00">AppRoutingModule</text>
</g>
<!-- AppRoutingModule&#45;&gt;AppModule -->
<g id="edge14" class="edge">
<title>AppRoutingModule&#45;&gt;AppModule</title>
<path fill="none" stroke="black" d="M316,-122.29C316,-144.21 316,-178 316,-178 316,-178 1494.02,-178 1494.02,-178"/>
<polygon fill="black" stroke="black" points="1494.02,-181.5 1504.02,-178 1494.02,-174.5 1494.02,-181.5"/>
</g>
<!-- I18nModule -->
<g id="node16" class="node">
<title>I18nModule</title>
<polygon fill="#8dd3c7" stroke="black" points="233.71,-122 230.71,-126 209.71,-126 206.71,-122 148.29,-122 148.29,-86 233.71,-86 233.71,-122"/>
<text text-anchor="middle" x="191" y="-99.8" font-family="Times,serif" font-size="14.00">I18nModule</text>
</g>
<!-- I18nModule&#45;&gt;AppModule -->
<g id="edge15" class="edge">
<title>I18nModule&#45;&gt;AppModule</title>
<path fill="none" stroke="black" d="M191,-122.25C191,-145.02 191,-181 191,-181 191,-181 1494.34,-181 1494.34,-181"/>
<polygon fill="black" stroke="black" points="1494.34,-184.5 1504.34,-181 1494.34,-177.5 1494.34,-184.5"/>
</g>
<!-- MaterialModule -->
<g id="node17" class="node">
<title>MaterialModule</title>
<polygon fill="#8dd3c7" stroke="black" points="130.47,-122 127.47,-126 106.47,-126 103.47,-122 23.53,-122 23.53,-86 130.47,-86 130.47,-122"/>
<text text-anchor="middle" x="77" y="-99.8" font-family="Times,serif" font-size="14.00">MaterialModule</text>
</g>
<!-- MaterialModule&#45;&gt;AppModule -->
<g id="edge16" class="edge">
<title>MaterialModule&#45;&gt;AppModule</title>
<path fill="none" stroke="black" d="M77,-122.15C77,-145.76 77,-184 77,-184 77,-184 1494.01,-184 1494.01,-184"/>
<polygon fill="black" stroke="black" points="1494.01,-187.5 1504.01,-184 1494.01,-180.5 1494.01,-187.5"/>
</g>
<!-- AuthService -->
<g id="node19" class="node">
<title>AuthService</title>
<ellipse fill="#fdb462" stroke="black" cx="3160" cy="-104" rx="59.11" ry="18"/>
<text text-anchor="middle" x="3160" y="-99.8" font-family="Times,serif" font-size="14.00">AuthService</text>
</g>
<!-- AuthService&#45;&gt;AppModule -->
<g id="edge18" class="edge">
<title>AuthService&#45;&gt;AppModule</title>
<path fill="none" stroke="black" d="M3160,-122.15C3160,-145.76 3160,-184 3160,-184 3160,-184 1597.93,-184 1597.93,-184"/>
<polygon fill="black" stroke="black" points="1597.93,-180.5 1587.93,-184 1597.93,-187.5 1597.93,-180.5"/>
</g>
<!-- EventService -->
<g id="node20" class="node">
<title>EventService</title>
<ellipse fill="#fdb462" stroke="black" cx="3020" cy="-104" rx="62.54" ry="18"/>
<text text-anchor="middle" x="3020" y="-99.8" font-family="Times,serif" font-size="14.00">EventService</text>
</g>
<!-- EventService&#45;&gt;AppModule -->
<g id="edge19" class="edge">
<title>EventService&#45;&gt;AppModule</title>
<path fill="none" stroke="black" d="M3020,-122.25C3020,-145.02 3020,-181 3020,-181 3020,-181 1597.74,-181 1597.74,-181"/>
<polygon fill="black" stroke="black" points="1597.74,-177.5 1587.74,-181 1597.74,-184.5 1597.74,-177.5"/>
</g>
<!-- MarkerService -->
<g id="node21" class="node">
<title>MarkerService</title>
<ellipse fill="#fdb462" stroke="black" cx="2871" cy="-104" rx="68.32" ry="18"/>
<text text-anchor="middle" x="2871" y="-99.8" font-family="Times,serif" font-size="14.00">MarkerService</text>
</g>
<!-- MarkerService&#45;&gt;AppModule -->
<g id="edge20" class="edge">
<title>MarkerService&#45;&gt;AppModule</title>
<path fill="none" stroke="black" d="M2871,-122.29C2871,-144.21 2871,-178 2871,-178 2871,-178 1597.84,-178 1597.84,-178"/>
<polygon fill="black" stroke="black" points="1597.84,-174.5 1587.84,-178 1597.84,-181.5 1597.84,-174.5"/>
</g>
<!-- NavigationService -->
<g id="node22" class="node">
<title>NavigationService</title>
<ellipse fill="#fdb462" stroke="black" cx="2702" cy="-104" rx="82.8" ry="18"/>
<text text-anchor="middle" x="2702" y="-99.8" font-family="Times,serif" font-size="14.00">NavigationService</text>
</g>
<!-- NavigationService&#45;&gt;AppModule -->
<g id="edge21" class="edge">
<title>NavigationService&#45;&gt;AppModule</title>
<path fill="none" stroke="black" d="M2702,-122.03C2702,-142.77 2702,-174 2702,-174 2702,-174 1597.83,-174 1597.83,-174"/>
<polygon fill="black" stroke="black" points="1597.83,-170.5 1587.83,-174 1597.83,-177.5 1597.83,-170.5"/>
</g>
<!-- PopUpService -->
<g id="node23" class="node">
<title>PopUpService</title>
<ellipse fill="#fdb462" stroke="black" cx="2534" cy="-104" rx="66.63" ry="18"/>
<text text-anchor="middle" x="2534" y="-99.8" font-family="Times,serif" font-size="14.00">PopUpService</text>
</g>
<!-- PopUpService&#45;&gt;AppModule -->
<g id="edge22" class="edge">
<title>PopUpService&#45;&gt;AppModule</title>
<path fill="none" stroke="black" d="M2534,-122.31C2534,-142.15 2534,-171 2534,-171 2534,-171 1597.82,-171 1597.82,-171"/>
<polygon fill="black" stroke="black" points="1597.82,-167.5 1587.82,-171 1597.82,-174.5 1597.82,-167.5"/>
</g>
<!-- TokenInterceptorService -->
<g id="node24" class="node">
<title>TokenInterceptorService</title>
<ellipse fill="#fdb462" stroke="black" cx="2342" cy="-104" rx="107.04" ry="18"/>
<text text-anchor="middle" x="2342" y="-99.8" font-family="Times,serif" font-size="14.00">TokenInterceptorService</text>
</g>
<!-- TokenInterceptorService&#45;&gt;AppModule -->
<g id="edge23" class="edge">
<title>TokenInterceptorService&#45;&gt;AppModule</title>
<path fill="none" stroke="black" d="M2342,-122.17C2342,-141.09 2342,-168 2342,-168 2342,-168 1597.68,-168 1597.68,-168"/>
<polygon fill="black" stroke="black" points="1597.68,-164.5 1587.68,-168 1597.68,-171.5 1597.68,-164.5"/>
</g>
</g>
</svg>
