<?xml version="1.0" encoding="UTF-8" standalone="no"?>
<!DOCTYPE svg PUBLIC "-//W3C//DTD SVG 1.1//EN"
 "http://www.w3.org/Graphics/SVG/1.1/DTD/svg11.dtd">
<!-- Generated by graphviz version 2.44.1 (20200629.0846)
 -->
<!-- Title: dependencies Pages: 1 -->
<svg width="2671pt" height="284pt"
 viewBox="0.00 0.00 2671.00 284.00" xmlns="http://www.w3.org/2000/svg" xmlns:xlink="http://www.w3.org/1999/xlink">
<g id="graph0" class="graph" transform="scale(1 1) rotate(0) translate(4 280)">
<title>dependencies</title>
<polygon fill="white" stroke="transparent" points="-4,4 -4,-280 2667,-280 2667,4 -4,4"/>
<text text-anchor="start" x="1310.51" y="-42.4" font-family="sans-serif" font-weight="bold" font-size="14.00">Legend</text>
<polygon fill="#ffffb3" stroke="transparent" points="1097.5,-10 1097.5,-30 1117.5,-30 1117.5,-10 1097.5,-10"/>
<text text-anchor="start" x="1121.13" y="-15.4" font-family="sans-serif" font-size="14.00"> &#160;Declarations</text>
<polygon fill="#8dd3c7" stroke="transparent" points="1210.5,-10 1210.5,-30 1230.5,-30 1230.5,-10 1210.5,-10"/>
<text text-anchor="start" x="1234.23" y="-15.4" font-family="sans-serif" font-size="14.00"> &#160;Module</text>
<polygon fill="#80b1d3" stroke="transparent" points="1296.5,-10 1296.5,-30 1316.5,-30 1316.5,-10 1296.5,-10"/>
<text text-anchor="start" x="1320.28" y="-15.4" font-family="sans-serif" font-size="14.00"> &#160;Bootstrap</text>
<polygon fill="#fdb462" stroke="transparent" points="1393.5,-10 1393.5,-30 1413.5,-30 1413.5,-10 1393.5,-10"/>
<text text-anchor="start" x="1417.17" y="-15.4" font-family="sans-serif" font-size="14.00"> &#160;Providers</text>
<polygon fill="#fb8072" stroke="transparent" points="1489.5,-10 1489.5,-30 1509.5,-30 1509.5,-10 1489.5,-10"/>
<text text-anchor="start" x="1513.23" y="-15.4" font-family="sans-serif" font-size="14.00"> &#160;Exports</text>
<g id="clust1" class="cluster">
<title>cluster_AppModule</title>
<polygon fill="none" stroke="black" stroke-dasharray="1,5" points="8,-70 8,-268 2655,-268 2655,-70 8,-70"/>
</g>
<g id="clust17" class="cluster">
<title>cluster_AppModule_bootstrap</title>
<polygon fill="none" stroke="black" points="1219,-208 1219,-260 1343,-260 1343,-208 1219,-208"/>
</g>
<g id="clust18" class="cluster">
<title>cluster_AppModule_providers</title>
<polygon fill="none" stroke="black" points="2137,-78 2137,-130 2647,-130 2647,-78 2137,-78"/>
</g>
<g id="clust2" class="cluster">
<title>cluster_AppModule_declarations</title>
<polygon fill="none" stroke="black" points="396,-78 396,-130 2129,-130 2129,-78 396,-78"/>
</g>
<g id="clust15" class="cluster">
<title>cluster_AppModule_imports</title>
<polygon fill="none" stroke="black" points="16,-78 16,-130 388,-130 388,-78 16,-78"/>
</g>
<!-- AdminComponent -->
<g id="node1" class="node">
<title>AdminComponent</title>
<polygon fill="#ffffb3" stroke="black" points="2121.22,-122 2000.78,-122 2000.78,-86 2121.22,-86 2121.22,-122"/>
<text text-anchor="middle" x="2061" y="-99.8" font-family="Times,serif" font-size="14.00">AdminComponent</text>
</g>
<!-- AppModule -->
<g id="node13" class="node">
<title>AppModule</title>
<polygon fill="#8dd3c7" stroke="black" points="1322.66,-187 1319.66,-191 1298.66,-191 1295.66,-187 1239.34,-187 1239.34,-151 1322.66,-151 1322.66,-187"/>
<text text-anchor="middle" x="1281" y="-164.8" font-family="Times,serif" font-size="14.00">AppModule</text>
</g>
<!-- AdminComponent&#45;&gt;AppModule -->
<g id="edge1" class="edge">
<title>AdminComponent&#45;&gt;AppModule</title>
<path fill="none" stroke="black" d="M2061,-122.31C2061,-142.15 2061,-171 2061,-171 2061,-171 1332.66,-171 1332.66,-171"/>
<polygon fill="black" stroke="black" points="1332.66,-167.5 1322.66,-171 1332.66,-174.5 1332.66,-167.5"/>
</g>
<!-- AppComponent -->
<g id="node2" class="node">
<title>AppComponent</title>
<polygon fill="#ffffb3" stroke="black" points="1982.94,-122 1877.06,-122 1877.06,-86 1982.94,-86 1982.94,-122"/>
<text text-anchor="middle" x="1930" y="-99.8" font-family="Times,serif" font-size="14.00">AppComponent</text>
</g>
<!-- AppComponent&#45;&gt;AppModule -->
<g id="edge2" class="edge">
<title>AppComponent&#45;&gt;AppModule</title>
<path fill="none" stroke="black" d="M1930,-122.22C1930,-140.83 1930,-167 1930,-167 1930,-167 1333.08,-167 1333.08,-167"/>
<polygon fill="black" stroke="black" points="1333.08,-163.5 1323.08,-167 1333.08,-170.5 1333.08,-163.5"/>
</g>
<!-- EventsComponent -->
<g id="node3" class="node">
<title>EventsComponent</title>
<polygon fill="#ffffb3" stroke="black" points="1859.94,-122 1740.06,-122 1740.06,-86 1859.94,-86 1859.94,-122"/>
<text text-anchor="middle" x="1800" y="-99.8" font-family="Times,serif" font-size="14.00">EventsComponent</text>
</g>
<!-- EventsComponent&#45;&gt;AppModule -->
<g id="edge3" class="edge">
<title>EventsComponent&#45;&gt;AppModule</title>
<path fill="none" stroke="black" d="M1800,-122.02C1800,-139.37 1800,-163 1800,-163 1800,-163 1333.03,-163 1333.03,-163"/>
<polygon fill="black" stroke="black" points="1333.03,-159.5 1323.03,-163 1333.03,-166.5 1333.03,-159.5"/>
</g>
<!-- InternationalComponent -->
<g id="node4" class="node">
<title>InternationalComponent</title>
<polygon fill="#ffffb3" stroke="black" points="1722.36,-122 1569.64,-122 1569.64,-86 1722.36,-86 1722.36,-122"/>
<text text-anchor="middle" x="1646" y="-99.8" font-family="Times,serif" font-size="14.00">InternationalComponent</text>
</g>
<!-- InternationalComponent&#45;&gt;AppModule -->
<g id="edge4" class="edge">
<title>InternationalComponent&#45;&gt;AppModule</title>
<path fill="none" stroke="black" d="M1646,-122.01C1646,-138.05 1646,-159 1646,-159 1646,-159 1332.87,-159 1332.87,-159"/>
<polygon fill="black" stroke="black" points="1332.87,-155.5 1322.87,-159 1332.87,-162.5 1332.87,-155.5"/>
</g>
<!-- LoginComponent -->
<g id="node5" class="node">
<title>LoginComponent</title>
<polygon fill="#ffffb3" stroke="black" points="1551.28,-122 1436.72,-122 1436.72,-86 1551.28,-86 1551.28,-122"/>
<text text-anchor="middle" x="1494" y="-99.8" font-family="Times,serif" font-size="14.00">LoginComponent</text>
</g>
<!-- LoginComponent&#45;&gt;AppModule -->
<g id="edge5" class="edge">
<title>LoginComponent&#45;&gt;AppModule</title>
<path fill="none" stroke="black" d="M1494,-122.12C1494,-136.78 1494,-155 1494,-155 1494,-155 1332.83,-155 1332.83,-155"/>
<polygon fill="black" stroke="black" points="1332.83,-151.5 1322.83,-155 1332.83,-158.5 1332.83,-151.5"/>
</g>
<!-- NavbarComponent -->
<g id="node6" class="node">
<title>NavbarComponent</title>
<polygon fill="#ffffb3" stroke="black" points="1418.03,-122 1295.97,-122 1295.97,-86 1418.03,-86 1418.03,-122"/>
<text text-anchor="middle" x="1357" y="-99.8" font-family="Times,serif" font-size="14.00">NavbarComponent</text>
</g>
<!-- NavbarComponent&#45;&gt;AppModule -->
<g id="edge6" class="edge">
<title>NavbarComponent&#45;&gt;AppModule</title>
<path fill="none" stroke="black" d="M1309.28,-122.11C1309.28,-122.11 1309.28,-140.99 1309.28,-140.99"/>
<polygon fill="black" stroke="black" points="1305.78,-140.99 1309.28,-150.99 1312.78,-140.99 1305.78,-140.99"/>
</g>
<!-- NavigationComponent -->
<g id="node7" class="node">
<title>NavigationComponent</title>
<polygon fill="#ffffb3" stroke="black" points="1277.54,-122 1134.46,-122 1134.46,-86 1277.54,-86 1277.54,-122"/>
<text text-anchor="middle" x="1206" y="-99.8" font-family="Times,serif" font-size="14.00">NavigationComponent</text>
</g>
<!-- NavigationComponent&#45;&gt;AppModule -->
<g id="edge7" class="edge">
<title>NavigationComponent&#45;&gt;AppModule</title>
<path fill="none" stroke="black" d="M1258.47,-122.11C1258.47,-122.11 1258.47,-140.99 1258.47,-140.99"/>
<polygon fill="black" stroke="black" points="1254.97,-140.99 1258.47,-150.99 1261.97,-140.99 1254.97,-140.99"/>
</g>
<!-- NewsComponent -->
<g id="node8" class="node">
<title>NewsComponent</title>
<polygon fill="#ffffb3" stroke="black" points="1116.7,-122 1003.3,-122 1003.3,-86 1116.7,-86 1116.7,-122"/>
<text text-anchor="middle" x="1060" y="-99.8" font-family="Times,serif" font-size="14.00">NewsComponent</text>
</g>
<!-- NewsComponent&#45;&gt;AppModule -->
<g id="edge8" class="edge">
<title>NewsComponent&#45;&gt;AppModule</title>
<path fill="none" stroke="black" d="M1060,-122.12C1060,-136.78 1060,-155 1060,-155 1060,-155 1229.17,-155 1229.17,-155"/>
<polygon fill="black" stroke="black" points="1229.17,-158.5 1239.17,-155 1229.17,-151.5 1229.17,-158.5"/>
</g>
<!-- RegisterComponent -->
<g id="node9" class="node">
<title>RegisterComponent</title>
<polygon fill="#ffffb3" stroke="black" points="984.98,-122 857.02,-122 857.02,-86 984.98,-86 984.98,-122"/>
<text text-anchor="middle" x="921" y="-99.8" font-family="Times,serif" font-size="14.00">RegisterComponent</text>
</g>
<!-- RegisterComponent&#45;&gt;AppModule -->
<g id="edge9" class="edge">
<title>RegisterComponent&#45;&gt;AppModule</title>
<path fill="none" stroke="black" d="M921,-122.01C921,-138.05 921,-159 921,-159 921,-159 1229,-159 1229,-159"/>
<polygon fill="black" stroke="black" points="1229,-162.5 1239,-159 1229,-155.5 1229,-162.5"/>
</g>
<!-- RoomsComponent -->
<g id="node10" class="node">
<title>RoomsComponent</title>
<polygon fill="#ffffb3" stroke="black" points="839.5,-122 718.5,-122 718.5,-86 839.5,-86 839.5,-122"/>
<text text-anchor="middle" x="779" y="-99.8" font-family="Times,serif" font-size="14.00">RoomsComponent</text>
</g>
<!-- RoomsComponent&#45;&gt;AppModule -->
<g id="edge10" class="edge">
<title>RoomsComponent&#45;&gt;AppModule</title>
<path fill="none" stroke="black" d="M779,-122.02C779,-139.37 779,-163 779,-163 779,-163 1229.06,-163 1229.06,-163"/>
<polygon fill="black" stroke="black" points="1229.06,-166.5 1239.06,-163 1229.06,-159.5 1229.06,-166.5"/>
</g>
<!-- SelectLanguageComponent -->
<g id="node11" class="node">
<title>SelectLanguageComponent</title>
<polygon fill="#ffffb3" stroke="black" points="700.24,-122 529.76,-122 529.76,-86 700.24,-86 700.24,-122"/>
<text text-anchor="middle" x="615" y="-99.8" font-family="Times,serif" font-size="14.00">SelectLanguageComponent</text>
</g>
<!-- SelectLanguageComponent&#45;&gt;AppModule -->
<g id="edge11" class="edge">
<title>SelectLanguageComponent&#45;&gt;AppModule</title>
<path fill="none" stroke="black" d="M615,-122.22C615,-140.83 615,-167 615,-167 615,-167 1229.34,-167 1229.34,-167"/>
<polygon fill="black" stroke="black" points="1229.34,-170.5 1239.34,-167 1229.34,-163.5 1229.34,-170.5"/>
</g>
<!-- StartComponent -->
<g id="node12" class="node">
<title>StartComponent</title>
<polygon fill="#ffffb3" stroke="black" points="511.77,-122 404.23,-122 404.23,-86 511.77,-86 511.77,-122"/>
<text text-anchor="middle" x="458" y="-99.8" font-family="Times,serif" font-size="14.00">StartComponent</text>
</g>
<!-- StartComponent&#45;&gt;AppModule -->
<g id="edge12" class="edge">
<title>StartComponent&#45;&gt;AppModule</title>
<path fill="none" stroke="black" d="M458,-122.31C458,-142.15 458,-171 458,-171 458,-171 1229.34,-171 1229.34,-171"/>
<polygon fill="black" stroke="black" points="1229.34,-174.5 1239.34,-171 1229.34,-167.5 1229.34,-174.5"/>
</g>
<!-- AppComponent  -->
<g id="node17" class="node">
<title>AppComponent </title>
<polygon fill="#80b1d3" stroke="black" points="1335.44,-252 1226.56,-252 1226.56,-216 1335.44,-216 1335.44,-252"/>
<text text-anchor="middle" x="1281" y="-229.8" font-family="Times,serif" font-size="14.00">AppComponent </text>
</g>
<!-- AppModule&#45;&gt;AppComponent  -->
<g id="edge16" class="edge">
<title>AppModule&#45;&gt;AppComponent </title>
<path fill="none" stroke="black" stroke-dasharray="1,5" d="M1281,-187.11C1281,-187.11 1281,-205.99 1281,-205.99"/>
<polygon fill="black" stroke="black" points="1277.5,-205.99 1281,-215.99 1284.5,-205.99 1277.5,-205.99"/>
</g>
<!-- AppRoutingModule -->
<g id="node14" class="node">
<title>AppRoutingModule</title>
<polygon fill="#8dd3c7" stroke="black" points="380.27,-122 377.27,-126 356.27,-126 353.27,-122 251.73,-122 251.73,-86 380.27,-86 380.27,-122"/>
<text text-anchor="middle" x="316" y="-99.8" font-family="Times,serif" font-size="14.00">AppRoutingModule</text>
</g>
<!-- AppRoutingModule&#45;&gt;AppModule -->
<g id="edge13" class="edge">
<title>AppRoutingModule&#45;&gt;AppModule</title>
<path fill="none" stroke="black" d="M316,-122.28C316,-143.32 316,-175 316,-175 316,-175 1229.23,-175 1229.23,-175"/>
<polygon fill="black" stroke="black" points="1229.23,-178.5 1239.23,-175 1229.23,-171.5 1229.23,-178.5"/>
</g>
<!-- I18nModule -->
<g id="node15" class="node">
<title>I18nModule</title>
<polygon fill="#8dd3c7" stroke="black" points="233.71,-122 230.71,-126 209.71,-126 206.71,-122 148.29,-122 148.29,-86 233.71,-86 233.71,-122"/>
<text text-anchor="middle" x="191" y="-99.8" font-family="Times,serif" font-size="14.00">I18nModule</text>
</g>
<!-- I18nModule&#45;&gt;AppModule -->
<g id="edge14" class="edge">
<title>I18nModule&#45;&gt;AppModule</title>
<path fill="none" stroke="black" d="M191,-122.16C191,-144.35 191,-179 191,-179 191,-179 1229.27,-179 1229.27,-179"/>
<polygon fill="black" stroke="black" points="1229.27,-182.5 1239.27,-179 1229.27,-175.5 1229.27,-182.5"/>
</g>
<!-- MaterialModule -->
<g id="node16" class="node">
<title>MaterialModule</title>
<polygon fill="#8dd3c7" stroke="black" points="130.47,-122 127.47,-126 106.47,-126 103.47,-122 23.53,-122 23.53,-86 130.47,-86 130.47,-122"/>
<text text-anchor="middle" x="77" y="-99.8" font-family="Times,serif" font-size="14.00">MaterialModule</text>
</g>
<!-- MaterialModule&#45;&gt;AppModule -->
<g id="edge15" class="edge">
<title>MaterialModule&#45;&gt;AppModule</title>
<path fill="none" stroke="black" d="M77,-122.32C77,-145.66 77,-183 77,-183 77,-183 1229.21,-183 1229.21,-183"/>
<polygon fill="black" stroke="black" points="1229.21,-186.5 1239.21,-183 1229.21,-179.5 1229.21,-186.5"/>
</g>
<!-- AuthService -->
<g id="node18" class="node">
<title>AuthService</title>
<ellipse fill="#fdb462" stroke="black" cx="2580" cy="-104" rx="59.11" ry="18"/>
<text text-anchor="middle" x="2580" y="-99.8" font-family="Times,serif" font-size="14.00">AuthService</text>
</g>
<!-- AuthService&#45;&gt;AppModule -->
<g id="edge17" class="edge">
<title>AuthService&#45;&gt;AppModule</title>
<path fill="none" stroke="black" d="M2580,-122.32C2580,-145.66 2580,-183 2580,-183 2580,-183 1332.75,-183 1332.75,-183"/>
<polygon fill="black" stroke="black" points="1332.75,-179.5 1322.75,-183 1332.75,-186.5 1332.75,-179.5"/>
</g>
<!-- EventService -->
<g id="node19" class="node">
<title>EventService</title>
<ellipse fill="#fdb462" stroke="black" cx="2440" cy="-104" rx="62.54" ry="18"/>
<text text-anchor="middle" x="2440" y="-99.8" font-family="Times,serif" font-size="14.00">EventService</text>
</g>
<!-- EventService&#45;&gt;AppModule -->
<g id="edge18" class="edge">
<title>EventService&#45;&gt;AppModule</title>
<path fill="none" stroke="black" d="M2440,-122.16C2440,-144.35 2440,-179 2440,-179 2440,-179 1332.93,-179 1332.93,-179"/>
<polygon fill="black" stroke="black" points="1332.93,-175.5 1322.93,-179 1332.93,-182.5 1332.93,-175.5"/>
</g>
<!-- TokenInterceptorService -->
<g id="node20" class="node">
<title>TokenInterceptorService</title>
<ellipse fill="#fdb462" stroke="black" cx="2252" cy="-104" rx="107.04" ry="18"/>
<text text-anchor="middle" x="2252" y="-99.8" font-family="Times,serif" font-size="14.00">TokenInterceptorService</text>
</g>
<!-- TokenInterceptorService&#45;&gt;AppModule -->
<g id="edge19" class="edge">
<title>TokenInterceptorService&#45;&gt;AppModule</title>
<path fill="none" stroke="black" d="M2252,-122.28C2252,-143.32 2252,-175 2252,-175 2252,-175 1332.72,-175 1332.72,-175"/>
<polygon fill="black" stroke="black" points="1332.72,-171.5 1322.72,-175 1332.72,-178.5 1332.72,-171.5"/>
</g>
</g>
</svg>
