<?xml version="1.0" encoding="UTF-8" standalone="no"?>
<!DOCTYPE svg PUBLIC "-//W3C//DTD SVG 1.1//EN"
 "http://www.w3.org/Graphics/SVG/1.1/DTD/svg11.dtd">
<!-- Generated by graphviz version 2.44.1 (20200629.0846)
 -->
<!-- Title: dependencies Pages: 1 -->
<svg width="2555pt" height="284pt"
 viewBox="0.00 0.00 2555.00 284.00" xmlns="http://www.w3.org/2000/svg" xmlns:xlink="http://www.w3.org/1999/xlink">
<g id="graph0" class="graph" transform="scale(1 1) rotate(0) translate(4 280)">
<title>dependencies</title>
<polygon fill="white" stroke="transparent" points="-4,4 -4,-280 2551,-280 2551,4 -4,4"/>
<text text-anchor="start" x="1252.51" y="-42.4" font-family="sans-serif" font-weight="bold" font-size="14.00">Legend</text>
<polygon fill="#ffffb3" stroke="transparent" points="1039.5,-10 1039.5,-30 1059.5,-30 1059.5,-10 1039.5,-10"/>
<text text-anchor="start" x="1063.13" y="-15.4" font-family="sans-serif" font-size="14.00"> &#160;Declarations</text>
<polygon fill="#8dd3c7" stroke="transparent" points="1152.5,-10 1152.5,-30 1172.5,-30 1172.5,-10 1152.5,-10"/>
<text text-anchor="start" x="1176.23" y="-15.4" font-family="sans-serif" font-size="14.00"> &#160;Module</text>
<polygon fill="#80b1d3" stroke="transparent" points="1238.5,-10 1238.5,-30 1258.5,-30 1258.5,-10 1238.5,-10"/>
<text text-anchor="start" x="1262.28" y="-15.4" font-family="sans-serif" font-size="14.00"> &#160;Bootstrap</text>
<polygon fill="#fdb462" stroke="transparent" points="1335.5,-10 1335.5,-30 1355.5,-30 1355.5,-10 1335.5,-10"/>
<text text-anchor="start" x="1359.17" y="-15.4" font-family="sans-serif" font-size="14.00"> &#160;Providers</text>
<polygon fill="#fb8072" stroke="transparent" points="1431.5,-10 1431.5,-30 1451.5,-30 1451.5,-10 1431.5,-10"/>
<text text-anchor="start" x="1455.23" y="-15.4" font-family="sans-serif" font-size="14.00"> &#160;Exports</text>
<g id="clust1" class="cluster">
<title>cluster_AppModule</title>
<polygon fill="none" stroke="black" stroke-dasharray="1,5" points="8,-70 8,-268 2539,-268 2539,-70 8,-70"/>
</g>
<g id="clust13" class="cluster">
<title>cluster_AppModule_bootstrap</title>
<polygon fill="none" stroke="black" points="1262,-208 1262,-260 1386,-260 1386,-208 1262,-208"/>
</g>
<g id="clust2" class="cluster">
<title>cluster_AppModule_declarations</title>
<polygon fill="none" stroke="black" points="1404,-78 1404,-130 2531,-130 2531,-78 1404,-78"/>
</g>
<g id="clust11" class="cluster">
<title>cluster_AppModule_imports</title>
<polygon fill="none" stroke="black" points="1024,-78 1024,-130 1396,-130 1396,-78 1024,-78"/>
</g>
<g id="clust14" class="cluster">
<title>cluster_AppModule_providers</title>
<polygon fill="none" stroke="black" points="16,-78 16,-130 1016,-130 1016,-78 16,-78"/>
</g>
<!-- AdminComponent -->
<g id="node1" class="node">
<title>AdminComponent</title>
<polygon fill="#ffffb3" stroke="black" points="2523.22,-122 2402.78,-122 2402.78,-86 2523.22,-86 2523.22,-122"/>
<text text-anchor="middle" x="2463" y="-99.8" font-family="Times,serif" font-size="14.00">AdminComponent</text>
</g>
<!-- AppModule -->
<g id="node9" class="node">
<title>AppModule</title>
<polygon fill="#8dd3c7" stroke="black" points="1365.66,-187 1362.66,-191 1341.66,-191 1338.66,-187 1282.34,-187 1282.34,-151 1365.66,-151 1365.66,-187"/>
<text text-anchor="middle" x="1324" y="-164.8" font-family="Times,serif" font-size="14.00">AppModule</text>
</g>
<!-- AdminComponent&#45;&gt;AppModule -->
<g id="edge1" class="edge">
<title>AdminComponent&#45;&gt;AppModule</title>
<path fill="none" stroke="black" d="M2463,-122.32C2463,-145.66 2463,-183 2463,-183 2463,-183 1375.89,-183 1375.89,-183"/>
<polygon fill="black" stroke="black" points="1375.89,-179.5 1365.89,-183 1375.89,-186.5 1375.89,-179.5"/>
</g>
<!-- AppComponent -->
<g id="node2" class="node">
<title>AppComponent</title>
<polygon fill="#ffffb3" stroke="black" points="2384.94,-122 2279.06,-122 2279.06,-86 2384.94,-86 2384.94,-122"/>
<text text-anchor="middle" x="2332" y="-99.8" font-family="Times,serif" font-size="14.00">AppComponent</text>
</g>
<!-- AppComponent&#45;&gt;AppModule -->
<g id="edge2" class="edge">
<title>AppComponent&#45;&gt;AppModule</title>
<path fill="none" stroke="black" d="M2332,-122.16C2332,-144.35 2332,-179 2332,-179 2332,-179 1375.71,-179 1375.71,-179"/>
<polygon fill="black" stroke="black" points="1375.71,-175.5 1365.71,-179 1375.71,-182.5 1375.71,-175.5"/>
</g>
<!-- EventsComponent -->
<g id="node3" class="node">
<title>EventsComponent</title>
<polygon fill="#ffffb3" stroke="black" points="2261.94,-122 2142.06,-122 2142.06,-86 2261.94,-86 2261.94,-122"/>
<text text-anchor="middle" x="2202" y="-99.8" font-family="Times,serif" font-size="14.00">EventsComponent</text>
</g>
<!-- EventsComponent&#45;&gt;AppModule -->
<g id="edge3" class="edge">
<title>EventsComponent&#45;&gt;AppModule</title>
<path fill="none" stroke="black" d="M2202,-122.28C2202,-143.32 2202,-175 2202,-175 2202,-175 1375.76,-175 1375.76,-175"/>
<polygon fill="black" stroke="black" points="1375.76,-171.5 1365.76,-175 1375.76,-178.5 1375.76,-171.5"/>
</g>
<!-- NewsComponent -->
<g id="node4" class="node">
<title>NewsComponent</title>
<polygon fill="#ffffb3" stroke="black" points="2124.7,-122 2011.3,-122 2011.3,-86 2124.7,-86 2124.7,-122"/>
<text text-anchor="middle" x="2068" y="-99.8" font-family="Times,serif" font-size="14.00">NewsComponent</text>
</g>
<!-- NewsComponent&#45;&gt;AppModule -->
<g id="edge4" class="edge">
<title>NewsComponent&#45;&gt;AppModule</title>
<path fill="none" stroke="black" d="M2068,-122.31C2068,-142.15 2068,-171 2068,-171 2068,-171 1375.86,-171 1375.86,-171"/>
<polygon fill="black" stroke="black" points="1375.86,-167.5 1365.86,-171 1375.86,-174.5 1375.86,-167.5"/>
</g>
<!-- RegisterComponent -->
<g id="node5" class="node">
<title>RegisterComponent</title>
<polygon fill="#ffffb3" stroke="black" points="1992.98,-122 1865.02,-122 1865.02,-86 1992.98,-86 1992.98,-122"/>
<text text-anchor="middle" x="1929" y="-99.8" font-family="Times,serif" font-size="14.00">RegisterComponent</text>
</g>
<!-- RegisterComponent&#45;&gt;AppModule -->
<g id="edge5" class="edge">
<title>RegisterComponent&#45;&gt;AppModule</title>
<path fill="none" stroke="black" d="M1929,-122.22C1929,-140.83 1929,-167 1929,-167 1929,-167 1376.06,-167 1376.06,-167"/>
<polygon fill="black" stroke="black" points="1376.06,-163.5 1366.06,-167 1376.06,-170.5 1376.06,-163.5"/>
</g>
<!-- RoomsComponent -->
<g id="node6" class="node">
<title>RoomsComponent</title>
<polygon fill="#ffffb3" stroke="black" points="1847.5,-122 1726.5,-122 1726.5,-86 1847.5,-86 1847.5,-122"/>
<text text-anchor="middle" x="1787" y="-99.8" font-family="Times,serif" font-size="14.00">RoomsComponent</text>
</g>
<!-- RoomsComponent&#45;&gt;AppModule -->
<g id="edge6" class="edge">
<title>RoomsComponent&#45;&gt;AppModule</title>
<path fill="none" stroke="black" d="M1787,-122.02C1787,-139.37 1787,-163 1787,-163 1787,-163 1375.9,-163 1375.9,-163"/>
<polygon fill="black" stroke="black" points="1375.9,-159.5 1365.9,-163 1375.9,-166.5 1375.9,-159.5"/>
</g>
<!-- SelectLanguageComponent -->
<g id="node7" class="node">
<title>SelectLanguageComponent</title>
<polygon fill="#ffffb3" stroke="black" points="1708.24,-122 1537.76,-122 1537.76,-86 1708.24,-86 1708.24,-122"/>
<text text-anchor="middle" x="1623" y="-99.8" font-family="Times,serif" font-size="14.00">SelectLanguageComponent</text>
</g>
<!-- SelectLanguageComponent&#45;&gt;AppModule -->
<g id="edge7" class="edge">
<title>SelectLanguageComponent&#45;&gt;AppModule</title>
<path fill="none" stroke="black" d="M1623,-122.01C1623,-138.05 1623,-159 1623,-159 1623,-159 1375.89,-159 1375.89,-159"/>
<polygon fill="black" stroke="black" points="1375.89,-155.5 1365.89,-159 1375.89,-162.5 1375.89,-155.5"/>
</g>
<!-- StartComponent -->
<g id="node8" class="node">
<title>StartComponent</title>
<polygon fill="#ffffb3" stroke="black" points="1519.77,-122 1412.23,-122 1412.23,-86 1519.77,-86 1519.77,-122"/>
<text text-anchor="middle" x="1466" y="-99.8" font-family="Times,serif" font-size="14.00">StartComponent</text>
</g>
<!-- StartComponent&#45;&gt;AppModule -->
<g id="edge8" class="edge">
<title>StartComponent&#45;&gt;AppModule</title>
<path fill="none" stroke="black" d="M1466,-122.12C1466,-136.78 1466,-155 1466,-155 1466,-155 1375.84,-155 1375.84,-155"/>
<polygon fill="black" stroke="black" points="1375.84,-151.5 1365.84,-155 1375.84,-158.5 1375.84,-151.5"/>
</g>
<!-- AppComponent  -->
<g id="node13" class="node">
<title>AppComponent </title>
<polygon fill="#80b1d3" stroke="black" points="1378.44,-252 1269.56,-252 1269.56,-216 1378.44,-216 1378.44,-252"/>
<text text-anchor="middle" x="1324" y="-229.8" font-family="Times,serif" font-size="14.00">AppComponent </text>
</g>
<!-- AppModule&#45;&gt;AppComponent  -->
<g id="edge12" class="edge">
<title>AppModule&#45;&gt;AppComponent </title>
<path fill="none" stroke="black" stroke-dasharray="1,5" d="M1324,-187.11C1324,-187.11 1324,-205.99 1324,-205.99"/>
<polygon fill="black" stroke="black" points="1320.5,-205.99 1324,-215.99 1327.5,-205.99 1320.5,-205.99"/>
</g>
<!-- AppRoutingModule -->
<g id="node10" class="node">
<title>AppRoutingModule</title>
<polygon fill="#8dd3c7" stroke="black" points="1388.27,-122 1385.27,-126 1364.27,-126 1361.27,-122 1259.73,-122 1259.73,-86 1388.27,-86 1388.27,-122"/>
<text text-anchor="middle" x="1324" y="-99.8" font-family="Times,serif" font-size="14.00">AppRoutingModule</text>
</g>
<!-- AppRoutingModule&#45;&gt;AppModule -->
<g id="edge9" class="edge">
<title>AppRoutingModule&#45;&gt;AppModule</title>
<path fill="none" stroke="black" d="M1324,-122.11C1324,-122.11 1324,-140.99 1324,-140.99"/>
<polygon fill="black" stroke="black" points="1320.5,-140.99 1324,-150.99 1327.5,-140.99 1320.5,-140.99"/>
</g>
<!-- I18nModule -->
<g id="node11" class="node">
<title>I18nModule</title>
<polygon fill="#8dd3c7" stroke="black" points="1241.71,-122 1238.71,-126 1217.71,-126 1214.71,-122 1156.29,-122 1156.29,-86 1241.71,-86 1241.71,-122"/>
<text text-anchor="middle" x="1199" y="-99.8" font-family="Times,serif" font-size="14.00">I18nModule</text>
</g>
<!-- I18nModule&#45;&gt;AppModule -->
<g id="edge10" class="edge">
<title>I18nModule&#45;&gt;AppModule</title>
<path fill="none" stroke="black" d="M1199,-122.12C1199,-136.78 1199,-155 1199,-155 1199,-155 1272.03,-155 1272.03,-155"/>
<polygon fill="black" stroke="black" points="1272.03,-158.5 1282.03,-155 1272.03,-151.5 1272.03,-158.5"/>
</g>
<!-- MaterialModule -->
<g id="node12" class="node">
<title>MaterialModule</title>
<polygon fill="#8dd3c7" stroke="black" points="1138.47,-122 1135.47,-126 1114.47,-126 1111.47,-122 1031.53,-122 1031.53,-86 1138.47,-86 1138.47,-122"/>
<text text-anchor="middle" x="1085" y="-99.8" font-family="Times,serif" font-size="14.00">MaterialModule</text>
</g>
<!-- MaterialModule&#45;&gt;AppModule -->
<g id="edge11" class="edge">
<title>MaterialModule&#45;&gt;AppModule</title>
<path fill="none" stroke="black" d="M1085,-122.01C1085,-138.05 1085,-159 1085,-159 1085,-159 1272.1,-159 1272.1,-159"/>
<polygon fill="black" stroke="black" points="1272.1,-162.5 1282.1,-159 1272.1,-155.5 1272.1,-162.5"/>
</g>
<!-- AuthService -->
<g id="node14" class="node">
<title>AuthService</title>
<ellipse fill="#fdb462" stroke="black" cx="949" cy="-104" rx="59.11" ry="18"/>
<text text-anchor="middle" x="949" y="-99.8" font-family="Times,serif" font-size="14.00">AuthService</text>
</g>
<!-- AuthService&#45;&gt;AppModule -->
<g id="edge13" class="edge">
<title>AuthService&#45;&gt;AppModule</title>
<path fill="none" stroke="black" d="M949,-122.02C949,-139.37 949,-163 949,-163 949,-163 1272.07,-163 1272.07,-163"/>
<polygon fill="black" stroke="black" points="1272.07,-166.5 1282.07,-163 1272.07,-159.5 1272.07,-166.5"/>
</g>
<!-- EventService -->
<g id="node15" class="node">
<title>EventService</title>
<ellipse fill="#fdb462" stroke="black" cx="809" cy="-104" rx="62.54" ry="18"/>
<text text-anchor="middle" x="809" y="-99.8" font-family="Times,serif" font-size="14.00">EventService</text>
</g>
<!-- EventService&#45;&gt;AppModule -->
<g id="edge14" class="edge">
<title>EventService&#45;&gt;AppModule</title>
<path fill="none" stroke="black" d="M809,-122.22C809,-140.83 809,-167 809,-167 809,-167 1272.29,-167 1272.29,-167"/>
<polygon fill="black" stroke="black" points="1272.29,-170.5 1282.29,-167 1272.29,-163.5 1272.29,-170.5"/>
</g>
<!-- MarkerService -->
<g id="node16" class="node">
<title>MarkerService</title>
<ellipse fill="#fdb462" stroke="black" cx="660" cy="-104" rx="68.32" ry="18"/>
<text text-anchor="middle" x="660" y="-99.8" font-family="Times,serif" font-size="14.00">MarkerService</text>
</g>
<!-- MarkerService&#45;&gt;AppModule -->
<g id="edge15" class="edge">
<title>MarkerService&#45;&gt;AppModule</title>
<path fill="none" stroke="black" d="M660,-122.31C660,-142.15 660,-171 660,-171 660,-171 1272.21,-171 1272.21,-171"/>
<polygon fill="black" stroke="black" points="1272.21,-174.5 1282.21,-171 1272.21,-167.5 1272.21,-174.5"/>
</g>
<!-- NavigationService -->
<g id="node17" class="node">
<title>NavigationService</title>
<ellipse fill="#fdb462" stroke="black" cx="491" cy="-104" rx="82.8" ry="18"/>
<text text-anchor="middle" x="491" y="-99.8" font-family="Times,serif" font-size="14.00">NavigationService</text>
</g>
<!-- NavigationService&#45;&gt;AppModule -->
<g id="edge16" class="edge">
<title>NavigationService&#45;&gt;AppModule</title>
<path fill="none" stroke="black" d="M491,-122.28C491,-143.32 491,-175 491,-175 491,-175 1272.12,-175 1272.12,-175"/>
<polygon fill="black" stroke="black" points="1272.12,-178.5 1282.12,-175 1272.12,-171.5 1272.12,-178.5"/>
</g>
<!-- PopUpService -->
<g id="node18" class="node">
<title>PopUpService</title>
<ellipse fill="#fdb462" stroke="black" cx="323" cy="-104" rx="66.63" ry="18"/>
<text text-anchor="middle" x="323" y="-99.8" font-family="Times,serif" font-size="14.00">PopUpService</text>
</g>
<!-- PopUpService&#45;&gt;AppModule -->
<g id="edge17" class="edge">
<title>PopUpService&#45;&gt;AppModule</title>
<path fill="none" stroke="black" d="M323,-122.16C323,-144.35 323,-179 323,-179 323,-179 1272.26,-179 1272.26,-179"/>
<polygon fill="black" stroke="black" points="1272.26,-182.5 1282.26,-179 1272.26,-175.5 1272.26,-182.5"/>
</g>
<!-- TokenInterceptorService -->
<g id="node19" class="node">
<title>TokenInterceptorService</title>
<ellipse fill="#fdb462" stroke="black" cx="131" cy="-104" rx="107.04" ry="18"/>
<text text-anchor="middle" x="131" y="-99.8" font-family="Times,serif" font-size="14.00">TokenInterceptorService</text>
</g>
<!-- TokenInterceptorService&#45;&gt;AppModule -->
<g id="edge18" class="edge">
<title>TokenInterceptorService&#45;&gt;AppModule</title>
<path fill="none" stroke="black" d="M131,-122.32C131,-145.66 131,-183 131,-183 131,-183 1272.24,-183 1272.24,-183"/>
<polygon fill="black" stroke="black" points="1272.24,-186.5 1282.24,-183 1272.24,-179.5 1272.24,-186.5"/>
</g>
</g>
</svg>
