<?xml version="1.0" encoding="UTF-8" standalone="no"?>
<!DOCTYPE svg PUBLIC "-//W3C//DTD SVG 1.1//EN"
 "http://www.w3.org/Graphics/SVG/1.1/DTD/svg11.dtd">
<!-- Generated by graphviz version 2.44.1 (20200629.0846)
 -->
<!-- Title: dependencies Pages: 1 -->
<svg width="3422pt" height="284pt"
 viewBox="0.00 0.00 3422.00 284.00" xmlns="http://www.w3.org/2000/svg" xmlns:xlink="http://www.w3.org/1999/xlink">
<g id="graph0" class="graph" transform="scale(1 1) rotate(0) translate(4 280)">
<title>dependencies</title>
<polygon fill="white" stroke="transparent" points="-4,4 -4,-280 3418,-280 3418,4 -4,4"/>
<text text-anchor="start" x="1686.01" y="-42.4" font-family="sans-serif" font-weight="bold" font-size="14.00">Legend</text>
<polygon fill="#ffffb3" stroke="transparent" points="1473,-10 1473,-30 1493,-30 1493,-10 1473,-10"/>
<text text-anchor="start" x="1496.63" y="-15.4" font-family="sans-serif" font-size="14.00"> &#160;Declarations</text>
<polygon fill="#8dd3c7" stroke="transparent" points="1586,-10 1586,-30 1606,-30 1606,-10 1586,-10"/>
<text text-anchor="start" x="1609.73" y="-15.4" font-family="sans-serif" font-size="14.00"> &#160;Module</text>
<polygon fill="#80b1d3" stroke="transparent" points="1672,-10 1672,-30 1692,-30 1692,-10 1672,-10"/>
<text text-anchor="start" x="1695.78" y="-15.4" font-family="sans-serif" font-size="14.00"> &#160;Bootstrap</text>
<polygon fill="#fdb462" stroke="transparent" points="1769,-10 1769,-30 1789,-30 1789,-10 1769,-10"/>
<text text-anchor="start" x="1792.67" y="-15.4" font-family="sans-serif" font-size="14.00"> &#160;Providers</text>
<polygon fill="#fb8072" stroke="transparent" points="1865,-10 1865,-30 1885,-30 1885,-10 1865,-10"/>
<text text-anchor="start" x="1888.73" y="-15.4" font-family="sans-serif" font-size="14.00"> &#160;Exports</text>
<g id="clust1" class="cluster">
<title>cluster_AppModule</title>
<polygon fill="none" stroke="black" stroke-dasharray="1,5" points="8,-70 8,-268 3406,-268 3406,-70 8,-70"/>
</g>
<g id="clust19" class="cluster">
<title>cluster_AppModule_bootstrap</title>
<polygon fill="none" stroke="black" points="1772,-208 1772,-260 1896,-260 1896,-208 1772,-208"/>
</g>
<g id="clust17" class="cluster">
<title>cluster_AppModule_imports</title>
<polygon fill="none" stroke="black" points="3026,-78 3026,-130 3398,-130 3398,-78 3026,-78"/>
</g>
<g id="clust2" class="cluster">
<title>cluster_AppModule_declarations</title>
<polygon fill="none" stroke="black" points="1024,-78 1024,-130 3018,-130 3018,-78 1024,-78"/>
</g>
<g id="clust20" class="cluster">
<title>cluster_AppModule_providers</title>
<polygon fill="none" stroke="black" points="16,-78 16,-130 1016,-130 1016,-78 16,-78"/>
</g>
<!-- AdminComponent -->
<g id="node1" class="node">
<title>AdminComponent</title>
<polygon fill="#ffffb3" stroke="black" points="3010.22,-122 2889.78,-122 2889.78,-86 3010.22,-86 3010.22,-122"/>
<text text-anchor="middle" x="2950" y="-99.8" font-family="Times,serif" font-size="14.00">AdminComponent</text>
</g>
<!-- AppModule -->
<g id="node15" class="node">
<title>AppModule</title>
<polygon fill="#8dd3c7" stroke="black" points="1875.66,-187 1872.66,-191 1851.66,-191 1848.66,-187 1792.34,-187 1792.34,-151 1875.66,-151 1875.66,-187"/>
<text text-anchor="middle" x="1834" y="-164.8" font-family="Times,serif" font-size="14.00">AppModule</text>
</g>
<!-- AdminComponent&#45;&gt;AppModule -->
<g id="edge1" class="edge">
<title>AdminComponent&#45;&gt;AppModule</title>
<path fill="none" stroke="black" d="M2950,-122.28C2950,-143.32 2950,-175 2950,-175 2950,-175 1885.71,-175 1885.71,-175"/>
<polygon fill="black" stroke="black" points="1885.71,-171.5 1875.71,-175 1885.71,-178.5 1885.71,-171.5"/>
</g>
<!-- AppComponent -->
<g id="node2" class="node">
<title>AppComponent</title>
<polygon fill="#ffffb3" stroke="black" points="2871.94,-122 2766.06,-122 2766.06,-86 2871.94,-86 2871.94,-122"/>
<text text-anchor="middle" x="2819" y="-99.8" font-family="Times,serif" font-size="14.00">AppComponent</text>
</g>
<!-- AppComponent&#45;&gt;AppModule -->
<g id="edge2" class="edge">
<title>AppComponent&#45;&gt;AppModule</title>
<path fill="none" stroke="black" d="M2819,-122.22C2819,-142.37 2819,-172 2819,-172 2819,-172 1885.7,-172 1885.7,-172"/>
<polygon fill="black" stroke="black" points="1885.7,-168.5 1875.7,-172 1885.7,-175.5 1885.7,-168.5"/>
</g>
<!-- ConfigComponent -->
<g id="node3" class="node">
<title>ConfigComponent</title>
<polygon fill="#ffffb3" stroke="black" points="2748.22,-122 2627.78,-122 2627.78,-86 2748.22,-86 2748.22,-122"/>
<text text-anchor="middle" x="2688" y="-99.8" font-family="Times,serif" font-size="14.00">ConfigComponent</text>
</g>
<!-- ConfigComponent&#45;&gt;AppModule -->
<g id="edge3" class="edge">
<title>ConfigComponent&#45;&gt;AppModule</title>
<path fill="none" stroke="black" d="M2688,-122.11C2688,-141.34 2688,-169 2688,-169 2688,-169 1885.77,-169 1885.77,-169"/>
<polygon fill="black" stroke="black" points="1885.77,-165.5 1875.77,-169 1885.77,-172.5 1885.77,-165.5"/>
</g>
<!-- EventsComponent -->
<g id="node4" class="node">
<title>EventsComponent</title>
<polygon fill="#ffffb3" stroke="black" points="2609.94,-122 2490.06,-122 2490.06,-86 2609.94,-86 2609.94,-122"/>
<text text-anchor="middle" x="2550" y="-99.8" font-family="Times,serif" font-size="14.00">EventsComponent</text>
</g>
<!-- EventsComponent&#45;&gt;AppModule -->
<g id="edge4" class="edge">
<title>EventsComponent&#45;&gt;AppModule</title>
<path fill="none" stroke="black" d="M2550,-122.27C2550,-140.56 2550,-166 2550,-166 2550,-166 1885.85,-166 1885.85,-166"/>
<polygon fill="black" stroke="black" points="1885.85,-162.5 1875.85,-166 1885.85,-169.5 1885.85,-162.5"/>
</g>
<!-- IndoorComponent -->
<g id="node5" class="node">
<title>IndoorComponent</title>
<polygon fill="#ffffb3" stroke="black" points="2472.15,-122 2353.85,-122 2353.85,-86 2472.15,-86 2472.15,-122"/>
<text text-anchor="middle" x="2413" y="-99.8" font-family="Times,serif" font-size="14.00">IndoorComponent</text>
</g>
<!-- IndoorComponent&#45;&gt;AppModule -->
<g id="edge5" class="edge">
<title>IndoorComponent&#45;&gt;AppModule</title>
<path fill="none" stroke="black" d="M2413,-122.02C2413,-139.37 2413,-163 2413,-163 2413,-163 1886.11,-163 1886.11,-163"/>
<polygon fill="black" stroke="black" points="1886.11,-159.5 1876.11,-163 1886.11,-166.5 1886.11,-159.5"/>
</g>
<!-- InternationalComponent -->
<g id="node6" class="node">
<title>InternationalComponent</title>
<polygon fill="#ffffb3" stroke="black" points="2335.36,-122 2182.64,-122 2182.64,-86 2335.36,-86 2335.36,-122"/>
<text text-anchor="middle" x="2259" y="-99.8" font-family="Times,serif" font-size="14.00">InternationalComponent</text>
</g>
<!-- InternationalComponent&#45;&gt;AppModule -->
<g id="edge6" class="edge">
<title>InternationalComponent&#45;&gt;AppModule</title>
<path fill="none" stroke="black" d="M2259,-122.03C2259,-138.4 2259,-160 2259,-160 2259,-160 1885.91,-160 1885.91,-160"/>
<polygon fill="black" stroke="black" points="1885.91,-156.5 1875.91,-160 1885.91,-163.5 1885.91,-156.5"/>
</g>
<!-- LoginComponent -->
<g id="node7" class="node">
<title>LoginComponent</title>
<polygon fill="#ffffb3" stroke="black" points="2164.28,-122 2049.72,-122 2049.72,-86 2164.28,-86 2164.28,-122"/>
<text text-anchor="middle" x="2107" y="-99.8" font-family="Times,serif" font-size="14.00">LoginComponent</text>
</g>
<!-- LoginComponent&#45;&gt;AppModule -->
<g id="edge7" class="edge">
<title>LoginComponent&#45;&gt;AppModule</title>
<path fill="none" stroke="black" d="M2107,-122.24C2107,-137.57 2107,-157 2107,-157 2107,-157 1885.76,-157 1885.76,-157"/>
<polygon fill="black" stroke="black" points="1885.76,-153.5 1875.76,-157 1885.76,-160.5 1885.76,-153.5"/>
</g>
<!-- NavbarComponent -->
<g id="node8" class="node">
<title>NavbarComponent</title>
<polygon fill="#ffffb3" stroke="black" points="2031.03,-122 1908.97,-122 1908.97,-86 2031.03,-86 2031.03,-122"/>
<text text-anchor="middle" x="1970" y="-99.8" font-family="Times,serif" font-size="14.00">NavbarComponent</text>
</g>
<!-- NavbarComponent&#45;&gt;AppModule -->
<g id="edge8" class="edge">
<title>NavbarComponent&#45;&gt;AppModule</title>
<path fill="none" stroke="black" d="M1970,-122.05C1970,-136.37 1970,-154 1970,-154 1970,-154 1885.91,-154 1885.91,-154"/>
<polygon fill="black" stroke="black" points="1885.91,-150.5 1875.91,-154 1885.91,-157.5 1885.91,-150.5"/>
</g>
<!-- NewsComponent -->
<g id="node9" class="node">
<title>NewsComponent</title>
<polygon fill="#ffffb3" stroke="black" points="1890.7,-122 1777.3,-122 1777.3,-86 1890.7,-86 1890.7,-122"/>
<text text-anchor="middle" x="1834" y="-99.8" font-family="Times,serif" font-size="14.00">NewsComponent</text>
</g>
<!-- NewsComponent&#45;&gt;AppModule -->
<g id="edge9" class="edge">
<title>NewsComponent&#45;&gt;AppModule</title>
<path fill="none" stroke="black" d="M1834,-122.11C1834,-122.11 1834,-140.99 1834,-140.99"/>
<polygon fill="black" stroke="black" points="1830.5,-140.99 1834,-150.99 1837.5,-140.99 1830.5,-140.99"/>
</g>
<!-- OutdoorComponent -->
<g id="node10" class="node">
<title>OutdoorComponent</title>
<polygon fill="#ffffb3" stroke="black" points="1758.99,-122 1631.01,-122 1631.01,-86 1758.99,-86 1758.99,-122"/>
<text text-anchor="middle" x="1695" y="-99.8" font-family="Times,serif" font-size="14.00">OutdoorComponent</text>
</g>
<!-- OutdoorComponent&#45;&gt;AppModule -->
<g id="edge10" class="edge">
<title>OutdoorComponent&#45;&gt;AppModule</title>
<path fill="none" stroke="black" d="M1695,-122.05C1695,-136.37 1695,-154 1695,-154 1695,-154 1782.3,-154 1782.3,-154"/>
<polygon fill="black" stroke="black" points="1782.3,-157.5 1792.3,-154 1782.3,-150.5 1782.3,-157.5"/>
</g>
<!-- RegisterComponent -->
<g id="node11" class="node">
<title>RegisterComponent</title>
<polygon fill="#ffffb3" stroke="black" points="1612.98,-122 1485.02,-122 1485.02,-86 1612.98,-86 1612.98,-122"/>
<text text-anchor="middle" x="1549" y="-99.8" font-family="Times,serif" font-size="14.00">RegisterComponent</text>
</g>
<!-- RegisterComponent&#45;&gt;AppModule -->
<g id="edge11" class="edge">
<title>RegisterComponent&#45;&gt;AppModule</title>
<path fill="none" stroke="black" d="M1549,-122.24C1549,-137.57 1549,-157 1549,-157 1549,-157 1782.25,-157 1782.25,-157"/>
<polygon fill="black" stroke="black" points="1782.25,-160.5 1792.25,-157 1782.25,-153.5 1782.25,-160.5"/>
</g>
<!-- RoomsComponent -->
<g id="node12" class="node">
<title>RoomsComponent</title>
<polygon fill="#ffffb3" stroke="black" points="1467.5,-122 1346.5,-122 1346.5,-86 1467.5,-86 1467.5,-122"/>
<text text-anchor="middle" x="1407" y="-99.8" font-family="Times,serif" font-size="14.00">RoomsComponent</text>
</g>
<!-- RoomsComponent&#45;&gt;AppModule -->
<g id="edge12" class="edge">
<title>RoomsComponent&#45;&gt;AppModule</title>
<path fill="none" stroke="black" d="M1407,-122.03C1407,-138.4 1407,-160 1407,-160 1407,-160 1782.28,-160 1782.28,-160"/>
<polygon fill="black" stroke="black" points="1782.28,-163.5 1792.28,-160 1782.28,-156.5 1782.28,-163.5"/>
</g>
<!-- SelectLanguageComponent -->
<g id="node13" class="node">
<title>SelectLanguageComponent</title>
<polygon fill="#ffffb3" stroke="black" points="1328.24,-122 1157.76,-122 1157.76,-86 1328.24,-86 1328.24,-122"/>
<text text-anchor="middle" x="1243" y="-99.8" font-family="Times,serif" font-size="14.00">SelectLanguageComponent</text>
</g>
<!-- SelectLanguageComponent&#45;&gt;AppModule -->
<g id="edge13" class="edge">
<title>SelectLanguageComponent&#45;&gt;AppModule</title>
<path fill="none" stroke="black" d="M1243,-122.02C1243,-139.37 1243,-163 1243,-163 1243,-163 1781.97,-163 1781.97,-163"/>
<polygon fill="black" stroke="black" points="1781.97,-166.5 1791.97,-163 1781.97,-159.5 1781.97,-166.5"/>
</g>
<!-- StartComponent -->
<g id="node14" class="node">
<title>StartComponent</title>
<polygon fill="#ffffb3" stroke="black" points="1139.77,-122 1032.23,-122 1032.23,-86 1139.77,-86 1139.77,-122"/>
<text text-anchor="middle" x="1086" y="-99.8" font-family="Times,serif" font-size="14.00">StartComponent</text>
</g>
<!-- StartComponent&#45;&gt;AppModule -->
<g id="edge14" class="edge">
<title>StartComponent&#45;&gt;AppModule</title>
<path fill="none" stroke="black" d="M1086,-122.27C1086,-140.56 1086,-166 1086,-166 1086,-166 1782.18,-166 1782.18,-166"/>
<polygon fill="black" stroke="black" points="1782.18,-169.5 1792.18,-166 1782.18,-162.5 1782.18,-169.5"/>
</g>
<!-- AppComponent  -->
<g id="node19" class="node">
<title>AppComponent </title>
<polygon fill="#80b1d3" stroke="black" points="1888.44,-252 1779.56,-252 1779.56,-216 1888.44,-216 1888.44,-252"/>
<text text-anchor="middle" x="1834" y="-229.8" font-family="Times,serif" font-size="14.00">AppComponent </text>
</g>
<!-- AppModule&#45;&gt;AppComponent  -->
<g id="edge18" class="edge">
<title>AppModule&#45;&gt;AppComponent </title>
<path fill="none" stroke="black" stroke-dasharray="1,5" d="M1834,-187.11C1834,-187.11 1834,-205.99 1834,-205.99"/>
<polygon fill="black" stroke="black" points="1830.5,-205.99 1834,-215.99 1837.5,-205.99 1830.5,-205.99"/>
</g>
<!-- AppRoutingModule -->
<g id="node16" class="node">
<title>AppRoutingModule</title>
<polygon fill="#8dd3c7" stroke="black" points="3390.27,-122 3387.27,-126 3366.27,-126 3363.27,-122 3261.73,-122 3261.73,-86 3390.27,-86 3390.27,-122"/>
<text text-anchor="middle" x="3326" y="-99.8" font-family="Times,serif" font-size="14.00">AppRoutingModule</text>
</g>
<!-- AppRoutingModule&#45;&gt;AppModule -->
<g id="edge15" class="edge">
<title>AppRoutingModule&#45;&gt;AppModule</title>
<path fill="none" stroke="black" d="M3326,-122.15C3326,-145.76 3326,-184 3326,-184 3326,-184 1885.85,-184 1885.85,-184"/>
<polygon fill="black" stroke="black" points="1885.85,-180.5 1875.85,-184 1885.85,-187.5 1885.85,-180.5"/>
</g>
<!-- I18nModule -->
<g id="node17" class="node">
<title>I18nModule</title>
<polygon fill="#8dd3c7" stroke="black" points="3243.71,-122 3240.71,-126 3219.71,-126 3216.71,-122 3158.29,-122 3158.29,-86 3243.71,-86 3243.71,-122"/>
<text text-anchor="middle" x="3201" y="-99.8" font-family="Times,serif" font-size="14.00">I18nModule</text>
</g>
<!-- I18nModule&#45;&gt;AppModule -->
<g id="edge16" class="edge">
<title>I18nModule&#45;&gt;AppModule</title>
<path fill="none" stroke="black" d="M3201,-122.25C3201,-145.02 3201,-181 3201,-181 3201,-181 1885.66,-181 1885.66,-181"/>
<polygon fill="black" stroke="black" points="1885.66,-177.5 1875.66,-181 1885.66,-184.5 1885.66,-177.5"/>
</g>
<!-- MaterialModule -->
<g id="node18" class="node">
<title>MaterialModule</title>
<polygon fill="#8dd3c7" stroke="black" points="3140.47,-122 3137.47,-126 3116.47,-126 3113.47,-122 3033.53,-122 3033.53,-86 3140.47,-86 3140.47,-122"/>
<text text-anchor="middle" x="3087" y="-99.8" font-family="Times,serif" font-size="14.00">MaterialModule</text>
</g>
<!-- MaterialModule&#45;&gt;AppModule -->
<g id="edge17" class="edge">
<title>MaterialModule&#45;&gt;AppModule</title>
<path fill="none" stroke="black" d="M3087,-122.29C3087,-144.21 3087,-178 3087,-178 3087,-178 1885.69,-178 1885.69,-178"/>
<polygon fill="black" stroke="black" points="1885.69,-174.5 1875.69,-178 1885.69,-181.5 1885.69,-174.5"/>
</g>
<!-- AuthService -->
<g id="node20" class="node">
<title>AuthService</title>
<ellipse fill="#fdb462" stroke="black" cx="949" cy="-104" rx="59.11" ry="18"/>
<text text-anchor="middle" x="949" y="-99.8" font-family="Times,serif" font-size="14.00">AuthService</text>
</g>
<!-- AuthService&#45;&gt;AppModule -->
<g id="edge19" class="edge">
<title>AuthService&#45;&gt;AppModule</title>
<path fill="none" stroke="black" d="M949,-122.11C949,-141.34 949,-169 949,-169 949,-169 1782.21,-169 1782.21,-169"/>
<polygon fill="black" stroke="black" points="1782.21,-172.5 1792.21,-169 1782.21,-165.5 1782.21,-172.5"/>
</g>
<!-- EventService -->
<g id="node21" class="node">
<title>EventService</title>
<ellipse fill="#fdb462" stroke="black" cx="809" cy="-104" rx="62.54" ry="18"/>
<text text-anchor="middle" x="809" y="-99.8" font-family="Times,serif" font-size="14.00">EventService</text>
</g>
<!-- EventService&#45;&gt;AppModule -->
<g id="edge20" class="edge">
<title>EventService&#45;&gt;AppModule</title>
<path fill="none" stroke="black" d="M809,-122.22C809,-142.37 809,-172 809,-172 809,-172 1782.23,-172 1782.23,-172"/>
<polygon fill="black" stroke="black" points="1782.23,-175.5 1792.23,-172 1782.23,-168.5 1782.23,-175.5"/>
</g>
<!-- MarkerService -->
<g id="node22" class="node">
<title>MarkerService</title>
<ellipse fill="#fdb462" stroke="black" cx="660" cy="-104" rx="68.32" ry="18"/>
<text text-anchor="middle" x="660" y="-99.8" font-family="Times,serif" font-size="14.00">MarkerService</text>
</g>
<!-- MarkerService&#45;&gt;AppModule -->
<g id="edge21" class="edge">
<title>MarkerService&#45;&gt;AppModule</title>
<path fill="none" stroke="black" d="M660,-122.28C660,-143.32 660,-175 660,-175 660,-175 1782.22,-175 1782.22,-175"/>
<polygon fill="black" stroke="black" points="1782.22,-178.5 1792.22,-175 1782.22,-171.5 1782.22,-178.5"/>
</g>
<!-- NavigationService -->
<g id="node23" class="node">
<title>NavigationService</title>
<ellipse fill="#fdb462" stroke="black" cx="491" cy="-104" rx="82.8" ry="18"/>
<text text-anchor="middle" x="491" y="-99.8" font-family="Times,serif" font-size="14.00">NavigationService</text>
</g>
<!-- NavigationService&#45;&gt;AppModule -->
<g id="edge22" class="edge">
<title>NavigationService&#45;&gt;AppModule</title>
<path fill="none" stroke="black" d="M491,-122.29C491,-144.21 491,-178 491,-178 491,-178 1782.33,-178 1782.33,-178"/>
<polygon fill="black" stroke="black" points="1782.33,-181.5 1792.33,-178 1782.33,-174.5 1782.33,-181.5"/>
</g>
<!-- PopUpService -->
<g id="node24" class="node">
<title>PopUpService</title>
<ellipse fill="#fdb462" stroke="black" cx="323" cy="-104" rx="66.63" ry="18"/>
<text text-anchor="middle" x="323" y="-99.8" font-family="Times,serif" font-size="14.00">PopUpService</text>
</g>
<!-- PopUpService&#45;&gt;AppModule -->
<g id="edge23" class="edge">
<title>PopUpService&#45;&gt;AppModule</title>
<path fill="none" stroke="black" d="M323,-122.25C323,-145.02 323,-181 323,-181 323,-181 1782.01,-181 1782.01,-181"/>
<polygon fill="black" stroke="black" points="1782.01,-184.5 1792.01,-181 1782.01,-177.5 1782.01,-184.5"/>
</g>
<!-- TokenInterceptorService -->
<g id="node25" class="node">
<title>TokenInterceptorService</title>
<ellipse fill="#fdb462" stroke="black" cx="131" cy="-104" rx="107.04" ry="18"/>
<text text-anchor="middle" x="131" y="-99.8" font-family="Times,serif" font-size="14.00">TokenInterceptorService</text>
</g>
<!-- TokenInterceptorService&#45;&gt;AppModule -->
<g id="edge24" class="edge">
<title>TokenInterceptorService&#45;&gt;AppModule</title>
<path fill="none" stroke="black" d="M131,-122.15C131,-145.76 131,-184 131,-184 131,-184 1782.33,-184 1782.33,-184"/>
<polygon fill="black" stroke="black" points="1782.33,-187.5 1792.33,-184 1782.33,-180.5 1782.33,-187.5"/>
</g>
</g>
</svg>
