<?xml version="1.0" encoding="UTF-8" standalone="no"?>
<!DOCTYPE svg PUBLIC "-//W3C//DTD SVG 1.1//EN"
 "http://www.w3.org/Graphics/SVG/1.1/DTD/svg11.dtd">
<!-- Generated by graphviz version 2.44.1 (20200629.0846)
 -->
<!-- Title: dependencies Pages: 1 -->
<svg width="2007pt" height="284pt"
 viewBox="0.00 0.00 2007.00 284.00" xmlns="http://www.w3.org/2000/svg" xmlns:xlink="http://www.w3.org/1999/xlink">
<g id="graph0" class="graph" transform="scale(1 1) rotate(0) translate(4 280)">
<title>dependencies</title>
<polygon fill="white" stroke="transparent" points="-4,4 -4,-280 2003,-280 2003,4 -4,4"/>
<text text-anchor="start" x="978.51" y="-42.4" font-family="sans-serif" font-weight="bold" font-size="14.00">Legend</text>
<polygon fill="#ffffb3" stroke="transparent" points="765.5,-10 765.5,-30 785.5,-30 785.5,-10 765.5,-10"/>
<text text-anchor="start" x="789.13" y="-15.4" font-family="sans-serif" font-size="14.00"> &#160;Declarations</text>
<polygon fill="#8dd3c7" stroke="transparent" points="878.5,-10 878.5,-30 898.5,-30 898.5,-10 878.5,-10"/>
<text text-anchor="start" x="902.23" y="-15.4" font-family="sans-serif" font-size="14.00"> &#160;Module</text>
<polygon fill="#80b1d3" stroke="transparent" points="964.5,-10 964.5,-30 984.5,-30 984.5,-10 964.5,-10"/>
<text text-anchor="start" x="988.28" y="-15.4" font-family="sans-serif" font-size="14.00"> &#160;Bootstrap</text>
<polygon fill="#fdb462" stroke="transparent" points="1061.5,-10 1061.5,-30 1081.5,-30 1081.5,-10 1061.5,-10"/>
<text text-anchor="start" x="1085.17" y="-15.4" font-family="sans-serif" font-size="14.00"> &#160;Providers</text>
<polygon fill="#fb8072" stroke="transparent" points="1157.5,-10 1157.5,-30 1177.5,-30 1177.5,-10 1157.5,-10"/>
<text text-anchor="start" x="1181.23" y="-15.4" font-family="sans-serif" font-size="14.00"> &#160;Exports</text>
<g id="clust1" class="cluster">
<title>cluster_AppModule</title>
<polygon fill="none" stroke="black" stroke-dasharray="1,5" points="8,-70 8,-268 1991,-268 1991,-70 8,-70"/>
</g>
<g id="clust14" class="cluster">
<title>cluster_AppModule_imports</title>
<polygon fill="none" stroke="black" points="1611,-78 1611,-130 1983,-130 1983,-78 1611,-78"/>
</g>
<g id="clust16" class="cluster">
<title>cluster_AppModule_bootstrap</title>
<polygon fill="none" stroke="black" points="982,-208 982,-260 1106,-260 1106,-208 982,-208"/>
</g>
<g id="clust2" class="cluster">
<title>cluster_AppModule_declarations</title>
<polygon fill="none" stroke="black" points="16,-78 16,-130 1603,-130 1603,-78 16,-78"/>
</g>
<!-- AdminComponent -->
<g id="node1" class="node">
<title>AdminComponent</title>
<polygon fill="#ffffb3" stroke="black" points="1595.22,-122 1474.78,-122 1474.78,-86 1595.22,-86 1595.22,-122"/>
<text text-anchor="middle" x="1535" y="-99.8" font-family="Times,serif" font-size="14.00">AdminComponent</text>
</g>
<!-- AppModule -->
<g id="node12" class="node">
<title>AppModule</title>
<polygon fill="#8dd3c7" stroke="black" points="1085.66,-187 1082.66,-191 1061.66,-191 1058.66,-187 1002.34,-187 1002.34,-151 1085.66,-151 1085.66,-187"/>
<text text-anchor="middle" x="1044" y="-164.8" font-family="Times,serif" font-size="14.00">AppModule</text>
</g>
<!-- AdminComponent&#45;&gt;AppModule -->
<g id="edge1" class="edge">
<title>AdminComponent&#45;&gt;AppModule</title>
<path fill="none" stroke="black" d="M1535,-122.22C1535,-140.83 1535,-167 1535,-167 1535,-167 1095.86,-167 1095.86,-167"/>
<polygon fill="black" stroke="black" points="1095.86,-163.5 1085.86,-167 1095.86,-170.5 1095.86,-163.5"/>
</g>
<!-- AppComponent -->
<g id="node2" class="node">
<title>AppComponent</title>
<polygon fill="#ffffb3" stroke="black" points="1456.94,-122 1351.06,-122 1351.06,-86 1456.94,-86 1456.94,-122"/>
<text text-anchor="middle" x="1404" y="-99.8" font-family="Times,serif" font-size="14.00">AppComponent</text>
</g>
<!-- AppComponent&#45;&gt;AppModule -->
<g id="edge2" class="edge">
<title>AppComponent&#45;&gt;AppModule</title>
<path fill="none" stroke="black" d="M1404,-122.03C1404,-139.06 1404,-162 1404,-162 1404,-162 1096,-162 1096,-162"/>
<polygon fill="black" stroke="black" points="1096,-158.5 1086,-162 1096,-165.5 1096,-158.5"/>
</g>
<!-- EventsComponent -->
<g id="node3" class="node">
<title>EventsComponent</title>
<polygon fill="#ffffb3" stroke="black" points="1333.94,-122 1214.06,-122 1214.06,-86 1333.94,-86 1333.94,-122"/>
<text text-anchor="middle" x="1274" y="-99.8" font-family="Times,serif" font-size="14.00">EventsComponent</text>
</g>
<!-- EventsComponent&#45;&gt;AppModule -->
<g id="edge3" class="edge">
<title>EventsComponent&#45;&gt;AppModule</title>
<path fill="none" stroke="black" d="M1274,-122.24C1274,-137.57 1274,-157 1274,-157 1274,-157 1095.92,-157 1095.92,-157"/>
<polygon fill="black" stroke="black" points="1095.92,-153.5 1085.92,-157 1095.92,-160.5 1095.92,-153.5"/>
</g>
<!-- InternationalComponent -->
<g id="node4" class="node">
<title>InternationalComponent</title>
<polygon fill="#ffffb3" stroke="black" points="1196.36,-122 1043.64,-122 1043.64,-86 1196.36,-86 1196.36,-122"/>
<text text-anchor="middle" x="1120" y="-99.8" font-family="Times,serif" font-size="14.00">InternationalComponent</text>
</g>
<!-- InternationalComponent&#45;&gt;AppModule -->
<g id="edge4" class="edge">
<title>InternationalComponent&#45;&gt;AppModule</title>
<path fill="none" stroke="black" d="M1064.7,-122.11C1064.7,-122.11 1064.7,-140.99 1064.7,-140.99"/>
<polygon fill="black" stroke="black" points="1061.2,-140.99 1064.7,-150.99 1068.2,-140.99 1061.2,-140.99"/>
</g>
<!-- LoginComponent -->
<g id="node5" class="node">
<title>LoginComponent</title>
<polygon fill="#ffffb3" stroke="black" points="1025.28,-122 910.72,-122 910.72,-86 1025.28,-86 1025.28,-122"/>
<text text-anchor="middle" x="968" y="-99.8" font-family="Times,serif" font-size="14.00">LoginComponent</text>
</g>
<!-- LoginComponent&#45;&gt;AppModule -->
<g id="edge5" class="edge">
<title>LoginComponent&#45;&gt;AppModule</title>
<path fill="none" stroke="black" d="M1013.78,-122.11C1013.78,-122.11 1013.78,-140.99 1013.78,-140.99"/>
<polygon fill="black" stroke="black" points="1010.28,-140.99 1013.78,-150.99 1017.28,-140.99 1010.28,-140.99"/>
</g>
<!-- NavbarComponent -->
<g id="node6" class="node">
<title>NavbarComponent</title>
<polygon fill="#ffffb3" stroke="black" points="892.03,-122 769.97,-122 769.97,-86 892.03,-86 892.03,-122"/>
<text text-anchor="middle" x="831" y="-99.8" font-family="Times,serif" font-size="14.00">NavbarComponent</text>
</g>
<!-- NavbarComponent&#45;&gt;AppModule -->
<g id="edge6" class="edge">
<title>NavbarComponent&#45;&gt;AppModule</title>
<path fill="none" stroke="black" d="M831,-122.24C831,-137.57 831,-157 831,-157 831,-157 992.17,-157 992.17,-157"/>
<polygon fill="black" stroke="black" points="992.17,-160.5 1002.17,-157 992.17,-153.5 992.17,-160.5"/>
</g>
<!-- NavigationComponent -->
<g id="node7" class="node">
<title>NavigationComponent</title>
<polygon fill="#ffffb3" stroke="black" points="751.54,-122 608.46,-122 608.46,-86 751.54,-86 751.54,-122"/>
<text text-anchor="middle" x="680" y="-99.8" font-family="Times,serif" font-size="14.00">NavigationComponent</text>
</g>
<!-- NavigationComponent&#45;&gt;AppModule -->
<g id="edge7" class="edge">
<title>NavigationComponent&#45;&gt;AppModule</title>
<path fill="none" stroke="black" d="M680,-122.03C680,-139.06 680,-162 680,-162 680,-162 992.24,-162 992.24,-162"/>
<polygon fill="black" stroke="black" points="992.24,-165.5 1002.24,-162 992.24,-158.5 992.24,-165.5"/>
</g>
<!-- NewsComponent -->
<g id="node8" class="node">
<title>NewsComponent</title>
<polygon fill="#ffffb3" stroke="black" points="590.7,-122 477.3,-122 477.3,-86 590.7,-86 590.7,-122"/>
<text text-anchor="middle" x="534" y="-99.8" font-family="Times,serif" font-size="14.00">NewsComponent</text>
</g>
<!-- NewsComponent&#45;&gt;AppModule -->
<g id="edge8" class="edge">
<title>NewsComponent&#45;&gt;AppModule</title>
<path fill="none" stroke="black" d="M534,-122.22C534,-140.83 534,-167 534,-167 534,-167 992.26,-167 992.26,-167"/>
<polygon fill="black" stroke="black" points="992.26,-170.5 1002.26,-167 992.26,-163.5 992.26,-170.5"/>
</g>
<!-- RoomsComponent -->
<g id="node9" class="node">
<title>RoomsComponent</title>
<polygon fill="#ffffb3" stroke="black" points="459.5,-122 338.5,-122 338.5,-86 459.5,-86 459.5,-122"/>
<text text-anchor="middle" x="399" y="-99.8" font-family="Times,serif" font-size="14.00">RoomsComponent</text>
</g>
<!-- RoomsComponent&#45;&gt;AppModule -->
<g id="edge9" class="edge">
<title>RoomsComponent&#45;&gt;AppModule</title>
<path fill="none" stroke="black" d="M399,-122.22C399,-142.37 399,-172 399,-172 399,-172 992.18,-172 992.18,-172"/>
<polygon fill="black" stroke="black" points="992.18,-175.5 1002.18,-172 992.18,-168.5 992.18,-175.5"/>
</g>
<!-- SelectLanguageComponent -->
<g id="node10" class="node">
<title>SelectLanguageComponent</title>
<polygon fill="#ffffb3" stroke="black" points="320.24,-122 149.76,-122 149.76,-86 320.24,-86 320.24,-122"/>
<text text-anchor="middle" x="235" y="-99.8" font-family="Times,serif" font-size="14.00">SelectLanguageComponent</text>
</g>
<!-- SelectLanguageComponent&#45;&gt;AppModule -->
<g id="edge10" class="edge">
<title>SelectLanguageComponent&#45;&gt;AppModule</title>
<path fill="none" stroke="black" d="M235,-122.04C235,-143.66 235,-177 235,-177 235,-177 992.21,-177 992.21,-177"/>
<polygon fill="black" stroke="black" points="992.21,-180.5 1002.21,-177 992.21,-173.5 992.21,-180.5"/>
</g>
<!-- StartComponent -->
<g id="node11" class="node">
<title>StartComponent</title>
<polygon fill="#ffffb3" stroke="black" points="131.77,-122 24.23,-122 24.23,-86 131.77,-86 131.77,-122"/>
<text text-anchor="middle" x="78" y="-99.8" font-family="Times,serif" font-size="14.00">StartComponent</text>
</g>
<!-- StartComponent&#45;&gt;AppModule -->
<g id="edge11" class="edge">
<title>StartComponent&#45;&gt;AppModule</title>
<path fill="none" stroke="black" d="M78,-122.09C78,-145.13 78,-182 78,-182 78,-182 992.18,-182 992.18,-182"/>
<polygon fill="black" stroke="black" points="992.18,-185.5 1002.18,-182 992.18,-178.5 992.18,-185.5"/>
</g>
<!-- AppComponent  -->
<g id="node16" class="node">
<title>AppComponent </title>
<polygon fill="#80b1d3" stroke="black" points="1098.44,-252 989.56,-252 989.56,-216 1098.44,-216 1098.44,-252"/>
<text text-anchor="middle" x="1044" y="-229.8" font-family="Times,serif" font-size="14.00">AppComponent </text>
</g>
<!-- AppModule&#45;&gt;AppComponent  -->
<g id="edge15" class="edge">
<title>AppModule&#45;&gt;AppComponent </title>
<path fill="none" stroke="black" stroke-dasharray="1,5" d="M1044,-187.11C1044,-187.11 1044,-205.99 1044,-205.99"/>
<polygon fill="black" stroke="black" points="1040.5,-205.99 1044,-215.99 1047.5,-205.99 1040.5,-205.99"/>
</g>
<!-- AppRoutingModule -->
<g id="node13" class="node">
<title>AppRoutingModule</title>
<polygon fill="#8dd3c7" stroke="black" points="1975.27,-122 1972.27,-126 1951.27,-126 1948.27,-122 1846.73,-122 1846.73,-86 1975.27,-86 1975.27,-122"/>
<text text-anchor="middle" x="1911" y="-99.8" font-family="Times,serif" font-size="14.00">AppRoutingModule</text>
</g>
<!-- AppRoutingModule&#45;&gt;AppModule -->
<g id="edge12" class="edge">
<title>AppRoutingModule&#45;&gt;AppModule</title>
<path fill="none" stroke="black" d="M1911,-122.09C1911,-145.13 1911,-182 1911,-182 1911,-182 1095.82,-182 1095.82,-182"/>
<polygon fill="black" stroke="black" points="1095.82,-178.5 1085.82,-182 1095.82,-185.5 1095.82,-178.5"/>
</g>
<!-- I18nModule -->
<g id="node14" class="node">
<title>I18nModule</title>
<polygon fill="#8dd3c7" stroke="black" points="1828.71,-122 1825.71,-126 1804.71,-126 1801.71,-122 1743.29,-122 1743.29,-86 1828.71,-86 1828.71,-122"/>
<text text-anchor="middle" x="1786" y="-99.8" font-family="Times,serif" font-size="14.00">I18nModule</text>
</g>
<!-- I18nModule&#45;&gt;AppModule -->
<g id="edge13" class="edge">
<title>I18nModule&#45;&gt;AppModule</title>
<path fill="none" stroke="black" d="M1786,-122.04C1786,-143.66 1786,-177 1786,-177 1786,-177 1095.75,-177 1095.75,-177"/>
<polygon fill="black" stroke="black" points="1095.75,-173.5 1085.75,-177 1095.75,-180.5 1095.75,-173.5"/>
</g>
<!-- MaterialModule -->
<g id="node15" class="node">
<title>MaterialModule</title>
<polygon fill="#8dd3c7" stroke="black" points="1725.47,-122 1722.47,-126 1701.47,-126 1698.47,-122 1618.53,-122 1618.53,-86 1725.47,-86 1725.47,-122"/>
<text text-anchor="middle" x="1672" y="-99.8" font-family="Times,serif" font-size="14.00">MaterialModule</text>
</g>
<!-- MaterialModule&#45;&gt;AppModule -->
<g id="edge14" class="edge">
<title>MaterialModule&#45;&gt;AppModule</title>
<path fill="none" stroke="black" d="M1672,-122.22C1672,-142.37 1672,-172 1672,-172 1672,-172 1095.69,-172 1095.69,-172"/>
<polygon fill="black" stroke="black" points="1095.69,-168.5 1085.69,-172 1095.69,-175.5 1095.69,-168.5"/>
</g>
</g>
</svg>
