<?xml version="1.0" encoding="UTF-8" standalone="no"?>
<!DOCTYPE svg PUBLIC "-//W3C//DTD SVG 1.1//EN"
 "http://www.w3.org/Graphics/SVG/1.1/DTD/svg11.dtd">
<!-- Generated by graphviz version 2.44.1 (20200629.0846)
 -->
<!-- Title: dependencies Pages: 1 -->
<svg width="1460pt" height="284pt"
 viewBox="0.00 0.00 1460.00 284.00" xmlns="http://www.w3.org/2000/svg" xmlns:xlink="http://www.w3.org/1999/xlink">
<g id="graph0" class="graph" transform="scale(1 1) rotate(0) translate(4 280)">
<title>dependencies</title>
<polygon fill="white" stroke="transparent" points="-4,4 -4,-280 1456,-280 1456,4 -4,4"/>
<text text-anchor="start" x="705.01" y="-42.4" font-family="sans-serif" font-weight="bold" font-size="14.00">Legend</text>
<polygon fill="#ffffb3" stroke="transparent" points="492,-10 492,-30 512,-30 512,-10 492,-10"/>
<text text-anchor="start" x="515.63" y="-15.4" font-family="sans-serif" font-size="14.00"> &#160;Declarations</text>
<polygon fill="#8dd3c7" stroke="transparent" points="605,-10 605,-30 625,-30 625,-10 605,-10"/>
<text text-anchor="start" x="628.73" y="-15.4" font-family="sans-serif" font-size="14.00"> &#160;Module</text>
<polygon fill="#80b1d3" stroke="transparent" points="691,-10 691,-30 711,-30 711,-10 691,-10"/>
<text text-anchor="start" x="714.78" y="-15.4" font-family="sans-serif" font-size="14.00"> &#160;Bootstrap</text>
<polygon fill="#fdb462" stroke="transparent" points="788,-10 788,-30 808,-30 808,-10 788,-10"/>
<text text-anchor="start" x="811.67" y="-15.4" font-family="sans-serif" font-size="14.00"> &#160;Providers</text>
<polygon fill="#fb8072" stroke="transparent" points="884,-10 884,-30 904,-30 904,-10 884,-10"/>
<text text-anchor="start" x="907.73" y="-15.4" font-family="sans-serif" font-size="14.00"> &#160;Exports</text>
<g id="clust1" class="cluster">
<title>cluster_AppModule</title>
<polygon fill="none" stroke="black" stroke-dasharray="1,5" points="8,-70 8,-268 1444,-268 1444,-70 8,-70"/>
</g>
<g id="clust10" class="cluster">
<title>cluster_AppModule_imports</title>
<polygon fill="none" stroke="black" points="1064,-78 1064,-130 1436,-130 1436,-78 1064,-78"/>
</g>
<g id="clust12" class="cluster">
<title>cluster_AppModule_bootstrap</title>
<polygon fill="none" stroke="black" points="710,-208 710,-260 834,-260 834,-208 710,-208"/>
</g>
<g id="clust2" class="cluster">
<title>cluster_AppModule_declarations</title>
<polygon fill="none" stroke="black" points="16,-78 16,-130 1056,-130 1056,-78 16,-78"/>
</g>
<!-- AppComponent -->
<g id="node1" class="node">
<title>AppComponent</title>
<polygon fill="#ffffb3" stroke="black" points="1047.94,-122 942.06,-122 942.06,-86 1047.94,-86 1047.94,-122"/>
<text text-anchor="middle" x="995" y="-99.8" font-family="Times,serif" font-size="14.00">AppComponent</text>
</g>
<!-- AppModule -->
<g id="node8" class="node">
<title>AppModule</title>
<polygon fill="#8dd3c7" stroke="black" points="813.66,-187 810.66,-191 789.66,-191 786.66,-187 730.34,-187 730.34,-151 813.66,-151 813.66,-187"/>
<text text-anchor="middle" x="772" y="-164.8" font-family="Times,serif" font-size="14.00">AppModule</text>
</g>
<!-- AppComponent&#45;&gt;AppModule -->
<g id="edge1" class="edge">
<title>AppComponent&#45;&gt;AppModule</title>
<path fill="none" stroke="black" d="M995,-122.01C995,-138.05 995,-159 995,-159 995,-159 823.68,-159 823.68,-159"/>
<polygon fill="black" stroke="black" points="823.68,-155.5 813.68,-159 823.68,-162.5 823.68,-155.5"/>
</g>
<!-- InternationalComponent -->
<g id="node2" class="node">
<title>InternationalComponent</title>
<polygon fill="#ffffb3" stroke="black" points="924.36,-122 771.64,-122 771.64,-86 924.36,-86 924.36,-122"/>
<text text-anchor="middle" x="848" y="-99.8" font-family="Times,serif" font-size="14.00">InternationalComponent</text>
</g>
<!-- InternationalComponent&#45;&gt;AppModule -->
<g id="edge2" class="edge">
<title>InternationalComponent&#45;&gt;AppModule</title>
<path fill="none" stroke="black" d="M792.7,-122.11C792.7,-122.11 792.7,-140.99 792.7,-140.99"/>
<polygon fill="black" stroke="black" points="789.2,-140.99 792.7,-150.99 796.2,-140.99 789.2,-140.99"/>
</g>
<!-- LoginComponent -->
<g id="node3" class="node">
<title>LoginComponent</title>
<polygon fill="#ffffb3" stroke="black" points="753.28,-122 638.72,-122 638.72,-86 753.28,-86 753.28,-122"/>
<text text-anchor="middle" x="696" y="-99.8" font-family="Times,serif" font-size="14.00">LoginComponent</text>
</g>
<!-- LoginComponent&#45;&gt;AppModule -->
<g id="edge3" class="edge">
<title>LoginComponent&#45;&gt;AppModule</title>
<path fill="none" stroke="black" d="M741.78,-122.11C741.78,-122.11 741.78,-140.99 741.78,-140.99"/>
<polygon fill="black" stroke="black" points="738.28,-140.99 741.78,-150.99 745.28,-140.99 738.28,-140.99"/>
</g>
<!-- NavigationComponent -->
<g id="node4" class="node">
<title>NavigationComponent</title>
<polygon fill="#ffffb3" stroke="black" points="620.54,-122 477.46,-122 477.46,-86 620.54,-86 620.54,-122"/>
<text text-anchor="middle" x="549" y="-99.8" font-family="Times,serif" font-size="14.00">NavigationComponent</text>
</g>
<!-- NavigationComponent&#45;&gt;AppModule -->
<g id="edge4" class="edge">
<title>NavigationComponent&#45;&gt;AppModule</title>
<path fill="none" stroke="black" d="M549,-122.01C549,-138.05 549,-159 549,-159 549,-159 720.32,-159 720.32,-159"/>
<polygon fill="black" stroke="black" points="720.32,-162.5 730.32,-159 720.32,-155.5 720.32,-162.5"/>
</g>
<!-- RoomsComponent -->
<g id="node5" class="node">
<title>RoomsComponent</title>
<polygon fill="#ffffb3" stroke="black" points="459.5,-122 338.5,-122 338.5,-86 459.5,-86 459.5,-122"/>
<text text-anchor="middle" x="399" y="-99.8" font-family="Times,serif" font-size="14.00">RoomsComponent</text>
</g>
<!-- RoomsComponent&#45;&gt;AppModule -->
<g id="edge5" class="edge">
<title>RoomsComponent&#45;&gt;AppModule</title>
<path fill="none" stroke="black" d="M399,-122.27C399,-140.56 399,-166 399,-166 399,-166 720.3,-166 720.3,-166"/>
<polygon fill="black" stroke="black" points="720.3,-169.5 730.3,-166 720.3,-162.5 720.3,-169.5"/>
</g>
<!-- SelectLanguageComponent -->
<g id="node6" class="node">
<title>SelectLanguageComponent</title>
<polygon fill="#ffffb3" stroke="black" points="320.24,-122 149.76,-122 149.76,-86 320.24,-86 320.24,-122"/>
<text text-anchor="middle" x="235" y="-99.8" font-family="Times,serif" font-size="14.00">SelectLanguageComponent</text>
</g>
<!-- SelectLanguageComponent&#45;&gt;AppModule -->
<g id="edge6" class="edge">
<title>SelectLanguageComponent&#45;&gt;AppModule</title>
<path fill="none" stroke="black" d="M235,-122.13C235,-142.57 235,-173 235,-173 235,-173 720.31,-173 720.31,-173"/>
<polygon fill="black" stroke="black" points="720.31,-176.5 730.31,-173 720.31,-169.5 720.31,-176.5"/>
</g>
<!-- StartComponent -->
<g id="node7" class="node">
<title>StartComponent</title>
<polygon fill="#ffffb3" stroke="black" points="131.77,-122 24.23,-122 24.23,-86 131.77,-86 131.77,-122"/>
<text text-anchor="middle" x="78" y="-99.8" font-family="Times,serif" font-size="14.00">StartComponent</text>
</g>
<!-- StartComponent&#45;&gt;AppModule -->
<g id="edge7" class="edge">
<title>StartComponent&#45;&gt;AppModule</title>
<path fill="none" stroke="black" d="M78,-122.01C78,-144.49 78,-180 78,-180 78,-180 720.15,-180 720.15,-180"/>
<polygon fill="black" stroke="black" points="720.15,-183.5 730.15,-180 720.15,-176.5 720.15,-183.5"/>
</g>
<!-- AppComponent  -->
<g id="node12" class="node">
<title>AppComponent </title>
<polygon fill="#80b1d3" stroke="black" points="826.44,-252 717.56,-252 717.56,-216 826.44,-216 826.44,-252"/>
<text text-anchor="middle" x="772" y="-229.8" font-family="Times,serif" font-size="14.00">AppComponent </text>
</g>
<!-- AppModule&#45;&gt;AppComponent  -->
<g id="edge11" class="edge">
<title>AppModule&#45;&gt;AppComponent </title>
<path fill="none" stroke="black" stroke-dasharray="1,5" d="M772,-187.11C772,-187.11 772,-205.99 772,-205.99"/>
<polygon fill="black" stroke="black" points="768.5,-205.99 772,-215.99 775.5,-205.99 768.5,-205.99"/>
</g>
<!-- AppRoutingModule -->
<g id="node9" class="node">
<title>AppRoutingModule</title>
<polygon fill="#8dd3c7" stroke="black" points="1428.27,-122 1425.27,-126 1404.27,-126 1401.27,-122 1299.73,-122 1299.73,-86 1428.27,-86 1428.27,-122"/>
<text text-anchor="middle" x="1364" y="-99.8" font-family="Times,serif" font-size="14.00">AppRoutingModule</text>
</g>
<!-- AppRoutingModule&#45;&gt;AppModule -->
<g id="edge8" class="edge">
<title>AppRoutingModule&#45;&gt;AppModule</title>
<path fill="none" stroke="black" d="M1364,-122.01C1364,-144.49 1364,-180 1364,-180 1364,-180 824.1,-180 824.1,-180"/>
<polygon fill="black" stroke="black" points="824.1,-176.5 814.1,-180 824.1,-183.5 824.1,-176.5"/>
</g>
<!-- I18nModule -->
<g id="node10" class="node">
<title>I18nModule</title>
<polygon fill="#8dd3c7" stroke="black" points="1281.71,-122 1278.71,-126 1257.71,-126 1254.71,-122 1196.29,-122 1196.29,-86 1281.71,-86 1281.71,-122"/>
<text text-anchor="middle" x="1239" y="-99.8" font-family="Times,serif" font-size="14.00">I18nModule</text>
</g>
<!-- I18nModule&#45;&gt;AppModule -->
<g id="edge9" class="edge">
<title>I18nModule&#45;&gt;AppModule</title>
<path fill="none" stroke="black" d="M1239,-122.13C1239,-142.57 1239,-173 1239,-173 1239,-173 823.85,-173 823.85,-173"/>
<polygon fill="black" stroke="black" points="823.85,-169.5 813.85,-173 823.85,-176.5 823.85,-169.5"/>
</g>
<!-- MaterialModule -->
<g id="node11" class="node">
<title>MaterialModule</title>
<polygon fill="#8dd3c7" stroke="black" points="1178.47,-122 1175.47,-126 1154.47,-126 1151.47,-122 1071.53,-122 1071.53,-86 1178.47,-86 1178.47,-122"/>
<text text-anchor="middle" x="1125" y="-99.8" font-family="Times,serif" font-size="14.00">MaterialModule</text>
</g>
<!-- MaterialModule&#45;&gt;AppModule -->
<g id="edge10" class="edge">
<title>MaterialModule&#45;&gt;AppModule</title>
<path fill="none" stroke="black" d="M1125,-122.27C1125,-140.56 1125,-166 1125,-166 1125,-166 823.88,-166 823.88,-166"/>
<polygon fill="black" stroke="black" points="823.88,-162.5 813.88,-166 823.88,-169.5 823.88,-162.5"/>
</g>
</g>
</svg>
