<?xml version="1.0" encoding="UTF-8" standalone="no"?>
<!DOCTYPE svg PUBLIC "-//W3C//DTD SVG 1.1//EN"
 "http://www.w3.org/Graphics/SVG/1.1/DTD/svg11.dtd">
<!-- Generated by graphviz version 2.44.1 (20200629.0846)
 -->
<!-- Title: dependencies Pages: 1 -->
<svg width="1314pt" height="284pt"
 viewBox="0.00 0.00 1314.00 284.00" xmlns="http://www.w3.org/2000/svg" xmlns:xlink="http://www.w3.org/1999/xlink">
<g id="graph0" class="graph" transform="scale(1 1) rotate(0) translate(4 280)">
<title>dependencies</title>
<polygon fill="white" stroke="transparent" points="-4,4 -4,-280 1310,-280 1310,4 -4,4"/>
<text text-anchor="start" x="632.01" y="-42.4" font-family="sans-serif" font-weight="bold" font-size="14.00">Legend</text>
<polygon fill="#ffffb3" stroke="transparent" points="419,-10 419,-30 439,-30 439,-10 419,-10"/>
<text text-anchor="start" x="442.63" y="-15.4" font-family="sans-serif" font-size="14.00"> &#160;Declarations</text>
<polygon fill="#8dd3c7" stroke="transparent" points="532,-10 532,-30 552,-30 552,-10 532,-10"/>
<text text-anchor="start" x="555.73" y="-15.4" font-family="sans-serif" font-size="14.00"> &#160;Module</text>
<polygon fill="#80b1d3" stroke="transparent" points="618,-10 618,-30 638,-30 638,-10 618,-10"/>
<text text-anchor="start" x="641.78" y="-15.4" font-family="sans-serif" font-size="14.00"> &#160;Bootstrap</text>
<polygon fill="#fdb462" stroke="transparent" points="715,-10 715,-30 735,-30 735,-10 715,-10"/>
<text text-anchor="start" x="738.67" y="-15.4" font-family="sans-serif" font-size="14.00"> &#160;Providers</text>
<polygon fill="#fb8072" stroke="transparent" points="811,-10 811,-30 831,-30 831,-10 811,-10"/>
<text text-anchor="start" x="834.73" y="-15.4" font-family="sans-serif" font-size="14.00"> &#160;Exports</text>
<g id="clust1" class="cluster">
<title>cluster_AppModule</title>
<polygon fill="none" stroke="black" stroke-dasharray="1,5" points="8,-70 8,-268 1298,-268 1298,-70 8,-70"/>
</g>
<g id="clust12" class="cluster">
<title>cluster_AppModule_bootstrap</title>
<polygon fill="none" stroke="black" points="571,-208 571,-260 695,-260 695,-208 571,-208"/>
</g>
<g id="clust2" class="cluster">
<title>cluster_AppModule_declarations</title>
<polygon fill="none" stroke="black" points="250,-78 250,-130 1290,-130 1290,-78 250,-78"/>
</g>
<g id="clust10" class="cluster">
<title>cluster_AppModule_imports</title>
<polygon fill="none" stroke="black" points="16,-78 16,-130 242,-130 242,-78 16,-78"/>
</g>
<!-- AppComponent -->
<g id="node1" class="node">
<title>AppComponent</title>
<polygon fill="#ffffb3" stroke="black" points="1281.94,-122 1176.06,-122 1176.06,-86 1281.94,-86 1281.94,-122"/>
<text text-anchor="middle" x="1229" y="-99.8" font-family="Times,serif" font-size="14.00">AppComponent</text>
</g>
<!-- AppModule -->
<g id="node8" class="node">
<title>AppModule</title>
<polygon fill="#8dd3c7" stroke="black" points="674.66,-187 671.66,-191 650.66,-191 647.66,-187 591.34,-187 591.34,-151 674.66,-151 674.66,-187"/>
<text text-anchor="middle" x="633" y="-164.8" font-family="Times,serif" font-size="14.00">AppModule</text>
</g>
<!-- AppComponent&#45;&gt;AppModule -->
<g id="edge1" class="edge">
<title>AppComponent&#45;&gt;AppModule</title>
<path fill="none" stroke="black" d="M1229,-122.01C1229,-144.49 1229,-180 1229,-180 1229,-180 684.91,-180 684.91,-180"/>
<polygon fill="black" stroke="black" points="684.91,-176.5 674.91,-180 684.91,-183.5 684.91,-176.5"/>
</g>
<!-- InternationalComponent -->
<g id="node2" class="node">
<title>InternationalComponent</title>
<polygon fill="#ffffb3" stroke="black" points="1158.36,-122 1005.64,-122 1005.64,-86 1158.36,-86 1158.36,-122"/>
<text text-anchor="middle" x="1082" y="-99.8" font-family="Times,serif" font-size="14.00">InternationalComponent</text>
</g>
<!-- InternationalComponent&#45;&gt;AppModule -->
<g id="edge2" class="edge">
<title>InternationalComponent&#45;&gt;AppModule</title>
<path fill="none" stroke="black" d="M1082,-122.13C1082,-142.57 1082,-173 1082,-173 1082,-173 684.84,-173 684.84,-173"/>
<polygon fill="black" stroke="black" points="684.84,-169.5 674.84,-173 684.84,-176.5 684.84,-169.5"/>
</g>
<!-- LoginComponent -->
<g id="node3" class="node">
<title>LoginComponent</title>
<polygon fill="#ffffb3" stroke="black" points="987.28,-122 872.72,-122 872.72,-86 987.28,-86 987.28,-122"/>
<text text-anchor="middle" x="930" y="-99.8" font-family="Times,serif" font-size="14.00">LoginComponent</text>
</g>
<!-- LoginComponent&#45;&gt;AppModule -->
<g id="edge3" class="edge">
<title>LoginComponent&#45;&gt;AppModule</title>
<path fill="none" stroke="black" d="M930,-122.27C930,-140.56 930,-166 930,-166 930,-166 684.92,-166 684.92,-166"/>
<polygon fill="black" stroke="black" points="684.92,-162.5 674.92,-166 684.92,-169.5 684.92,-162.5"/>
</g>
<!-- NavigationComponent -->
<g id="node4" class="node">
<title>NavigationComponent</title>
<polygon fill="#ffffb3" stroke="black" points="854.54,-122 711.46,-122 711.46,-86 854.54,-86 854.54,-122"/>
<text text-anchor="middle" x="783" y="-99.8" font-family="Times,serif" font-size="14.00">NavigationComponent</text>
</g>
<!-- NavigationComponent&#45;&gt;AppModule -->
<g id="edge4" class="edge">
<title>NavigationComponent&#45;&gt;AppModule</title>
<path fill="none" stroke="black" d="M783,-122.01C783,-138.05 783,-159 783,-159 783,-159 684.78,-159 684.78,-159"/>
<polygon fill="black" stroke="black" points="684.78,-155.5 674.78,-159 684.78,-162.5 684.78,-155.5"/>
</g>
<!-- RoomsComponent -->
<g id="node5" class="node">
<title>RoomsComponent</title>
<polygon fill="#ffffb3" stroke="black" points="693.5,-122 572.5,-122 572.5,-86 693.5,-86 693.5,-122"/>
<text text-anchor="middle" x="633" y="-99.8" font-family="Times,serif" font-size="14.00">RoomsComponent</text>
</g>
<!-- RoomsComponent&#45;&gt;AppModule -->
<g id="edge5" class="edge">
<title>RoomsComponent&#45;&gt;AppModule</title>
<path fill="none" stroke="black" d="M633,-122.11C633,-122.11 633,-140.99 633,-140.99"/>
<polygon fill="black" stroke="black" points="629.5,-140.99 633,-150.99 636.5,-140.99 629.5,-140.99"/>
</g>
<!-- SelectLanguageComponent -->
<g id="node6" class="node">
<title>SelectLanguageComponent</title>
<polygon fill="#ffffb3" stroke="black" points="554.24,-122 383.76,-122 383.76,-86 554.24,-86 554.24,-122"/>
<text text-anchor="middle" x="469" y="-99.8" font-family="Times,serif" font-size="14.00">SelectLanguageComponent</text>
</g>
<!-- SelectLanguageComponent&#45;&gt;AppModule -->
<g id="edge6" class="edge">
<title>SelectLanguageComponent&#45;&gt;AppModule</title>
<path fill="none" stroke="black" d="M469,-122.01C469,-138.05 469,-159 469,-159 469,-159 581.19,-159 581.19,-159"/>
<polygon fill="black" stroke="black" points="581.19,-162.5 591.19,-159 581.19,-155.5 581.19,-162.5"/>
</g>
<!-- StartComponent -->
<g id="node7" class="node">
<title>StartComponent</title>
<polygon fill="#ffffb3" stroke="black" points="365.77,-122 258.23,-122 258.23,-86 365.77,-86 365.77,-122"/>
<text text-anchor="middle" x="312" y="-99.8" font-family="Times,serif" font-size="14.00">StartComponent</text>
</g>
<!-- StartComponent&#45;&gt;AppModule -->
<g id="edge7" class="edge">
<title>StartComponent&#45;&gt;AppModule</title>
<path fill="none" stroke="black" d="M312,-122.27C312,-140.56 312,-166 312,-166 312,-166 581.03,-166 581.03,-166"/>
<polygon fill="black" stroke="black" points="581.03,-169.5 591.03,-166 581.03,-162.5 581.03,-169.5"/>
</g>
<!-- AppComponent  -->
<g id="node11" class="node">
<title>AppComponent </title>
<polygon fill="#80b1d3" stroke="black" points="687.44,-252 578.56,-252 578.56,-216 687.44,-216 687.44,-252"/>
<text text-anchor="middle" x="633" y="-229.8" font-family="Times,serif" font-size="14.00">AppComponent </text>
</g>
<!-- AppModule&#45;&gt;AppComponent  -->
<g id="edge10" class="edge">
<title>AppModule&#45;&gt;AppComponent </title>
<path fill="none" stroke="black" stroke-dasharray="1,5" d="M633,-187.11C633,-187.11 633,-205.99 633,-205.99"/>
<polygon fill="black" stroke="black" points="629.5,-205.99 633,-215.99 636.5,-205.99 629.5,-205.99"/>
</g>
<!-- I18nModule -->
<g id="node9" class="node">
<title>I18nModule</title>
<polygon fill="#8dd3c7" stroke="black" points="233.71,-122 230.71,-126 209.71,-126 206.71,-122 148.29,-122 148.29,-86 233.71,-86 233.71,-122"/>
<text text-anchor="middle" x="191" y="-99.8" font-family="Times,serif" font-size="14.00">I18nModule</text>
</g>
<!-- I18nModule&#45;&gt;AppModule -->
<g id="edge8" class="edge">
<title>I18nModule&#45;&gt;AppModule</title>
<path fill="none" stroke="black" d="M191,-122.13C191,-142.57 191,-173 191,-173 191,-173 581.02,-173 581.02,-173"/>
<polygon fill="black" stroke="black" points="581.02,-176.5 591.02,-173 581.02,-169.5 581.02,-176.5"/>
</g>
<!-- MaterialModule -->
<g id="node10" class="node">
<title>MaterialModule</title>
<polygon fill="#8dd3c7" stroke="black" points="130.47,-122 127.47,-126 106.47,-126 103.47,-122 23.53,-122 23.53,-86 130.47,-86 130.47,-122"/>
<text text-anchor="middle" x="77" y="-99.8" font-family="Times,serif" font-size="14.00">MaterialModule</text>
</g>
<!-- MaterialModule&#45;&gt;AppModule -->
<g id="edge9" class="edge">
<title>MaterialModule&#45;&gt;AppModule</title>
<path fill="none" stroke="black" d="M77,-122.01C77,-144.49 77,-180 77,-180 77,-180 581.21,-180 581.21,-180"/>
<polygon fill="black" stroke="black" points="581.21,-183.5 591.21,-180 581.21,-176.5 581.21,-183.5"/>
</g>
</g>
</svg>
